999
Dxf file generated by netDxf, Copyright(C) 2012 Daniel Carvajal, Licensed under LGPL
0
SECTION
2
HEADER
9
$ACADVER
1
AC1015
9
$HANDSEED
5
37a
0
ENDSEC
0
SECTION
2
TABLES
0
TABLE
2
VPORT
5
1
100
AcDbSymbolTable
0
VPORT
5
64
100
AcDbSymbolTableRecord
100
AcDbViewportTableRecord
2
*Active
70
0
10
0
20
0
11
1
21
1
12
-1
22
1
13
0
23
0
14
0.5
24
0.5
15
10
25
10
16
0
26
0
36
1
17
0
27
0
37
0
0
ENDTAB
0
TABLE
2
LTYPE
5
2
100
AcDbSymbolTable
0
LTYPE
5
67
100
AcDbSymbolTableRecord
100
AcDbLinetypeTableRecord
70
0
2
Continuous
3
Solid line
72
65
73
0
40
0
0
LTYPE
5
68
100
AcDbSymbolTableRecord
100
AcDbLinetypeTableRecord
70
0
2
ByLayer
3

72
65
73
0
40
0
0
LTYPE
5
69
100
AcDbSymbolTableRecord
100
AcDbLinetypeTableRecord
70
0
2
ByBlock
3

72
65
73
0
40
0
0
ENDTAB
0
TABLE
2
LAYER
5
3
100
AcDbSymbolTable
0
LAYER
5
66
100
AcDbSymbolTableRecord
100
AcDbLayerTableRecord
70
0
2
0
62
7
6
Continuous
390
65
0
ENDTAB
0
TABLE
2
STYLE
5
4
100
AcDbSymbolTable
0
STYLE
5
6a
100
AcDbSymbolTableRecord
100
AcDbTextStyleTableRecord
2
Standard
3
simplex
70
0
71
0
40
0
41
1
42
0
50
0
0
ENDTAB
0
TABLE
2
VIEW
5
5
100
AcDbSymbolTable
0
ENDTAB
0
TABLE
2
UCS
5
6
100
AcDbSymbolTable
0
ENDTAB
0
TABLE
2
APPID
5
7
100
AcDbSymbolTable
0
APPID
5
71
100
AcDbSymbolTableRecord
100
AcDbRegAppTableRecord
2
ACAD
70
0
0
ENDTAB
0
TABLE
2
DIMSTYLE
5
8
100
AcDbSymbolTable
100
AcDbDimStyleTable
0
DIMSTYLE
105
72
100
AcDbSymbolTableRecord
100
AcDbDimStyleTableRecord
2
Standard
70
0
0
ENDTAB
0
TABLE
2
BLOCK_RECORD
5
9
100
AcDbSymbolTable
0
BLOCK_RECORD
5
6b
100
AcDbSymbolTableRecord
100
AcDbBlockTableRecord
2
*Model_Space
0
BLOCK_RECORD
5
6e
100
AcDbSymbolTableRecord
100
AcDbBlockTableRecord
2
*Paper_Space
0
ENDTAB
0
ENDSEC
0
SECTION
2
BLOCKS
0
BLOCK
5
6d
100
AcDbEntity
8
0
100
AcDbBlockBegin
2
*Model_Space
70
0
10
0
20
0
30
0
3
*Model_Space
0
ENDBLK
5
6c
100
AcDbEntity
8
0
100
AcDbBlockEnd
0
BLOCK
5
70
100
AcDbEntity
8
0
100
AcDbBlockBegin
2
*Paper_Space
70
0
10
0
20
0
30
0
3
*Paper_Space
0
ENDBLK
5
6f
100
AcDbEntity
8
0
100
AcDbBlockEnd
0
ENDSEC
0
SECTION
2
ENTITIES
0
CIRCLE
5
180
100
AcDbEntity
8
0
62
256
6
ByLayer
100
AcDbCircle
10
166473.488
20
2546757.916
30
0
40
1
39
0
210
0
220
0
230
1
0
CIRCLE
5
181
100
AcDbEntity
8
0
62
256
6
ByLayer
100
AcDbCircle
10
167093.289
20
2546992.387
30
0
40
1
39
0
210
0
220
0
230
1
0
CIRCLE
5
182
100
AcDbEntity
8
0
62
256
6
ByLayer
100
AcDbCircle
10
167147.42
20
2546901.568
30
0
40
1
39
0
210
0
220
0
230
1
0
CIRCLE
5
183
100
AcDbEntity
8
0
62
256
6
ByLayer
100
AcDbCircle
10
167157.041
20
2546762.298
30
0
40
1
39
0
210
0
220
0
230
1
0
CIRCLE
5
184
100
AcDbEntity
8
0
62
256
6
ByLayer
100
AcDbCircle
10
167206.098
20
2546665.294
30
0
40
1
39
0
210
0
220
0
230
1
0
CIRCLE
5
185
100
AcDbEntity
8
0
62
256
6
ByLayer
100
AcDbCircle
10
167182.617
20
2546478.074
30
0
40
1
39
0
210
0
220
0
230
1
0
CIRCLE
5
186
100
AcDbEntity
8
0
62
256
6
ByLayer
100
AcDbCircle
10
167270.581
20
2546488.56
30
0
40
1
39
0
210
0
220
0
230
1
0
CIRCLE
5
187
100
AcDbEntity
8
0
62
256
6
ByLayer
100
AcDbCircle
10
167326.017
20
2546498.222
30
0
40
1
39
0
210
0
220
0
230
1
0
CIRCLE
5
188
100
AcDbEntity
8
0
62
256
6
ByLayer
100
AcDbCircle
10
167429.867
20
2546508.359
30
0
40
1
39
0
210
0
220
0
230
1
0
CIRCLE
5
189
100
AcDbEntity
8
0
62
256
6
ByLayer
100
AcDbCircle
10
167603.792
20
2546557.624
30
0
40
1
39
0
210
0
220
0
230
1
0
CIRCLE
5
18a
100
AcDbEntity
8
0
62
256
6
ByLayer
100
AcDbCircle
10
167750.468
20
2546599.271
30
0
40
1
39
0
210
0
220
0
230
1
0
CIRCLE
5
18b
100
AcDbEntity
8
0
62
256
6
ByLayer
100
AcDbCircle
10
167886.768
20
2546586.324
30
0
40
1
39
0
210
0
220
0
230
1
0
CIRCLE
5
18c
100
AcDbEntity
8
0
62
256
6
ByLayer
100
AcDbCircle
10
167924.753
20
2546572.754
30
0
40
1
39
0
210
0
220
0
230
1
0
CIRCLE
5
18d
100
AcDbEntity
8
0
62
256
6
ByLayer
100
AcDbCircle
10
168033.836
20
2546526.42
30
0
40
1
39
0
210
0
220
0
230
1
0
CIRCLE
5
18e
100
AcDbEntity
8
0
62
256
6
ByLayer
100
AcDbCircle
10
168072.727
20
2546488.785
30
0
40
1
39
0
210
0
220
0
230
1
0
CIRCLE
5
18f
100
AcDbEntity
8
0
62
256
6
ByLayer
100
AcDbCircle
10
168201.692
20
2546424.881
30
0
40
1
39
0
210
0
220
0
230
1
0
CIRCLE
5
190
100
AcDbEntity
8
0
62
256
6
ByLayer
100
AcDbCircle
10
168182.491
20
2546377.146
30
0
40
1
39
0
210
0
220
0
230
1
0
CIRCLE
5
191
100
AcDbEntity
8
0
62
256
6
ByLayer
100
AcDbCircle
10
168049.791
20
2546462.566
30
0
40
1
39
0
210
0
220
0
230
1
0
CIRCLE
5
192
100
AcDbEntity
8
0
62
256
6
ByLayer
100
AcDbCircle
10
168028.765
20
2546397.762
30
0
40
1
39
0
210
0
220
0
230
1
0
CIRCLE
5
193
100
AcDbEntity
8
0
62
256
6
ByLayer
100
AcDbCircle
10
168004.906
20
2546358.34
30
0
40
1
39
0
210
0
220
0
230
1
0
CIRCLE
5
194
100
AcDbEntity
8
0
62
256
6
ByLayer
100
AcDbCircle
10
167995.303
20
2546307.927
30
0
40
1
39
0
210
0
220
0
230
1
0
CIRCLE
5
195
100
AcDbEntity
8
0
62
256
6
ByLayer
100
AcDbCircle
10
167191.27
20
2546356.487
30
0
40
1
39
0
210
0
220
0
230
1
0
CIRCLE
5
196
100
AcDbEntity
8
0
62
256
6
ByLayer
100
AcDbCircle
10
167197.954
20
2546244.361
30
0
40
1
39
0
210
0
220
0
230
1
0
CIRCLE
5
197
100
AcDbEntity
8
0
62
256
6
ByLayer
100
AcDbCircle
10
167205.689
20
2546105.869
30
0
40
1
39
0
210
0
220
0
230
1
0
CIRCLE
5
198
100
AcDbEntity
8
0
62
256
6
ByLayer
100
AcDbCircle
10
167213.066
20
2545991.764
30
0
40
1
39
0
210
0
220
0
230
1
0
CIRCLE
5
199
100
AcDbEntity
8
0
62
256
6
ByLayer
100
AcDbCircle
10
167238.312
20
2545918.915
30
0
40
1
39
0
210
0
220
0
230
1
0
CIRCLE
5
19a
100
AcDbEntity
8
0
62
256
6
ByLayer
100
AcDbCircle
10
167175.48
20
2545775.75
30
0
40
1
39
0
210
0
220
0
230
1
0
CIRCLE
5
19b
100
AcDbEntity
8
0
62
256
6
ByLayer
100
AcDbCircle
10
167142.211
20
2545571.742
30
0
40
1
39
0
210
0
220
0
230
1
0
CIRCLE
5
19c
100
AcDbEntity
8
0
62
256
6
ByLayer
100
AcDbCircle
10
167178.952
20
2545447.974
30
0
40
1
39
0
210
0
220
0
230
1
0
CIRCLE
5
19d
100
AcDbEntity
8
0
62
256
6
ByLayer
100
AcDbCircle
10
167169.398
20
2545302.041
30
0
40
1
39
0
210
0
220
0
230
1
0
CIRCLE
5
19e
100
AcDbEntity
8
0
62
256
6
ByLayer
100
AcDbCircle
10
167171.941
20
2545177.727
30
0
40
1
39
0
210
0
220
0
230
1
0
CIRCLE
5
19f
100
AcDbEntity
8
0
62
256
6
ByLayer
100
AcDbCircle
10
167153.152
20
2545121.66
30
0
40
1
39
0
210
0
220
0
230
1
0
CIRCLE
5
1a0
100
AcDbEntity
8
0
62
256
6
ByLayer
100
AcDbCircle
10
167265.894
20
2545179.279
30
0
40
1
39
0
210
0
220
0
230
1
0
CIRCLE
5
1a1
100
AcDbEntity
8
0
62
256
6
ByLayer
100
AcDbCircle
10
167501.51
20
2545281.714
30
0
40
1
39
0
210
0
220
0
230
1
0
CIRCLE
5
1a2
100
AcDbEntity
8
0
62
256
6
ByLayer
100
AcDbCircle
10
167443.261
20
2545309.703
30
0
40
1
39
0
210
0
220
0
230
1
0
CIRCLE
5
1a3
100
AcDbEntity
8
0
62
256
6
ByLayer
100
AcDbCircle
10
167469.605
20
2545375.4
30
0
40
1
39
0
210
0
220
0
230
1
0
CIRCLE
5
1a4
100
AcDbEntity
8
0
62
256
6
ByLayer
100
AcDbCircle
10
167562.886
20
2545488.369
30
0
40
1
39
0
210
0
220
0
230
1
0
CIRCLE
5
1a5
100
AcDbEntity
8
0
62
256
6
ByLayer
100
AcDbCircle
10
167663.511
20
2545652.147
30
0
40
1
39
0
210
0
220
0
230
1
0
CIRCLE
5
1a6
100
AcDbEntity
8
0
62
256
6
ByLayer
100
AcDbCircle
10
167757.725
20
2545770.052
30
0
40
1
39
0
210
0
220
0
230
1
0
CIRCLE
5
1a7
100
AcDbEntity
8
0
62
256
6
ByLayer
100
AcDbCircle
10
167797.663
20
2545925.98
30
0
40
1
39
0
210
0
220
0
230
1
0
CIRCLE
5
1a8
100
AcDbEntity
8
0
62
256
6
ByLayer
100
AcDbCircle
10
167832.148
20
2546054.96
30
0
40
1
39
0
210
0
220
0
230
1
0
CIRCLE
5
1a9
100
AcDbEntity
8
0
62
256
6
ByLayer
100
AcDbCircle
10
167687.928
20
2546091.154
30
0
40
1
39
0
210
0
220
0
230
1
0
CIRCLE
5
1aa
100
AcDbEntity
8
0
62
256
6
ByLayer
100
AcDbCircle
10
167541.981
20
2546102.579
30
0
40
1
39
0
210
0
220
0
230
1
0
CIRCLE
5
1ab
100
AcDbEntity
8
0
62
256
6
ByLayer
100
AcDbCircle
10
167285.186
20
2546040.839
30
0
40
1
39
0
210
0
220
0
230
1
0
CIRCLE
5
1ac
100
AcDbEntity
8
0
62
256
6
ByLayer
100
AcDbCircle
10
167965.271
20
2546245.52
30
0
40
1
39
0
210
0
220
0
230
1
0
CIRCLE
5
1ad
100
AcDbEntity
8
0
62
256
6
ByLayer
100
AcDbCircle
10
167930.646
20
2546107.781
30
0
40
1
39
0
210
0
220
0
230
1
0
CIRCLE
5
1ae
100
AcDbEntity
8
0
62
256
6
ByLayer
100
AcDbCircle
10
167839.663
20
2546246.644
30
0
40
1
39
0
210
0
220
0
230
1
0
CIRCLE
5
1af
100
AcDbEntity
8
0
62
256
6
ByLayer
100
AcDbCircle
10
167839.959
20
2546120.822
30
0
40
1
39
0
210
0
220
0
230
1
0
CIRCLE
5
1b0
100
AcDbEntity
8
0
62
256
6
ByLayer
100
AcDbCircle
10
167696.764
20
2546262.564
30
0
40
1
39
0
210
0
220
0
230
1
0
CIRCLE
5
1b1
100
AcDbEntity
8
0
62
256
6
ByLayer
100
AcDbCircle
10
167601.155
20
2546267.264
30
0
40
1
39
0
210
0
220
0
230
1
0
CIRCLE
5
1b2
100
AcDbEntity
8
0
62
256
6
ByLayer
100
AcDbCircle
10
167537.147
20
2546270.014
30
0
40
1
39
0
210
0
220
0
230
1
0
CIRCLE
5
1b3
100
AcDbEntity
8
0
62
256
6
ByLayer
100
AcDbCircle
10
167470.636
20
2546264.373
30
0
40
1
39
0
210
0
220
0
230
1
0
CIRCLE
5
1b4
100
AcDbEntity
8
0
62
256
6
ByLayer
100
AcDbCircle
10
167340.193
20
2546248.408
30
0
40
1
39
0
210
0
220
0
230
1
0
CIRCLE
5
1b5
100
AcDbEntity
8
0
62
256
6
ByLayer
100
AcDbCircle
10
167600.341
20
2545135.977
30
0
40
1
39
0
210
0
220
0
230
1
0
CIRCLE
5
1b6
100
AcDbEntity
8
0
62
256
6
ByLayer
100
AcDbCircle
10
167754.651
20
2545317.21
30
0
40
1
39
0
210
0
220
0
230
1
0
CIRCLE
5
1b7
100
AcDbEntity
8
0
62
256
6
ByLayer
100
AcDbCircle
10
168015.844
20
2545275.189
30
0
40
1
39
0
210
0
220
0
230
1
0
CIRCLE
5
1b8
100
AcDbEntity
8
0
62
256
6
ByLayer
100
AcDbCircle
10
168045.372
20
2545268.658
30
0
40
1
39
0
210
0
220
0
230
1
0
CIRCLE
5
1b9
100
AcDbEntity
8
0
62
256
6
ByLayer
100
AcDbCircle
10
168129.56
20
2545251.083
30
0
40
1
39
0
210
0
220
0
230
1
0
CIRCLE
5
1ba
100
AcDbEntity
8
0
62
256
6
ByLayer
100
AcDbCircle
10
168221.829
20
2545214.423
30
0
40
1
39
0
210
0
220
0
230
1
0
CIRCLE
5
1bb
100
AcDbEntity
8
0
62
256
6
ByLayer
100
AcDbCircle
10
168279.629
20
2545201.459
30
0
40
1
39
0
210
0
220
0
230
1
0
CIRCLE
5
1bc
100
AcDbEntity
8
0
62
256
6
ByLayer
100
AcDbCircle
10
168362.604
20
2545183.599
30
0
40
1
39
0
210
0
220
0
230
1
0
CIRCLE
5
1bd
100
AcDbEntity
8
0
62
256
6
ByLayer
100
AcDbCircle
10
168444.089
20
2545165.607
30
0
40
1
39
0
210
0
220
0
230
1
0
CIRCLE
5
1be
100
AcDbEntity
8
0
62
256
6
ByLayer
100
AcDbCircle
10
168564.116
20
2545135.17
30
0
40
1
39
0
210
0
220
0
230
1
0
CIRCLE
5
1bf
100
AcDbEntity
8
0
62
256
6
ByLayer
100
AcDbCircle
10
168713.705
20
2545118.776
30
0
40
1
39
0
210
0
220
0
230
1
0
CIRCLE
5
1c0
100
AcDbEntity
8
0
62
256
6
ByLayer
100
AcDbCircle
10
168630.727
20
2545357.314
30
0
40
1
39
0
210
0
220
0
230
1
0
CIRCLE
5
1c1
100
AcDbEntity
8
0
62
256
6
ByLayer
100
AcDbCircle
10
168659.063
20
2545431.344
30
0
40
1
39
0
210
0
220
0
230
1
0
CIRCLE
5
1c2
100
AcDbEntity
8
0
62
256
6
ByLayer
100
AcDbCircle
10
168685.516
20
2545473.327
30
0
40
1
39
0
210
0
220
0
230
1
0
CIRCLE
5
1c3
100
AcDbEntity
8
0
62
256
6
ByLayer
100
AcDbCircle
10
168700.095
20
2545502.492
30
0
40
1
39
0
210
0
220
0
230
1
0
CIRCLE
5
1c4
100
AcDbEntity
8
0
62
256
6
ByLayer
100
AcDbCircle
10
168702.529
20
2545537.797
30
0
40
1
39
0
210
0
220
0
230
1
0
CIRCLE
5
1c5
100
AcDbEntity
8
0
62
256
6
ByLayer
100
AcDbCircle
10
168736.752
20
2545582.712
30
0
40
1
39
0
210
0
220
0
230
1
0
CIRCLE
5
1c6
100
AcDbEntity
8
0
62
256
6
ByLayer
100
AcDbCircle
10
168762.349
20
2545650.652
30
0
40
1
39
0
210
0
220
0
230
1
0
CIRCLE
5
1c7
100
AcDbEntity
8
0
62
256
6
ByLayer
100
AcDbCircle
10
168781.24
20
2545720.638
30
0
40
1
39
0
210
0
220
0
230
1
0
CIRCLE
5
1c8
100
AcDbEntity
8
0
62
256
6
ByLayer
100
AcDbCircle
10
168837.245
20
2545884.794
30
0
40
1
39
0
210
0
220
0
230
1
0
CIRCLE
5
1c9
100
AcDbEntity
8
0
62
256
6
ByLayer
100
AcDbCircle
10
168887.041
20
2546051.639
30
0
40
1
39
0
210
0
220
0
230
1
0
CIRCLE
5
1ca
100
AcDbEntity
8
0
62
256
6
ByLayer
100
AcDbCircle
10
168919.876
20
2546135.812
30
0
40
1
39
0
210
0
220
0
230
1
0
CIRCLE
5
1cb
100
AcDbEntity
8
0
62
256
6
ByLayer
100
AcDbCircle
10
169039.884
20
2546111.728
30
0
40
1
39
0
210
0
220
0
230
1
0
CIRCLE
5
1cc
100
AcDbEntity
8
0
62
256
6
ByLayer
100
AcDbCircle
10
168801.605
20
2546125.395
30
0
40
1
39
0
210
0
220
0
230
1
0
CIRCLE
5
1cd
100
AcDbEntity
8
0
62
256
6
ByLayer
100
AcDbCircle
10
169149.018
20
2546118.291
30
0
40
1
39
0
210
0
220
0
230
1
0
CIRCLE
5
1ce
100
AcDbEntity
8
0
62
256
6
ByLayer
100
AcDbCircle
10
169162.055
20
2546132.414
30
0
40
1
39
0
210
0
220
0
230
1
0
CIRCLE
5
1cf
100
AcDbEntity
8
0
62
256
6
ByLayer
100
AcDbCircle
10
169160.217
20
2546167.579
30
0
40
1
39
0
210
0
220
0
230
1
0
CIRCLE
5
1d0
100
AcDbEntity
8
0
62
256
6
ByLayer
100
AcDbCircle
10
169158.851
20
2546213.811
30
0
40
1
39
0
210
0
220
0
230
1
0
CIRCLE
5
1d1
100
AcDbEntity
8
0
62
256
6
ByLayer
100
AcDbCircle
10
169213.103
20
2546202.556
30
0
40
1
39
0
210
0
220
0
230
1
0
CIRCLE
5
1d2
100
AcDbEntity
8
0
62
256
6
ByLayer
100
AcDbCircle
10
169272.83
20
2546282.575
30
0
40
1
39
0
210
0
220
0
230
1
0
CIRCLE
5
1d3
100
AcDbEntity
8
0
62
256
6
ByLayer
100
AcDbCircle
10
169312.441
20
2546351.138
30
0
40
1
39
0
210
0
220
0
230
1
0
CIRCLE
5
1d4
100
AcDbEntity
8
0
62
256
6
ByLayer
100
AcDbCircle
10
169356.972
20
2546410.283
30
0
40
1
39
0
210
0
220
0
230
1
0
CIRCLE
5
1d5
100
AcDbEntity
8
0
62
256
6
ByLayer
100
AcDbCircle
10
169391.632
20
2546478.32
30
0
40
1
39
0
210
0
220
0
230
1
0
CIRCLE
5
1d6
100
AcDbEntity
8
0
62
256
6
ByLayer
100
AcDbCircle
10
169385.602
20
2546522.414
30
0
40
1
39
0
210
0
220
0
230
1
0
CIRCLE
5
1d7
100
AcDbEntity
8
0
62
256
6
ByLayer
100
AcDbCircle
10
169392.45
20
2546555.443
30
0
40
1
39
0
210
0
220
0
230
1
0
CIRCLE
5
1d8
100
AcDbEntity
8
0
62
256
6
ByLayer
100
AcDbCircle
10
169386.269
20
2546588.448
30
0
40
1
39
0
210
0
220
0
230
1
0
CIRCLE
5
1d9
100
AcDbEntity
8
0
62
256
6
ByLayer
100
AcDbCircle
10
169394.098
20
2546631.832
30
0
40
1
39
0
210
0
220
0
230
1
0
CIRCLE
5
1da
100
AcDbEntity
8
0
62
256
6
ByLayer
100
AcDbCircle
10
169389.578
20
2546668.874
30
0
40
1
39
0
210
0
220
0
230
1
0
CIRCLE
5
1db
100
AcDbEntity
8
0
62
256
6
ByLayer
100
AcDbCircle
10
169397.956
20
2546707.814
30
0
40
1
39
0
210
0
220
0
230
1
0
CIRCLE
5
1dc
100
AcDbEntity
8
0
62
256
6
ByLayer
100
AcDbCircle
10
169390.857
20
2546726.244
30
0
40
1
39
0
210
0
220
0
230
1
0
CIRCLE
5
1dd
100
AcDbEntity
8
0
62
256
6
ByLayer
100
AcDbCircle
10
169403.318
20
2546798.455
30
0
40
1
39
0
210
0
220
0
230
1
0
CIRCLE
5
1de
100
AcDbEntity
8
0
62
256
6
ByLayer
100
AcDbCircle
10
169372.629
20
2546789.717
30
0
40
1
39
0
210
0
220
0
230
1
0
CIRCLE
5
1df
100
AcDbEntity
8
0
62
256
6
ByLayer
100
AcDbCircle
10
169367.427
20
2546740.428
30
0
40
1
39
0
210
0
220
0
230
1
0
CIRCLE
5
1e0
100
AcDbEntity
8
0
62
256
6
ByLayer
100
AcDbCircle
10
169321.775
20
2546779.858
30
0
40
1
39
0
210
0
220
0
230
1
0
CIRCLE
5
1e1
100
AcDbEntity
8
0
62
256
6
ByLayer
100
AcDbCircle
10
169260.132
20
2546778.321
30
0
40
1
39
0
210
0
220
0
230
1
0
CIRCLE
5
1e2
100
AcDbEntity
8
0
62
256
6
ByLayer
100
AcDbCircle
10
169251.915
20
2546746.755
30
0
40
1
39
0
210
0
220
0
230
1
0
CIRCLE
5
1e3
100
AcDbEntity
8
0
62
256
6
ByLayer
100
AcDbCircle
10
169237.546
20
2546713.443
30
0
40
1
39
0
210
0
220
0
230
1
0
CIRCLE
5
1e4
100
AcDbEntity
8
0
62
256
6
ByLayer
100
AcDbCircle
10
169228.753
20
2546627.017
30
0
40
1
39
0
210
0
220
0
230
1
0
CIRCLE
5
1e5
100
AcDbEntity
8
0
62
256
6
ByLayer
100
AcDbCircle
10
169187.254
20
2546640.773
30
0
40
1
39
0
210
0
220
0
230
1
0
CIRCLE
5
1e6
100
AcDbEntity
8
0
62
256
6
ByLayer
100
AcDbCircle
10
169095.83
20
2546679.2
30
0
40
1
39
0
210
0
220
0
230
1
0
CIRCLE
5
1e7
100
AcDbEntity
8
0
62
256
6
ByLayer
100
AcDbCircle
10
169040.83
20
2546676.793
30
0
40
1
39
0
210
0
220
0
230
1
0
CIRCLE
5
1e8
100
AcDbEntity
8
0
62
256
6
ByLayer
100
AcDbCircle
10
168999.538
20
2546663.797
30
0
40
1
39
0
210
0
220
0
230
1
0
CIRCLE
5
1e9
100
AcDbEntity
8
0
62
256
6
ByLayer
100
AcDbCircle
10
168919.491
20
2546688.783
30
0
40
1
39
0
210
0
220
0
230
1
0
CIRCLE
5
1ea
100
AcDbEntity
8
0
62
256
6
ByLayer
100
AcDbCircle
10
168864.837
20
2546695.3
30
0
40
1
39
0
210
0
220
0
230
1
0
CIRCLE
5
1eb
100
AcDbEntity
8
0
62
256
6
ByLayer
100
AcDbCircle
10
168874.862
20
2546746.479
30
0
40
1
39
0
210
0
220
0
230
1
0
CIRCLE
5
1ec
100
AcDbEntity
8
0
62
256
6
ByLayer
100
AcDbCircle
10
168887.64
20
2546814.985
30
0
40
1
39
0
210
0
220
0
230
1
0
CIRCLE
5
1ed
100
AcDbEntity
8
0
62
256
6
ByLayer
100
AcDbCircle
10
168808.961
20
2546811.017
30
0
40
1
39
0
210
0
220
0
230
1
0
CIRCLE
5
1ee
100
AcDbEntity
8
0
62
256
6
ByLayer
100
AcDbCircle
10
168780.819
20
2546747.844
30
0
40
1
39
0
210
0
220
0
230
1
0
CIRCLE
5
1ef
100
AcDbEntity
8
0
62
256
6
ByLayer
100
AcDbCircle
10
168731.6
20
2546760.894
30
0
40
1
39
0
210
0
220
0
230
1
0
CIRCLE
5
1f0
100
AcDbEntity
8
0
62
256
6
ByLayer
100
AcDbCircle
10
168702.17
20
2546661.312
30
0
40
1
39
0
210
0
220
0
230
1
0
CIRCLE
5
1f1
100
AcDbEntity
8
0
62
256
6
ByLayer
100
AcDbCircle
10
168648.46
20
2546679.16
30
0
40
1
39
0
210
0
220
0
230
1
0
CIRCLE
5
1f2
100
AcDbEntity
8
0
62
256
6
ByLayer
100
AcDbCircle
10
168588.094
20
2546694.16
30
0
40
1
39
0
210
0
220
0
230
1
0
CIRCLE
5
1f3
100
AcDbEntity
8
0
62
256
6
ByLayer
100
AcDbCircle
10
168548.785
20
2546691.01
30
0
40
1
39
0
210
0
220
0
230
1
0
CIRCLE
5
1f4
100
AcDbEntity
8
0
62
256
6
ByLayer
100
AcDbCircle
10
168504.822
20
2546702.224
30
0
40
1
39
0
210
0
220
0
230
1
0
CIRCLE
5
1f5
100
AcDbEntity
8
0
62
256
6
ByLayer
100
AcDbCircle
10
168513.133
20
2546802.142
30
0
40
1
39
0
210
0
220
0
230
1
0
CIRCLE
5
1f6
100
AcDbEntity
8
0
62
256
6
ByLayer
100
AcDbCircle
10
168519.621
20
2546855.763
30
0
40
1
39
0
210
0
220
0
230
1
0
CIRCLE
5
1f7
100
AcDbEntity
8
0
62
256
6
ByLayer
100
AcDbCircle
10
168343.736
20
2547052.237
30
0
40
1
39
0
210
0
220
0
230
1
0
CIRCLE
5
1f8
100
AcDbEntity
8
0
62
256
6
ByLayer
100
AcDbCircle
10
168208.708
20
2547129.975
30
0
40
1
39
0
210
0
220
0
230
1
0
CIRCLE
5
1f9
100
AcDbEntity
8
0
62
256
6
ByLayer
100
AcDbCircle
10
168037.505
20
2547190.511
30
0
40
1
39
0
210
0
220
0
230
1
0
CIRCLE
5
1fa
100
AcDbEntity
8
0
62
256
6
ByLayer
100
AcDbCircle
10
168210.623
20
2547184.319
30
0
40
1
39
0
210
0
220
0
230
1
0
CIRCLE
5
1fb
100
AcDbEntity
8
0
62
256
6
ByLayer
100
AcDbCircle
10
167975.767
20
2547179.915
30
0
40
1
39
0
210
0
220
0
230
1
0
CIRCLE
5
1fc
100
AcDbEntity
8
0
62
256
6
ByLayer
100
AcDbCircle
10
167864.878
20
2547161.879
30
0
40
1
39
0
210
0
220
0
230
1
0
CIRCLE
5
1fd
100
AcDbEntity
8
0
62
256
6
ByLayer
100
AcDbCircle
10
167815.699
20
2547154.587
30
0
40
1
39
0
210
0
220
0
230
1
0
CIRCLE
5
1fe
100
AcDbEntity
8
0
62
256
6
ByLayer
100
AcDbCircle
10
167741.504
20
2547139.954
30
0
40
1
39
0
210
0
220
0
230
1
0
CIRCLE
5
1ff
100
AcDbEntity
8
0
62
256
6
ByLayer
100
AcDbCircle
10
167656.578
20
2547124.767
30
0
40
1
39
0
210
0
220
0
230
1
0
CIRCLE
5
200
100
AcDbEntity
8
0
62
256
6
ByLayer
100
AcDbCircle
10
167456.387
20
2547086.573
30
0
40
1
39
0
210
0
220
0
230
1
0
CIRCLE
5
201
100
AcDbEntity
8
0
62
256
6
ByLayer
100
AcDbCircle
10
167384.209
20
2547090.37
30
0
40
1
39
0
210
0
220
0
230
1
0
CIRCLE
5
202
100
AcDbEntity
8
0
62
256
6
ByLayer
100
AcDbCircle
10
167286.501
20
2547061.639
30
0
40
1
39
0
210
0
220
0
230
1
0
CIRCLE
5
203
100
AcDbEntity
8
0
62
256
6
ByLayer
100
AcDbCircle
10
167196.603
20
2546927.502
30
0
40
1
39
0
210
0
220
0
230
1
0
CIRCLE
5
204
100
AcDbEntity
8
0
62
256
6
ByLayer
100
AcDbCircle
10
167307.412
20
2546959.463
30
0
40
1
39
0
210
0
220
0
230
1
0
CIRCLE
5
205
100
AcDbEntity
8
0
62
256
6
ByLayer
100
AcDbCircle
10
167340.338
20
2546820.167
30
0
40
1
39
0
210
0
220
0
230
1
0
CIRCLE
5
206
100
AcDbEntity
8
0
62
256
6
ByLayer
100
AcDbCircle
10
167374.032
20
2546704.596
30
0
40
1
39
0
210
0
220
0
230
1
0
CIRCLE
5
207
100
AcDbEntity
8
0
62
256
6
ByLayer
100
AcDbCircle
10
167306.284
20
2546686.907
30
0
40
1
39
0
210
0
220
0
230
1
0
CIRCLE
5
208
100
AcDbEntity
8
0
62
256
6
ByLayer
100
AcDbCircle
10
167318.129
20
2546571.811
30
0
40
1
39
0
210
0
220
0
230
1
0
CIRCLE
5
209
100
AcDbEntity
8
0
62
256
6
ByLayer
100
AcDbCircle
10
167483.704
20
2546381.265
30
0
40
1
39
0
210
0
220
0
230
1
0
CIRCLE
5
20a
100
AcDbEntity
8
0
62
256
6
ByLayer
100
AcDbCircle
10
167396.287
20
2546988.168
30
0
40
1
39
0
210
0
220
0
230
1
0
CIRCLE
5
20b
100
AcDbEntity
8
0
62
256
6
ByLayer
100
AcDbCircle
10
167474.106
20
2547008.94
30
0
40
1
39
0
210
0
220
0
230
1
0
CIRCLE
5
20c
100
AcDbEntity
8
0
62
256
6
ByLayer
100
AcDbCircle
10
167669.512
20
2547065.003
30
0
40
1
39
0
210
0
220
0
230
1
0
CIRCLE
5
20d
100
AcDbEntity
8
0
62
256
6
ByLayer
100
AcDbCircle
10
167436.423
20
2546848.312
30
0
40
1
39
0
210
0
220
0
230
1
0
CIRCLE
5
20e
100
AcDbEntity
8
0
62
256
6
ByLayer
100
AcDbCircle
10
167513.552
20
2546870.934
30
0
40
1
39
0
210
0
220
0
230
1
0
CIRCLE
5
20f
100
AcDbEntity
8
0
62
256
6
ByLayer
100
AcDbCircle
10
167493.959
20
2546938.05
30
0
40
1
39
0
210
0
220
0
230
1
0
CIRCLE
5
210
100
AcDbEntity
8
0
62
256
6
ByLayer
100
AcDbCircle
10
167683.252
20
2546999.952
30
0
40
1
39
0
210
0
220
0
230
1
0
CIRCLE
5
211
100
AcDbEntity
8
0
62
256
6
ByLayer
100
AcDbCircle
10
167765.252
20
2547017.683
30
0
40
1
39
0
210
0
220
0
230
1
0
CIRCLE
5
212
100
AcDbEntity
8
0
62
256
6
ByLayer
100
AcDbCircle
10
167664.127
20
2546915.299
30
0
40
1
39
0
210
0
220
0
230
1
0
CIRCLE
5
213
100
AcDbEntity
8
0
62
256
6
ByLayer
100
AcDbCircle
10
167810.515
20
2546964.65
30
0
40
1
39
0
210
0
220
0
230
1
0
CIRCLE
5
214
100
AcDbEntity
8
0
62
256
6
ByLayer
100
AcDbCircle
10
167906.143
20
2546974.121
30
0
40
1
39
0
210
0
220
0
230
1
0
CIRCLE
5
215
100
AcDbEntity
8
0
62
256
6
ByLayer
100
AcDbCircle
10
167987.673
20
2547098.688
30
0
40
1
39
0
210
0
220
0
230
1
0
CIRCLE
5
216
100
AcDbEntity
8
0
62
256
6
ByLayer
100
AcDbCircle
10
167683.359
20
2545971.885
30
0
40
1
39
0
210
0
220
0
230
1
0
CIRCLE
5
217
100
AcDbEntity
8
0
62
256
6
ByLayer
100
AcDbCircle
10
167535.136
20
2545899.479
30
0
40
1
39
0
210
0
220
0
230
1
0
CIRCLE
5
218
100
AcDbEntity
8
0
62
256
6
ByLayer
100
AcDbCircle
10
167461.739
20
2545899.342
30
0
40
1
39
0
210
0
220
0
230
1
0
CIRCLE
5
219
100
AcDbEntity
8
0
62
256
6
ByLayer
100
AcDbCircle
10
167464.668
20
2545655.839
30
0
40
1
39
0
210
0
220
0
230
1
0
CIRCLE
5
21a
100
AcDbEntity
8
0
62
256
6
ByLayer
100
AcDbCircle
10
167393.354
20
2545903.877
30
0
40
1
39
0
210
0
220
0
230
1
0
CIRCLE
5
21b
100
AcDbEntity
8
0
62
256
6
ByLayer
100
AcDbCircle
10
167323.715
20
2545894.136
30
0
40
1
39
0
210
0
220
0
230
1
0
CIRCLE
5
21c
100
AcDbEntity
8
0
62
256
6
ByLayer
100
AcDbCircle
10
167651.698
20
2546380.244
30
0
40
1
39
0
210
0
220
0
230
1
0
CIRCLE
5
21d
100
AcDbEntity
8
0
62
256
6
ByLayer
100
AcDbCircle
10
167636.605
20
2546442.316
30
0
40
1
39
0
210
0
220
0
230
1
0
CIRCLE
5
21e
100
AcDbEntity
8
0
62
256
6
ByLayer
100
AcDbCircle
10
167712.809
20
2546733.174
30
0
40
1
39
0
210
0
220
0
230
1
0
CIRCLE
5
21f
100
AcDbEntity
8
0
62
256
6
ByLayer
100
AcDbCircle
10
167770.386
20
2546746.582
30
0
40
1
39
0
210
0
220
0
230
1
0
CIRCLE
5
220
100
AcDbEntity
8
0
62
256
6
ByLayer
100
AcDbCircle
10
167697.103
20
2546796.155
30
0
40
1
39
0
210
0
220
0
230
1
0
CIRCLE
5
221
100
AcDbEntity
8
0
62
256
6
ByLayer
100
AcDbCircle
10
167890.689
20
2546514.096
30
0
40
1
39
0
210
0
220
0
230
1
0
CIRCLE
5
222
100
AcDbEntity
8
0
62
256
6
ByLayer
100
AcDbCircle
10
167912.82
20
2546647.396
30
0
40
1
39
0
210
0
220
0
230
1
0
CIRCLE
5
223
100
AcDbEntity
8
0
62
256
6
ByLayer
100
AcDbCircle
10
167954.838
20
2546658.907
30
0
40
1
39
0
210
0
220
0
230
1
0
CIRCLE
5
224
100
AcDbEntity
8
0
62
256
6
ByLayer
100
AcDbCircle
10
167982.779
20
2546727.192
30
0
40
1
39
0
210
0
220
0
230
1
0
CIRCLE
5
225
100
AcDbEntity
8
0
62
256
6
ByLayer
100
AcDbCircle
10
168032.678
20
2546813.93
30
0
40
1
39
0
210
0
220
0
230
1
0
CIRCLE
5
226
100
AcDbEntity
8
0
62
256
6
ByLayer
100
AcDbCircle
10
167923.01
20
2546873.299
30
0
40
1
39
0
210
0
220
0
230
1
0
CIRCLE
5
227
100
AcDbEntity
8
0
62
256
6
ByLayer
100
AcDbCircle
10
168077.357
20
2546885.439
30
0
40
1
39
0
210
0
220
0
230
1
0
CIRCLE
5
228
100
AcDbEntity
8
0
62
256
6
ByLayer
100
AcDbCircle
10
168114.543
20
2546960.82
30
0
40
1
39
0
210
0
220
0
230
1
0
CIRCLE
5
229
100
AcDbEntity
8
0
62
256
6
ByLayer
100
AcDbCircle
10
168174.524
20
2547068.294
30
0
40
1
39
0
210
0
220
0
230
1
0
CIRCLE
5
22a
100
AcDbEntity
8
0
62
256
6
ByLayer
100
AcDbCircle
10
168220.709
20
2547042.057
30
0
40
1
39
0
210
0
220
0
230
1
0
CIRCLE
5
22b
100
AcDbEntity
8
0
62
256
6
ByLayer
100
AcDbCircle
10
168096.814
20
2546216.956
30
0
40
1
39
0
210
0
220
0
230
1
0
CIRCLE
5
22c
100
AcDbEntity
8
0
62
256
6
ByLayer
100
AcDbCircle
10
168104.084
20
2546568.83
30
0
40
1
39
0
210
0
220
0
230
1
0
CIRCLE
5
22d
100
AcDbEntity
8
0
62
256
6
ByLayer
100
AcDbCircle
10
168188.341
20
2546676.216
30
0
40
1
39
0
210
0
220
0
230
1
0
CIRCLE
5
22e
100
AcDbEntity
8
0
62
256
6
ByLayer
100
AcDbCircle
10
168129.804
20
2546598.764
30
0
40
1
39
0
210
0
220
0
230
1
0
CIRCLE
5
22f
100
AcDbEntity
8
0
62
256
6
ByLayer
100
AcDbCircle
10
168284.837
20
2546516.501
30
0
40
1
39
0
210
0
220
0
230
1
0
CIRCLE
5
230
100
AcDbEntity
8
0
62
256
6
ByLayer
100
AcDbCircle
10
168233.512
20
2546732.539
30
0
40
1
39
0
210
0
220
0
230
1
0
CIRCLE
5
231
100
AcDbEntity
8
0
62
256
6
ByLayer
100
AcDbCircle
10
168320.812
20
2546662.901
30
0
40
1
39
0
210
0
220
0
230
1
0
CIRCLE
5
232
100
AcDbEntity
8
0
62
256
6
ByLayer
100
AcDbCircle
10
168271.003
20
2546780.819
30
0
40
1
39
0
210
0
220
0
230
1
0
CIRCLE
5
233
100
AcDbEntity
8
0
62
256
6
ByLayer
100
AcDbCircle
10
168308.232
20
2546821.521
30
0
40
1
39
0
210
0
220
0
230
1
0
CIRCLE
5
234
100
AcDbEntity
8
0
62
256
6
ByLayer
100
AcDbCircle
10
168408.881
20
2546954.69
30
0
40
1
39
0
210
0
220
0
230
1
0
CIRCLE
5
235
100
AcDbEntity
8
0
62
256
6
ByLayer
100
AcDbCircle
10
168358.29
20
2546890.063
30
0
40
1
39
0
210
0
220
0
230
1
0
CIRCLE
5
236
100
AcDbEntity
8
0
62
256
6
ByLayer
100
AcDbCircle
10
168394.432
20
2546871.75
30
0
40
1
39
0
210
0
220
0
230
1
0
CIRCLE
5
237
100
AcDbEntity
8
0
62
256
6
ByLayer
100
AcDbCircle
10
168233.178
20
2546957.33
30
0
40
1
39
0
210
0
220
0
230
1
0
CIRCLE
5
238
100
AcDbEntity
8
0
62
256
6
ByLayer
100
AcDbCircle
10
168270.782
20
2547018.781
30
0
40
1
39
0
210
0
220
0
230
1
0
CIRCLE
5
239
100
AcDbEntity
8
0
62
256
6
ByLayer
100
AcDbCircle
10
167952.178
20
2545708.008
30
0
40
1
39
0
210
0
220
0
230
1
0
CIRCLE
5
23a
100
AcDbEntity
8
0
62
256
6
ByLayer
100
AcDbCircle
10
168058.758
20
2545653.479
30
0
40
1
39
0
210
0
220
0
230
1
0
CIRCLE
5
23b
100
AcDbEntity
8
0
62
256
6
ByLayer
100
AcDbCircle
10
168002.839
20
2545863.235
30
0
40
1
39
0
210
0
220
0
230
1
0
CIRCLE
5
23c
100
AcDbEntity
8
0
62
256
6
ByLayer
100
AcDbCircle
10
168023.2
20
2545769.833
30
0
40
1
39
0
210
0
220
0
230
1
0
CIRCLE
5
23d
100
AcDbEntity
8
0
62
256
6
ByLayer
100
AcDbCircle
10
167897.764
20
2545888.078
30
0
40
1
39
0
210
0
220
0
230
1
0
CIRCLE
5
23e
100
AcDbEntity
8
0
62
256
6
ByLayer
100
AcDbCircle
10
167928.79
20
2545963.799
30
0
40
1
39
0
210
0
220
0
230
1
0
CIRCLE
5
23f
100
AcDbEntity
8
0
62
256
6
ByLayer
100
AcDbCircle
10
167954.24
20
2546034.007
30
0
40
1
39
0
210
0
220
0
230
1
0
CIRCLE
5
240
100
AcDbEntity
8
0
62
256
6
ByLayer
100
AcDbCircle
10
167533.594
20
2545783.853
30
0
40
1
39
0
210
0
220
0
230
1
0
CIRCLE
5
241
100
AcDbEntity
8
0
62
256
6
ByLayer
100
AcDbCircle
10
167529.723
20
2545737.51
30
0
40
1
39
0
210
0
220
0
230
1
0
CIRCLE
5
242
100
AcDbEntity
8
0
62
256
6
ByLayer
100
AcDbCircle
10
167620.237
20
2545670.525
30
0
40
1
39
0
210
0
220
0
230
1
0
CIRCLE
5
243
100
AcDbEntity
8
0
62
256
6
ByLayer
100
AcDbCircle
10
167444.442
20
2545627.199
30
0
40
1
39
0
210
0
220
0
230
1
0
CIRCLE
5
244
100
AcDbEntity
8
0
62
256
6
ByLayer
100
AcDbCircle
10
167494.143
20
2545592.521
30
0
40
1
39
0
210
0
220
0
230
1
0
CIRCLE
5
245
100
AcDbEntity
8
0
62
256
6
ByLayer
100
AcDbCircle
10
167387.075
20
2545435.634
30
0
40
1
39
0
210
0
220
0
230
1
0
CIRCLE
5
246
100
AcDbEntity
8
0
62
256
6
ByLayer
100
AcDbCircle
10
167424.019
20
2545403.135
30
0
40
1
39
0
210
0
220
0
230
1
0
CIRCLE
5
247
100
AcDbEntity
8
0
62
256
6
ByLayer
100
AcDbCircle
10
167305.757
20
2545436.072
30
0
40
1
39
0
210
0
220
0
230
1
0
CIRCLE
5
248
100
AcDbEntity
8
0
62
256
6
ByLayer
100
AcDbCircle
10
167419.633
20
2545583.586
30
0
40
1
39
0
210
0
220
0
230
1
0
CIRCLE
5
249
100
AcDbEntity
8
0
62
256
6
ByLayer
100
AcDbCircle
10
167245.609
20
2545454.672
30
0
40
1
39
0
210
0
220
0
230
1
0
CIRCLE
5
24a
100
AcDbEntity
8
0
62
256
6
ByLayer
100
AcDbCircle
10
167361.891
20
2545378.053
30
0
40
1
39
0
210
0
220
0
230
1
0
CIRCLE
5
24b
100
AcDbEntity
8
0
62
256
6
ByLayer
100
AcDbCircle
10
167226.58
20
2545327.088
30
0
40
1
39
0
210
0
220
0
230
1
0
CIRCLE
5
24c
100
AcDbEntity
8
0
62
256
6
ByLayer
100
AcDbCircle
10
167328.094
20
2545709.952
30
0
40
1
39
0
210
0
220
0
230
1
0
CIRCLE
5
24d
100
AcDbEntity
8
0
62
256
6
ByLayer
100
AcDbCircle
10
167241.791
20
2545709.443
30
0
40
1
39
0
210
0
220
0
230
1
0
CIRCLE
5
24e
100
AcDbEntity
8
0
62
256
6
ByLayer
100
AcDbCircle
10
167241.747
20
2545641.704
30
0
40
1
39
0
210
0
220
0
230
1
0
CIRCLE
5
24f
100
AcDbEntity
8
0
62
256
6
ByLayer
100
AcDbCircle
10
167393.045
20
2545644.834
30
0
40
1
39
0
210
0
220
0
230
1
0
CIRCLE
5
250
100
AcDbEntity
8
0
62
256
6
ByLayer
100
AcDbCircle
10
167239.868
20
2545570.094
30
0
40
1
39
0
210
0
220
0
230
1
0
CIRCLE
5
251
100
AcDbEntity
8
0
62
256
6
ByLayer
100
AcDbCircle
10
167582.492
20
2545534.947
30
0
40
1
39
0
210
0
220
0
230
1
0
CIRCLE
5
252
100
AcDbEntity
8
0
62
256
6
ByLayer
100
AcDbCircle
10
167629.138
20
2545497.719
30
0
40
1
39
0
210
0
220
0
230
1
0
CIRCLE
5
253
100
AcDbEntity
8
0
62
256
6
ByLayer
100
AcDbCircle
10
167692.224
20
2545455.419
30
0
40
1
39
0
210
0
220
0
230
1
0
CIRCLE
5
254
100
AcDbEntity
8
0
62
256
6
ByLayer
100
AcDbCircle
10
167776.104
20
2545418.229
30
0
40
1
39
0
210
0
220
0
230
1
0
CIRCLE
5
255
100
AcDbEntity
8
0
62
256
6
ByLayer
100
AcDbCircle
10
167862.951
20
2545543
30
0
40
1
39
0
210
0
220
0
230
1
0
CIRCLE
5
256
100
AcDbEntity
8
0
62
256
6
ByLayer
100
AcDbCircle
10
167814.533
20
2545498.533
30
0
40
1
39
0
210
0
220
0
230
1
0
CIRCLE
5
257
100
AcDbEntity
8
0
62
256
6
ByLayer
100
AcDbCircle
10
167893.598
20
2545651.542
30
0
40
1
39
0
210
0
220
0
230
1
0
CIRCLE
5
258
100
AcDbEntity
8
0
62
256
6
ByLayer
100
AcDbCircle
10
167745.938
20
2545591.954
30
0
40
1
39
0
210
0
220
0
230
1
0
CIRCLE
5
259
100
AcDbEntity
8
0
62
256
6
ByLayer
100
AcDbCircle
10
167694.581
20
2545513.604
30
0
40
1
39
0
210
0
220
0
230
1
0
CIRCLE
5
25a
100
AcDbEntity
8
0
62
256
6
ByLayer
100
AcDbCircle
10
167803.219
20
2545386.443
30
0
40
1
39
0
210
0
220
0
230
1
0
CIRCLE
5
25b
100
AcDbEntity
8
0
62
256
6
ByLayer
100
AcDbCircle
10
167902.84
20
2545441.296
30
0
40
1
39
0
210
0
220
0
230
1
0
CIRCLE
5
25c
100
AcDbEntity
8
0
62
256
6
ByLayer
100
AcDbCircle
10
168343.251
20
2546756.592
30
0
40
1
39
0
210
0
220
0
230
1
0
CIRCLE
5
25d
100
AcDbEntity
8
0
62
256
6
ByLayer
100
AcDbCircle
10
168403.879
20
2546702.006
30
0
40
1
39
0
210
0
220
0
230
1
0
CIRCLE
5
25e
100
AcDbEntity
8
0
62
256
6
ByLayer
100
AcDbCircle
10
168385.452
20
2546643.075
30
0
40
1
39
0
210
0
220
0
230
1
0
CIRCLE
5
25f
100
AcDbEntity
8
0
62
256
6
ByLayer
100
AcDbCircle
10
168418.74
20
2546621.117
30
0
40
1
39
0
210
0
220
0
230
1
0
CIRCLE
5
260
100
AcDbEntity
8
0
62
256
6
ByLayer
100
AcDbCircle
10
168336.974
20
2546583.202
30
0
40
1
39
0
210
0
220
0
230
1
0
CIRCLE
5
261
100
AcDbEntity
8
0
62
256
6
ByLayer
100
AcDbCircle
10
168366.071
20
2546573.498
30
0
40
1
39
0
210
0
220
0
230
1
0
CIRCLE
5
262
100
AcDbEntity
8
0
62
256
6
ByLayer
100
AcDbCircle
10
168044.507
20
2545989.618
30
0
40
1
39
0
210
0
220
0
230
1
0
CIRCLE
5
263
100
AcDbEntity
8
0
62
256
6
ByLayer
100
AcDbCircle
10
168049.825
20
2545924.07
30
0
40
1
39
0
210
0
220
0
230
1
0
CIRCLE
5
264
100
AcDbEntity
8
0
62
256
6
ByLayer
100
AcDbCircle
10
168108.323
20
2546090.449
30
0
40
1
39
0
210
0
220
0
230
1
0
CIRCLE
5
265
100
AcDbEntity
8
0
62
256
6
ByLayer
100
AcDbCircle
10
168111.191
20
2546171.485
30
0
40
1
39
0
210
0
220
0
230
1
0
CIRCLE
5
266
100
AcDbEntity
8
0
62
256
6
ByLayer
100
AcDbCircle
10
168158.311
20
2546244.145
30
0
40
1
39
0
210
0
220
0
230
1
0
CIRCLE
5
267
100
AcDbEntity
8
0
62
256
6
ByLayer
100
AcDbCircle
10
168211.149
20
2546247.884
30
0
40
1
39
0
210
0
220
0
230
1
0
CIRCLE
5
268
100
AcDbEntity
8
0
62
256
6
ByLayer
100
AcDbCircle
10
168169.675
20
2546276.007
30
0
40
1
39
0
210
0
220
0
230
1
0
CIRCLE
5
269
100
AcDbEntity
8
0
62
256
6
ByLayer
100
AcDbCircle
10
168241.304
20
2546276.368
30
0
40
1
39
0
210
0
220
0
230
1
0
CIRCLE
5
26a
100
AcDbEntity
8
0
62
256
6
ByLayer
100
AcDbCircle
10
168188.419
20
2546332.322
30
0
40
1
39
0
210
0
220
0
230
1
0
CIRCLE
5
26b
100
AcDbEntity
8
0
62
256
6
ByLayer
100
AcDbCircle
10
168321.989
20
2546476.266
30
0
40
1
39
0
210
0
220
0
230
1
0
CIRCLE
5
26c
100
AcDbEntity
8
0
62
256
6
ByLayer
100
AcDbCircle
10
168386.942
20
2546560.514
30
0
40
1
39
0
210
0
220
0
230
1
0
CIRCLE
5
26d
100
AcDbEntity
8
0
62
256
6
ByLayer
100
AcDbCircle
10
168377.832
20
2546431.986
30
0
40
1
39
0
210
0
220
0
230
1
0
CIRCLE
5
26e
100
AcDbEntity
8
0
62
256
6
ByLayer
100
AcDbCircle
10
168458.417
20
2546385.999
30
0
40
1
39
0
210
0
220
0
230
1
0
CIRCLE
5
26f
100
AcDbEntity
8
0
62
256
6
ByLayer
100
AcDbCircle
10
168495.077
20
2546361.523
30
0
40
1
39
0
210
0
220
0
230
1
0
CIRCLE
5
270
100
AcDbEntity
8
0
62
256
6
ByLayer
100
AcDbCircle
10
168488.429
20
2546506.694
30
0
40
1
39
0
210
0
220
0
230
1
0
CIRCLE
5
271
100
AcDbEntity
8
0
62
256
6
ByLayer
100
AcDbCircle
10
168478.648
20
2546604.322
30
0
40
1
39
0
210
0
220
0
230
1
0
CIRCLE
5
272
100
AcDbEntity
8
0
62
256
6
ByLayer
100
AcDbCircle
10
168433.974
20
2546603.459
30
0
40
1
39
0
210
0
220
0
230
1
0
CIRCLE
5
273
100
AcDbEntity
8
0
62
256
6
ByLayer
100
AcDbCircle
10
168484.698
20
2546652.392
30
0
40
1
39
0
210
0
220
0
230
1
0
CIRCLE
5
274
100
AcDbEntity
8
0
62
256
6
ByLayer
100
AcDbCircle
10
168703.648
20
2546149.685
30
0
40
1
39
0
210
0
220
0
230
1
0
CIRCLE
5
275
100
AcDbEntity
8
0
62
256
6
ByLayer
100
AcDbCircle
10
168675.255
20
2546171.242
30
0
40
1
39
0
210
0
220
0
230
1
0
CIRCLE
5
276
100
AcDbEntity
8
0
62
256
6
ByLayer
100
AcDbCircle
10
168651.124
20
2546175.029
30
0
40
1
39
0
210
0
220
0
230
1
0
CIRCLE
5
277
100
AcDbEntity
8
0
62
256
6
ByLayer
100
AcDbCircle
10
168554.34
20
2546161.07
30
0
40
1
39
0
210
0
220
0
230
1
0
CIRCLE
5
278
100
AcDbEntity
8
0
62
256
6
ByLayer
100
AcDbCircle
10
168496.96
20
2546162.686
30
0
40
1
39
0
210
0
220
0
230
1
0
CIRCLE
5
279
100
AcDbEntity
8
0
62
256
6
ByLayer
100
AcDbCircle
10
168477.328
20
2546121.579
30
0
40
1
39
0
210
0
220
0
230
1
0
CIRCLE
5
27a
100
AcDbEntity
8
0
62
256
6
ByLayer
100
AcDbCircle
10
168401.457
20
2546204.576
30
0
40
1
39
0
210
0
220
0
230
1
0
CIRCLE
5
27b
100
AcDbEntity
8
0
62
256
6
ByLayer
100
AcDbCircle
10
168470.314
20
2546270.244
30
0
40
1
39
0
210
0
220
0
230
1
0
CIRCLE
5
27c
100
AcDbEntity
8
0
62
256
6
ByLayer
100
AcDbCircle
10
168506.402
20
2546351.491
30
0
40
1
39
0
210
0
220
0
230
1
0
LINE
5
73
100
AcDbEntity
8
0
62
4
6
ByLayer
100
AcDbLine
10
166473.488
20
2546757.916
30
0
11
167093.289
21
2546992.387
31
0
39
0
210
0
220
0
230
1
0
LINE
5
74
100
AcDbEntity
8
0
62
4
6
ByLayer
100
AcDbLine
10
167093.289
20
2546992.387
30
0
11
167147.42
21
2546901.568
31
0
39
0
210
0
220
0
230
1
0
LINE
5
75
100
AcDbEntity
8
0
62
4
6
ByLayer
100
AcDbLine
10
167147.42
20
2546901.568
30
0
11
167157.041
21
2546762.298
31
0
39
0
210
0
220
0
230
1
0
LINE
5
76
100
AcDbEntity
8
0
62
4
6
ByLayer
100
AcDbLine
10
167157.041
20
2546762.298
30
0
11
167206.098
21
2546665.294
31
0
39
0
210
0
220
0
230
1
0
LINE
5
77
100
AcDbEntity
8
0
62
4
6
ByLayer
100
AcDbLine
10
167206.098
20
2546665.294
30
0
11
167182.617
21
2546478.074
31
0
39
0
210
0
220
0
230
1
0
LINE
5
78
100
AcDbEntity
8
0
62
4
6
ByLayer
100
AcDbLine
10
167182.617
20
2546478.074
30
0
11
167270.581
21
2546488.56
31
0
39
0
210
0
220
0
230
1
0
LINE
5
79
100
AcDbEntity
8
0
62
4
6
ByLayer
100
AcDbLine
10
167270.581
20
2546488.56
30
0
11
167326.017
21
2546498.222
31
0
39
0
210
0
220
0
230
1
0
LINE
5
7a
100
AcDbEntity
8
0
62
4
6
ByLayer
100
AcDbLine
10
167326.017
20
2546498.222
30
0
11
167429.867
21
2546508.359
31
0
39
0
210
0
220
0
230
1
0
LINE
5
7b
100
AcDbEntity
8
0
62
4
6
ByLayer
100
AcDbLine
10
167429.867
20
2546508.359
30
0
11
167603.792
21
2546557.624
31
0
39
0
210
0
220
0
230
1
0
LINE
5
7c
100
AcDbEntity
8
0
62
4
6
ByLayer
100
AcDbLine
10
167603.792
20
2546557.624
30
0
11
167750.468
21
2546599.271
31
0
39
0
210
0
220
0
230
1
0
LINE
5
7d
100
AcDbEntity
8
0
62
4
6
ByLayer
100
AcDbLine
10
167750.468
20
2546599.271
30
0
11
167886.768
21
2546586.324
31
0
39
0
210
0
220
0
230
1
0
LINE
5
7e
100
AcDbEntity
8
0
62
4
6
ByLayer
100
AcDbLine
10
167886.768
20
2546586.324
30
0
11
167924.753
21
2546572.754
31
0
39
0
210
0
220
0
230
1
0
LINE
5
7f
100
AcDbEntity
8
0
62
4
6
ByLayer
100
AcDbLine
10
167924.753
20
2546572.754
30
0
11
168033.836
21
2546526.42
31
0
39
0
210
0
220
0
230
1
0
LINE
5
80
100
AcDbEntity
8
0
62
4
6
ByLayer
100
AcDbLine
10
168033.836
20
2546526.42
30
0
11
168072.727
21
2546488.785
31
0
39
0
210
0
220
0
230
1
0
LINE
5
81
100
AcDbEntity
8
0
62
4
6
ByLayer
100
AcDbLine
10
168072.727
20
2546488.785
30
0
11
168201.692
21
2546424.881
31
0
39
0
210
0
220
0
230
1
0
LINE
5
82
100
AcDbEntity
8
0
62
4
6
ByLayer
100
AcDbLine
10
168201.692
20
2546424.881
30
0
11
168182.491
21
2546377.146
31
0
39
0
210
0
220
0
230
1
0
LINE
5
83
100
AcDbEntity
8
0
62
4
6
ByLayer
100
AcDbLine
10
168182.491
20
2546377.146
30
0
11
168049.791
21
2546462.566
31
0
39
0
210
0
220
0
230
1
0
LINE
5
84
100
AcDbEntity
8
0
62
4
6
ByLayer
100
AcDbLine
10
168049.791
20
2546462.566
30
0
11
168028.765
21
2546397.762
31
0
39
0
210
0
220
0
230
1
0
LINE
5
85
100
AcDbEntity
8
0
62
4
6
ByLayer
100
AcDbLine
10
168028.765
20
2546397.762
30
0
11
168004.906
21
2546358.34
31
0
39
0
210
0
220
0
230
1
0
LINE
5
86
100
AcDbEntity
8
0
62
4
6
ByLayer
100
AcDbLine
10
168004.906
20
2546358.34
30
0
11
167995.303
21
2546307.927
31
0
39
0
210
0
220
0
230
1
0
LINE
5
87
100
AcDbEntity
8
0
62
4
6
ByLayer
100
AcDbLine
10
167182.617
20
2546478.074
30
0
11
167191.27
21
2546356.487
31
0
39
0
210
0
220
0
230
1
0
LINE
5
88
100
AcDbEntity
8
0
62
4
6
ByLayer
100
AcDbLine
10
167191.27
20
2546356.487
30
0
11
167197.954
21
2546244.361
31
0
39
0
210
0
220
0
230
1
0
LINE
5
89
100
AcDbEntity
8
0
62
4
6
ByLayer
100
AcDbLine
10
167197.954
20
2546244.361
30
0
11
167205.689
21
2546105.869
31
0
39
0
210
0
220
0
230
1
0
LINE
5
8a
100
AcDbEntity
8
0
62
4
6
ByLayer
100
AcDbLine
10
167205.689
20
2546105.869
30
0
11
167213.066
21
2545991.764
31
0
39
0
210
0
220
0
230
1
0
LINE
5
8b
100
AcDbEntity
8
0
62
4
6
ByLayer
100
AcDbLine
10
167213.066
20
2545991.764
30
0
11
167238.312
21
2545918.915
31
0
39
0
210
0
220
0
230
1
0
LINE
5
8c
100
AcDbEntity
8
0
62
4
6
ByLayer
100
AcDbLine
10
167238.312
20
2545918.915
30
0
11
167175.48
21
2545775.75
31
0
39
0
210
0
220
0
230
1
0
LINE
5
8d
100
AcDbEntity
8
0
62
4
6
ByLayer
100
AcDbLine
10
167175.48
20
2545775.75
30
0
11
167142.211
21
2545571.742
31
0
39
0
210
0
220
0
230
1
0
LINE
5
8e
100
AcDbEntity
8
0
62
4
6
ByLayer
100
AcDbLine
10
167142.211
20
2545571.742
30
0
11
167178.952
21
2545447.974
31
0
39
0
210
0
220
0
230
1
0
LINE
5
8f
100
AcDbEntity
8
0
62
4
6
ByLayer
100
AcDbLine
10
167178.952
20
2545447.974
30
0
11
167169.398
21
2545302.041
31
0
39
0
210
0
220
0
230
1
0
LINE
5
90
100
AcDbEntity
8
0
62
4
6
ByLayer
100
AcDbLine
10
167169.398
20
2545302.041
30
0
11
167171.941
21
2545177.727
31
0
39
0
210
0
220
0
230
1
0
LINE
5
91
100
AcDbEntity
8
0
62
4
6
ByLayer
100
AcDbLine
10
167171.941
20
2545177.727
30
0
11
167153.152
21
2545121.66
31
0
39
0
210
0
220
0
230
1
0
LINE
5
92
100
AcDbEntity
8
0
62
4
6
ByLayer
100
AcDbLine
10
167153.152
20
2545121.66
30
0
11
167265.894
21
2545179.279
31
0
39
0
210
0
220
0
230
1
0
LINE
5
93
100
AcDbEntity
8
0
62
4
6
ByLayer
100
AcDbLine
10
167265.894
20
2545179.279
30
0
11
167501.51
21
2545281.714
31
0
39
0
210
0
220
0
230
1
0
LINE
5
94
100
AcDbEntity
8
0
62
4
6
ByLayer
100
AcDbLine
10
167501.51
20
2545281.714
30
0
11
167443.261
21
2545309.703
31
0
39
0
210
0
220
0
230
1
0
LINE
5
95
100
AcDbEntity
8
0
62
4
6
ByLayer
100
AcDbLine
10
167443.261
20
2545309.703
30
0
11
167469.605
21
2545375.4
31
0
39
0
210
0
220
0
230
1
0
LINE
5
96
100
AcDbEntity
8
0
62
4
6
ByLayer
100
AcDbLine
10
167469.605
20
2545375.4
30
0
11
167562.886
21
2545488.369
31
0
39
0
210
0
220
0
230
1
0
LINE
5
97
100
AcDbEntity
8
0
62
4
6
ByLayer
100
AcDbLine
10
167562.886
20
2545488.369
30
0
11
167663.511
21
2545652.147
31
0
39
0
210
0
220
0
230
1
0
LINE
5
98
100
AcDbEntity
8
0
62
4
6
ByLayer
100
AcDbLine
10
167663.511
20
2545652.147
30
0
11
167757.725
21
2545770.052
31
0
39
0
210
0
220
0
230
1
0
LINE
5
99
100
AcDbEntity
8
0
62
4
6
ByLayer
100
AcDbLine
10
167757.725
20
2545770.052
30
0
11
167797.663
21
2545925.98
31
0
39
0
210
0
220
0
230
1
0
LINE
5
9a
100
AcDbEntity
8
0
62
4
6
ByLayer
100
AcDbLine
10
167797.663
20
2545925.98
30
0
11
167832.148
21
2546054.96
31
0
39
0
210
0
220
0
230
1
0
LINE
5
9b
100
AcDbEntity
8
0
62
4
6
ByLayer
100
AcDbLine
10
167832.148
20
2546054.96
30
0
11
167687.928
21
2546091.154
31
0
39
0
210
0
220
0
230
1
0
LINE
5
9c
100
AcDbEntity
8
0
62
4
6
ByLayer
100
AcDbLine
10
167687.928
20
2546091.154
30
0
11
167541.981
21
2546102.579
31
0
39
0
210
0
220
0
230
1
0
LINE
5
9d
100
AcDbEntity
8
0
62
4
6
ByLayer
100
AcDbLine
10
167541.981
20
2546102.579
30
0
11
167285.186
21
2546040.839
31
0
39
0
210
0
220
0
230
1
0
LINE
5
9e
100
AcDbEntity
8
0
62
4
6
ByLayer
100
AcDbLine
10
167285.186
20
2546040.839
30
0
11
167213.066
21
2545991.764
31
0
39
0
210
0
220
0
230
1
0
LINE
5
9f
100
AcDbEntity
8
0
62
4
6
ByLayer
100
AcDbLine
10
167995.303
20
2546307.927
30
0
11
167965.271
21
2546245.52
31
0
39
0
210
0
220
0
230
1
0
LINE
5
a0
100
AcDbEntity
8
0
62
4
6
ByLayer
100
AcDbLine
10
167965.271
20
2546245.52
30
0
11
167930.646
21
2546107.781
31
0
39
0
210
0
220
0
230
1
0
LINE
5
a1
100
AcDbEntity
8
0
62
4
6
ByLayer
100
AcDbLine
10
167839.663
20
2546246.644
30
0
11
167839.959
21
2546120.822
31
0
39
0
210
0
220
0
230
1
0
LINE
5
a2
100
AcDbEntity
8
0
62
4
6
ByLayer
100
AcDbLine
10
167839.959
20
2546120.822
30
0
11
167832.148
21
2546054.96
31
0
39
0
210
0
220
0
230
1
0
LINE
5
a3
100
AcDbEntity
8
0
62
4
6
ByLayer
100
AcDbLine
10
167839.663
20
2546246.644
30
0
11
167696.764
21
2546262.564
31
0
39
0
210
0
220
0
230
1
0
LINE
5
a4
100
AcDbEntity
8
0
62
4
6
ByLayer
100
AcDbLine
10
167696.764
20
2546262.564
30
0
11
167601.155
21
2546267.264
31
0
39
0
210
0
220
0
230
1
0
LINE
5
a5
100
AcDbEntity
8
0
62
4
6
ByLayer
100
AcDbLine
10
167601.155
20
2546267.264
30
0
11
167537.147
21
2546270.014
31
0
39
0
210
0
220
0
230
1
0
LINE
5
a6
100
AcDbEntity
8
0
62
4
6
ByLayer
100
AcDbLine
10
167537.147
20
2546270.014
30
0
11
167470.636
21
2546264.373
31
0
39
0
210
0
220
0
230
1
0
LINE
5
a7
100
AcDbEntity
8
0
62
4
6
ByLayer
100
AcDbLine
10
167470.636
20
2546264.373
30
0
11
167340.193
21
2546248.408
31
0
39
0
210
0
220
0
230
1
0
LINE
5
a8
100
AcDbEntity
8
0
62
4
6
ByLayer
100
AcDbLine
10
167340.193
20
2546248.408
30
0
11
167197.954
21
2546244.361
31
0
39
0
210
0
220
0
230
1
0
LINE
5
a9
100
AcDbEntity
8
0
62
4
6
ByLayer
100
AcDbLine
10
167501.51
20
2545281.714
30
0
11
167600.341
21
2545135.977
31
0
39
0
210
0
220
0
230
1
0
LINE
5
aa
100
AcDbEntity
8
0
62
4
6
ByLayer
100
AcDbLine
10
167600.341
20
2545135.977
30
0
11
167754.651
21
2545317.21
31
0
39
0
210
0
220
0
230
1
0
LINE
5
ab
100
AcDbEntity
8
0
62
4
6
ByLayer
100
AcDbLine
10
167754.651
20
2545317.21
30
0
11
168015.844
21
2545275.189
31
0
39
0
210
0
220
0
230
1
0
LINE
5
ac
100
AcDbEntity
8
0
62
4
6
ByLayer
100
AcDbLine
10
168015.844
20
2545275.189
30
0
11
168045.372
21
2545268.658
31
0
39
0
210
0
220
0
230
1
0
LINE
5
ad
100
AcDbEntity
8
0
62
4
6
ByLayer
100
AcDbLine
10
168045.372
20
2545268.658
30
0
11
168129.56
21
2545251.083
31
0
39
0
210
0
220
0
230
1
0
LINE
5
ae
100
AcDbEntity
8
0
62
4
6
ByLayer
100
AcDbLine
10
168129.56
20
2545251.083
30
0
11
168221.829
21
2545214.423
31
0
39
0
210
0
220
0
230
1
0
LINE
5
af
100
AcDbEntity
8
0
62
4
6
ByLayer
100
AcDbLine
10
168221.829
20
2545214.423
30
0
11
168279.629
21
2545201.459
31
0
39
0
210
0
220
0
230
1
0
LINE
5
b0
100
AcDbEntity
8
0
62
4
6
ByLayer
100
AcDbLine
10
168279.629
20
2545201.459
30
0
11
168362.604
21
2545183.599
31
0
39
0
210
0
220
0
230
1
0
LINE
5
b1
100
AcDbEntity
8
0
62
4
6
ByLayer
100
AcDbLine
10
168362.604
20
2545183.599
30
0
11
168444.089
21
2545165.607
31
0
39
0
210
0
220
0
230
1
0
LINE
5
b2
100
AcDbEntity
8
0
62
4
6
ByLayer
100
AcDbLine
10
168444.089
20
2545165.607
30
0
11
168564.116
21
2545135.17
31
0
39
0
210
0
220
0
230
1
0
LINE
5
b3
100
AcDbEntity
8
0
62
4
6
ByLayer
100
AcDbLine
10
168713.705
20
2545118.776
30
0
11
168564.116
21
2545135.17
31
0
39
0
210
0
220
0
230
1
0
LINE
5
b4
100
AcDbEntity
8
0
62
4
6
ByLayer
100
AcDbLine
10
168564.116
20
2545135.17
30
0
11
168630.727
21
2545357.314
31
0
39
0
210
0
220
0
230
1
0
LINE
5
b5
100
AcDbEntity
8
0
62
4
6
ByLayer
100
AcDbLine
10
168630.727
20
2545357.314
30
0
11
168659.063
21
2545431.344
31
0
39
0
210
0
220
0
230
1
0
LINE
5
b6
100
AcDbEntity
8
0
62
4
6
ByLayer
100
AcDbLine
10
168659.063
20
2545431.344
30
0
11
168685.516
21
2545473.327
31
0
39
0
210
0
220
0
230
1
0
LINE
5
b7
100
AcDbEntity
8
0
62
4
6
ByLayer
100
AcDbLine
10
168685.516
20
2545473.327
30
0
11
168700.095
21
2545502.492
31
0
39
0
210
0
220
0
230
1
0
LINE
5
b8
100
AcDbEntity
8
0
62
4
6
ByLayer
100
AcDbLine
10
168700.095
20
2545502.492
30
0
11
168702.529
21
2545537.797
31
0
39
0
210
0
220
0
230
1
0
LINE
5
b9
100
AcDbEntity
8
0
62
4
6
ByLayer
100
AcDbLine
10
168702.529
20
2545537.797
30
0
11
168736.752
21
2545582.712
31
0
39
0
210
0
220
0
230
1
0
LINE
5
ba
100
AcDbEntity
8
0
62
4
6
ByLayer
100
AcDbLine
10
168736.752
20
2545582.712
30
0
11
168762.349
21
2545650.652
31
0
39
0
210
0
220
0
230
1
0
LINE
5
bb
100
AcDbEntity
8
0
62
4
6
ByLayer
100
AcDbLine
10
168762.349
20
2545650.652
30
0
11
168781.24
21
2545720.638
31
0
39
0
210
0
220
0
230
1
0
LINE
5
bc
100
AcDbEntity
8
0
62
4
6
ByLayer
100
AcDbLine
10
168781.24
20
2545720.638
30
0
11
168837.245
21
2545884.794
31
0
39
0
210
0
220
0
230
1
0
LINE
5
bd
100
AcDbEntity
8
0
62
4
6
ByLayer
100
AcDbLine
10
168837.245
20
2545884.794
30
0
11
168887.041
21
2546051.639
31
0
39
0
210
0
220
0
230
1
0
LINE
5
be
100
AcDbEntity
8
0
62
4
6
ByLayer
100
AcDbLine
10
168887.041
20
2546051.639
30
0
11
168919.876
21
2546135.812
31
0
39
0
210
0
220
0
230
1
0
LINE
5
bf
100
AcDbEntity
8
0
62
4
6
ByLayer
100
AcDbLine
10
169039.884
20
2546111.728
30
0
11
168919.876
21
2546135.812
31
0
39
0
210
0
220
0
230
1
0
LINE
5
c0
100
AcDbEntity
8
0
62
4
6
ByLayer
100
AcDbLine
10
168919.876
20
2546135.812
30
0
11
168801.605
21
2546125.395
31
0
39
0
210
0
220
0
230
1
0
LINE
5
c1
100
AcDbEntity
8
0
62
4
6
ByLayer
100
AcDbLine
10
169039.884
20
2546111.728
30
0
11
169149.018
21
2546118.291
31
0
39
0
210
0
220
0
230
1
0
LINE
5
c2
100
AcDbEntity
8
0
62
4
6
ByLayer
100
AcDbLine
10
169149.018
20
2546118.291
30
0
11
169162.055
21
2546132.414
31
0
39
0
210
0
220
0
230
1
0
LINE
5
c3
100
AcDbEntity
8
0
62
4
6
ByLayer
100
AcDbLine
10
169162.055
20
2546132.414
30
0
11
169160.217
21
2546167.579
31
0
39
0
210
0
220
0
230
1
0
LINE
5
c4
100
AcDbEntity
8
0
62
4
6
ByLayer
100
AcDbLine
10
169160.217
20
2546167.579
30
0
11
169158.851
21
2546213.811
31
0
39
0
210
0
220
0
230
1
0
LINE
5
c5
100
AcDbEntity
8
0
62
4
6
ByLayer
100
AcDbLine
10
169158.851
20
2546213.811
30
0
11
169213.103
21
2546202.556
31
0
39
0
210
0
220
0
230
1
0
LINE
5
c6
100
AcDbEntity
8
0
62
4
6
ByLayer
100
AcDbLine
10
169213.103
20
2546202.556
30
0
11
169272.83
21
2546282.575
31
0
39
0
210
0
220
0
230
1
0
LINE
5
c7
100
AcDbEntity
8
0
62
4
6
ByLayer
100
AcDbLine
10
169272.83
20
2546282.575
30
0
11
169312.441
21
2546351.138
31
0
39
0
210
0
220
0
230
1
0
LINE
5
c8
100
AcDbEntity
8
0
62
4
6
ByLayer
100
AcDbLine
10
169312.441
20
2546351.138
30
0
11
169356.972
21
2546410.283
31
0
39
0
210
0
220
0
230
1
0
LINE
5
c9
100
AcDbEntity
8
0
62
4
6
ByLayer
100
AcDbLine
10
169356.972
20
2546410.283
30
0
11
169391.632
21
2546478.32
31
0
39
0
210
0
220
0
230
1
0
LINE
5
ca
100
AcDbEntity
8
0
62
4
6
ByLayer
100
AcDbLine
10
169391.632
20
2546478.32
30
0
11
169385.602
21
2546522.414
31
0
39
0
210
0
220
0
230
1
0
LINE
5
cb
100
AcDbEntity
8
0
62
4
6
ByLayer
100
AcDbLine
10
169385.602
20
2546522.414
30
0
11
169392.45
21
2546555.443
31
0
39
0
210
0
220
0
230
1
0
LINE
5
cc
100
AcDbEntity
8
0
62
4
6
ByLayer
100
AcDbLine
10
169392.45
20
2546555.443
30
0
11
169386.269
21
2546588.448
31
0
39
0
210
0
220
0
230
1
0
LINE
5
cd
100
AcDbEntity
8
0
62
4
6
ByLayer
100
AcDbLine
10
169386.269
20
2546588.448
30
0
11
169394.098
21
2546631.832
31
0
39
0
210
0
220
0
230
1
0
LINE
5
ce
100
AcDbEntity
8
0
62
4
6
ByLayer
100
AcDbLine
10
169394.098
20
2546631.832
30
0
11
169389.578
21
2546668.874
31
0
39
0
210
0
220
0
230
1
0
LINE
5
cf
100
AcDbEntity
8
0
62
4
6
ByLayer
100
AcDbLine
10
169389.578
20
2546668.874
30
0
11
169397.956
21
2546707.814
31
0
39
0
210
0
220
0
230
1
0
LINE
5
d0
100
AcDbEntity
8
0
62
4
6
ByLayer
100
AcDbLine
10
169397.956
20
2546707.814
30
0
11
169390.857
21
2546726.244
31
0
39
0
210
0
220
0
230
1
0
LINE
5
d1
100
AcDbEntity
8
0
62
4
6
ByLayer
100
AcDbLine
10
169390.857
20
2546726.244
30
0
11
169403.318
21
2546798.455
31
0
39
0
210
0
220
0
230
1
0
LINE
5
d2
100
AcDbEntity
8
0
62
4
6
ByLayer
100
AcDbLine
10
169403.318
20
2546798.455
30
0
11
169372.629
21
2546789.717
31
0
39
0
210
0
220
0
230
1
0
LINE
5
d3
100
AcDbEntity
8
0
62
4
6
ByLayer
100
AcDbLine
10
169390.857
20
2546726.244
30
0
11
169367.427
21
2546740.428
31
0
39
0
210
0
220
0
230
1
0
LINE
5
d4
100
AcDbEntity
8
0
62
4
6
ByLayer
100
AcDbLine
10
169367.427
20
2546740.428
30
0
11
169321.775
21
2546779.858
31
0
39
0
210
0
220
0
230
1
0
LINE
5
d5
100
AcDbEntity
8
0
62
4
6
ByLayer
100
AcDbLine
10
169321.775
20
2546779.858
30
0
11
169260.132
21
2546778.321
31
0
39
0
210
0
220
0
230
1
0
LINE
5
d6
100
AcDbEntity
8
0
62
4
6
ByLayer
100
AcDbLine
10
169260.132
20
2546778.321
30
0
11
169251.915
21
2546746.755
31
0
39
0
210
0
220
0
230
1
0
LINE
5
d7
100
AcDbEntity
8
0
62
4
6
ByLayer
100
AcDbLine
10
169251.915
20
2546746.755
30
0
11
169237.546
21
2546713.443
31
0
39
0
210
0
220
0
230
1
0
LINE
5
d8
100
AcDbEntity
8
0
62
4
6
ByLayer
100
AcDbLine
10
169237.546
20
2546713.443
30
0
11
169228.753
21
2546627.017
31
0
39
0
210
0
220
0
230
1
0
LINE
5
d9
100
AcDbEntity
8
0
62
4
6
ByLayer
100
AcDbLine
10
169228.753
20
2546627.017
30
0
11
169187.254
21
2546640.773
31
0
39
0
210
0
220
0
230
1
0
LINE
5
da
100
AcDbEntity
8
0
62
4
6
ByLayer
100
AcDbLine
10
169187.254
20
2546640.773
30
0
11
169095.83
21
2546679.2
31
0
39
0
210
0
220
0
230
1
0
LINE
5
db
100
AcDbEntity
8
0
62
4
6
ByLayer
100
AcDbLine
10
169095.83
20
2546679.2
30
0
11
169040.83
21
2546676.793
31
0
39
0
210
0
220
0
230
1
0
LINE
5
dc
100
AcDbEntity
8
0
62
4
6
ByLayer
100
AcDbLine
10
169040.83
20
2546676.793
30
0
11
168999.538
21
2546663.797
31
0
39
0
210
0
220
0
230
1
0
LINE
5
dd
100
AcDbEntity
8
0
62
4
6
ByLayer
100
AcDbLine
10
168999.538
20
2546663.797
30
0
11
168919.491
21
2546688.783
31
0
39
0
210
0
220
0
230
1
0
LINE
5
de
100
AcDbEntity
8
0
62
4
6
ByLayer
100
AcDbLine
10
168919.491
20
2546688.783
30
0
11
168864.837
21
2546695.3
31
0
39
0
210
0
220
0
230
1
0
LINE
5
df
100
AcDbEntity
8
0
62
4
6
ByLayer
100
AcDbLine
10
168864.837
20
2546695.3
30
0
11
168874.862
21
2546746.479
31
0
39
0
210
0
220
0
230
1
0
LINE
5
e0
100
AcDbEntity
8
0
62
4
6
ByLayer
100
AcDbLine
10
168874.862
20
2546746.479
30
0
11
168887.64
21
2546814.985
31
0
39
0
210
0
220
0
230
1
0
LINE
5
e1
100
AcDbEntity
8
0
62
4
6
ByLayer
100
AcDbLine
10
168887.64
20
2546814.985
30
0
11
168808.961
21
2546811.017
31
0
39
0
210
0
220
0
230
1
0
LINE
5
e2
100
AcDbEntity
8
0
62
4
6
ByLayer
100
AcDbLine
10
168808.961
20
2546811.017
30
0
11
168780.819
21
2546747.844
31
0
39
0
210
0
220
0
230
1
0
LINE
5
e3
100
AcDbEntity
8
0
62
4
6
ByLayer
100
AcDbLine
10
168780.819
20
2546747.844
30
0
11
168731.6
21
2546760.894
31
0
39
0
210
0
220
0
230
1
0
LINE
5
e4
100
AcDbEntity
8
0
62
4
6
ByLayer
100
AcDbLine
10
168731.6
20
2546760.894
30
0
11
168702.17
21
2546661.312
31
0
39
0
210
0
220
0
230
1
0
LINE
5
e5
100
AcDbEntity
8
0
62
4
6
ByLayer
100
AcDbLine
10
168702.17
20
2546661.312
30
0
11
168648.46
21
2546679.16
31
0
39
0
210
0
220
0
230
1
0
LINE
5
e6
100
AcDbEntity
8
0
62
4
6
ByLayer
100
AcDbLine
10
168648.46
20
2546679.16
30
0
11
168588.094
21
2546694.16
31
0
39
0
210
0
220
0
230
1
0
LINE
5
e7
100
AcDbEntity
8
0
62
4
6
ByLayer
100
AcDbLine
10
168588.094
20
2546694.16
30
0
11
168548.785
21
2546691.01
31
0
39
0
210
0
220
0
230
1
0
LINE
5
e8
100
AcDbEntity
8
0
62
4
6
ByLayer
100
AcDbLine
10
168548.785
20
2546691.01
30
0
11
168504.822
21
2546702.224
31
0
39
0
210
0
220
0
230
1
0
LINE
5
e9
100
AcDbEntity
8
0
62
4
6
ByLayer
100
AcDbLine
10
168504.822
20
2546702.224
30
0
11
168513.133
21
2546802.142
31
0
39
0
210
0
220
0
230
1
0
LINE
5
ea
100
AcDbEntity
8
0
62
4
6
ByLayer
100
AcDbLine
10
168513.133
20
2546802.142
30
0
11
168519.621
21
2546855.763
31
0
39
0
210
0
220
0
230
1
0
LINE
5
eb
100
AcDbEntity
8
0
62
4
6
ByLayer
100
AcDbLine
10
168343.736
20
2547052.237
30
0
11
168208.708
21
2547129.975
31
0
39
0
210
0
220
0
230
1
0
LINE
5
ec
100
AcDbEntity
8
0
62
4
6
ByLayer
100
AcDbLine
10
168208.708
20
2547129.975
30
0
11
168037.505
21
2547190.511
31
0
39
0
210
0
220
0
230
1
0
LINE
5
ed
100
AcDbEntity
8
0
62
4
6
ByLayer
100
AcDbLine
10
168210.623
20
2547184.319
30
0
11
168037.505
21
2547190.511
31
0
39
0
210
0
220
0
230
1
0
LINE
5
ee
100
AcDbEntity
8
0
62
4
6
ByLayer
100
AcDbLine
10
168037.505
20
2547190.511
30
0
11
167975.767
21
2547179.915
31
0
39
0
210
0
220
0
230
1
0
LINE
5
ef
100
AcDbEntity
8
0
62
4
6
ByLayer
100
AcDbLine
10
167975.767
20
2547179.915
30
0
11
167864.878
21
2547161.879
31
0
39
0
210
0
220
0
230
1
0
LINE
5
f0
100
AcDbEntity
8
0
62
4
6
ByLayer
100
AcDbLine
10
167864.878
20
2547161.879
30
0
11
167815.699
21
2547154.587
31
0
39
0
210
0
220
0
230
1
0
LINE
5
f1
100
AcDbEntity
8
0
62
4
6
ByLayer
100
AcDbLine
10
167815.699
20
2547154.587
30
0
11
167741.504
21
2547139.954
31
0
39
0
210
0
220
0
230
1
0
LINE
5
f2
100
AcDbEntity
8
0
62
4
6
ByLayer
100
AcDbLine
10
167741.504
20
2547139.954
30
0
11
167656.578
21
2547124.767
31
0
39
0
210
0
220
0
230
1
0
LINE
5
f3
100
AcDbEntity
8
0
62
4
6
ByLayer
100
AcDbLine
10
167656.578
20
2547124.767
30
0
11
167456.387
21
2547086.573
31
0
39
0
210
0
220
0
230
1
0
LINE
5
f4
100
AcDbEntity
8
0
62
4
6
ByLayer
100
AcDbLine
10
167456.387
20
2547086.573
30
0
11
167384.209
21
2547090.37
31
0
39
0
210
0
220
0
230
1
0
LINE
5
f5
100
AcDbEntity
8
0
62
4
6
ByLayer
100
AcDbLine
10
167384.209
20
2547090.37
30
0
11
167286.501
21
2547061.639
31
0
39
0
210
0
220
0
230
1
0
LINE
5
f6
100
AcDbEntity
8
0
62
4
6
ByLayer
100
AcDbLine
10
167286.501
20
2547061.639
30
0
11
167093.289
21
2546992.387
31
0
39
0
210
0
220
0
230
1
0
LINE
5
f7
100
AcDbEntity
8
0
62
4
6
ByLayer
100
AcDbLine
10
167147.42
20
2546901.568
30
0
11
167196.603
21
2546927.502
31
0
39
0
210
0
220
0
230
1
0
LINE
5
f8
100
AcDbEntity
8
0
62
4
6
ByLayer
100
AcDbLine
10
167196.603
20
2546927.502
30
0
11
167307.412
21
2546959.463
31
0
39
0
210
0
220
0
230
1
0
LINE
5
f9
100
AcDbEntity
8
0
62
4
6
ByLayer
100
AcDbLine
10
167307.412
20
2546959.463
30
0
11
167340.338
21
2546820.167
31
0
39
0
210
0
220
0
230
1
0
LINE
5
fa
100
AcDbEntity
8
0
62
4
6
ByLayer
100
AcDbLine
10
167340.338
20
2546820.167
30
0
11
167374.032
21
2546704.596
31
0
39
0
210
0
220
0
230
1
0
LINE
5
fb
100
AcDbEntity
8
0
62
4
6
ByLayer
100
AcDbLine
10
167206.098
20
2546665.294
30
0
11
167306.284
21
2546686.907
31
0
39
0
210
0
220
0
230
1
0
LINE
5
fc
100
AcDbEntity
8
0
62
4
6
ByLayer
100
AcDbLine
10
167306.284
20
2546686.907
30
0
11
167318.129
21
2546571.811
31
0
39
0
210
0
220
0
230
1
0
LINE
5
fd
100
AcDbEntity
8
0
62
4
6
ByLayer
100
AcDbLine
10
167306.284
20
2546686.907
30
0
11
167374.032
21
2546704.596
31
0
39
0
210
0
220
0
230
1
0
LINE
5
fe
100
AcDbEntity
8
0
62
4
6
ByLayer
100
AcDbLine
10
167374.032
20
2546704.596
30
0
11
167429.867
21
2546508.359
31
0
39
0
210
0
220
0
230
1
0
LINE
5
ff
100
AcDbEntity
8
0
62
4
6
ByLayer
100
AcDbLine
10
167429.867
20
2546508.359
30
0
11
167483.704
21
2546381.265
31
0
39
0
210
0
220
0
230
1
0
LINE
5
100
100
AcDbEntity
8
0
62
4
6
ByLayer
100
AcDbLine
10
167483.704
20
2546381.265
30
0
11
167537.147
21
2546270.014
31
0
39
0
210
0
220
0
230
1
0
LINE
5
101
100
AcDbEntity
8
0
62
4
6
ByLayer
100
AcDbLine
10
167307.412
20
2546959.463
30
0
11
167396.287
21
2546988.168
31
0
39
0
210
0
220
0
230
1
0
LINE
5
102
100
AcDbEntity
8
0
62
4
6
ByLayer
100
AcDbLine
10
167396.287
20
2546988.168
30
0
11
167474.106
21
2547008.94
31
0
39
0
210
0
220
0
230
1
0
LINE
5
103
100
AcDbEntity
8
0
62
4
6
ByLayer
100
AcDbLine
10
167474.106
20
2547008.94
30
0
11
167669.512
21
2547065.003
31
0
39
0
210
0
220
0
230
1
0
LINE
5
104
100
AcDbEntity
8
0
62
4
6
ByLayer
100
AcDbLine
10
167669.512
20
2547065.003
30
0
11
167656.578
21
2547124.767
31
0
39
0
210
0
220
0
230
1
0
LINE
5
105
100
AcDbEntity
8
0
62
4
6
ByLayer
100
AcDbLine
10
167340.338
20
2546820.167
30
0
11
167436.423
21
2546848.312
31
0
39
0
210
0
220
0
230
1
0
LINE
5
106
100
AcDbEntity
8
0
62
4
6
ByLayer
100
AcDbLine
10
167436.423
20
2546848.312
30
0
11
167513.552
21
2546870.934
31
0
39
0
210
0
220
0
230
1
0
LINE
5
107
100
AcDbEntity
8
0
62
4
6
ByLayer
100
AcDbLine
10
167513.552
20
2546870.934
30
0
11
167493.959
21
2546938.05
31
0
39
0
210
0
220
0
230
1
0
LINE
5
108
100
AcDbEntity
8
0
62
4
6
ByLayer
100
AcDbLine
10
167493.959
20
2546938.05
30
0
11
167683.252
21
2546999.952
31
0
39
0
210
0
220
0
230
1
0
LINE
5
109
100
AcDbEntity
8
0
62
4
6
ByLayer
100
AcDbLine
10
167683.252
20
2546999.952
30
0
11
167765.252
21
2547017.683
31
0
39
0
210
0
220
0
230
1
0
LINE
5
10a
100
AcDbEntity
8
0
62
4
6
ByLayer
100
AcDbLine
10
167765.252
20
2547017.683
30
0
11
167741.504
21
2547139.954
31
0
39
0
210
0
220
0
230
1
0
LINE
5
10b
100
AcDbEntity
8
0
62
4
6
ByLayer
100
AcDbLine
10
167513.552
20
2546870.934
30
0
11
167664.127
21
2546915.299
31
0
39
0
210
0
220
0
230
1
0
LINE
5
10c
100
AcDbEntity
8
0
62
4
6
ByLayer
100
AcDbLine
10
167664.127
20
2546915.299
30
0
11
167810.515
21
2546964.65
31
0
39
0
210
0
220
0
230
1
0
LINE
5
10d
100
AcDbEntity
8
0
62
4
6
ByLayer
100
AcDbLine
10
167810.515
20
2546964.65
30
0
11
167906.143
21
2546974.121
31
0
39
0
210
0
220
0
230
1
0
LINE
5
10e
100
AcDbEntity
8
0
62
4
6
ByLayer
100
AcDbLine
10
167906.143
20
2546974.121
30
0
11
167987.673
21
2547098.688
31
0
39
0
210
0
220
0
230
1
0
LINE
5
10f
100
AcDbEntity
8
0
62
4
6
ByLayer
100
AcDbLine
10
167687.928
20
2546091.154
30
0
11
167683.359
21
2545971.885
31
0
39
0
210
0
220
0
230
1
0
LINE
5
110
100
AcDbEntity
8
0
62
4
6
ByLayer
100
AcDbLine
10
167683.359
20
2545971.885
30
0
11
167535.136
21
2545899.479
31
0
39
0
210
0
220
0
230
1
0
LINE
5
111
100
AcDbEntity
8
0
62
4
6
ByLayer
100
AcDbLine
10
167535.136
20
2545899.479
30
0
11
167461.739
21
2545899.342
31
0
39
0
210
0
220
0
230
1
0
LINE
5
112
100
AcDbEntity
8
0
62
4
6
ByLayer
100
AcDbLine
10
167461.739
20
2545899.342
30
0
11
167464.668
21
2545655.839
31
0
39
0
210
0
220
0
230
1
0
LINE
5
113
100
AcDbEntity
8
0
62
4
6
ByLayer
100
AcDbLine
10
167461.739
20
2545899.342
30
0
11
167393.354
21
2545903.877
31
0
39
0
210
0
220
0
230
1
0
LINE
5
114
100
AcDbEntity
8
0
62
4
6
ByLayer
100
AcDbLine
10
167393.354
20
2545903.877
30
0
11
167323.715
21
2545894.136
31
0
39
0
210
0
220
0
230
1
0
LINE
5
115
100
AcDbEntity
8
0
62
4
6
ByLayer
100
AcDbLine
10
167483.704
20
2546381.265
30
0
11
167651.698
21
2546380.244
31
0
39
0
210
0
220
0
230
1
0
LINE
5
116
100
AcDbEntity
8
0
62
4
6
ByLayer
100
AcDbLine
10
167651.698
20
2546380.244
30
0
11
167636.605
21
2546442.316
31
0
39
0
210
0
220
0
230
1
0
LINE
5
117
100
AcDbEntity
8
0
62
4
6
ByLayer
100
AcDbLine
10
167750.468
20
2546599.271
30
0
11
167712.809
21
2546733.174
31
0
39
0
210
0
220
0
230
1
0
LINE
5
118
100
AcDbEntity
8
0
62
4
6
ByLayer
100
AcDbLine
10
167712.809
20
2546733.174
30
0
11
167770.386
21
2546746.582
31
0
39
0
210
0
220
0
230
1
0
LINE
5
119
100
AcDbEntity
8
0
62
4
6
ByLayer
100
AcDbLine
10
167712.809
20
2546733.174
30
0
11
167697.103
21
2546796.155
31
0
39
0
210
0
220
0
230
1
0
LINE
5
11a
100
AcDbEntity
8
0
62
4
6
ByLayer
100
AcDbLine
10
167697.103
20
2546796.155
30
0
11
167664.127
21
2546915.299
31
0
39
0
210
0
220
0
230
1
0
LINE
5
11b
100
AcDbEntity
8
0
62
4
6
ByLayer
100
AcDbLine
10
167890.689
20
2546514.096
30
0
11
167924.753
21
2546572.754
31
0
39
0
210
0
220
0
230
1
0
LINE
5
11c
100
AcDbEntity
8
0
62
4
6
ByLayer
100
AcDbLine
10
167924.753
20
2546572.754
30
0
11
167912.82
21
2546647.396
31
0
39
0
210
0
220
0
230
1
0
LINE
5
11d
100
AcDbEntity
8
0
62
4
6
ByLayer
100
AcDbLine
10
167924.753
20
2546572.754
30
0
11
167954.838
21
2546658.907
31
0
39
0
210
0
220
0
230
1
0
LINE
5
11e
100
AcDbEntity
8
0
62
4
6
ByLayer
100
AcDbLine
10
167954.838
20
2546658.907
30
0
11
167982.779
21
2546727.192
31
0
39
0
210
0
220
0
230
1
0
LINE
5
11f
100
AcDbEntity
8
0
62
4
6
ByLayer
100
AcDbLine
10
167982.779
20
2546727.192
30
0
11
168032.678
21
2546813.93
31
0
39
0
210
0
220
0
230
1
0
LINE
5
120
100
AcDbEntity
8
0
62
4
6
ByLayer
100
AcDbLine
10
168032.678
20
2546813.93
30
0
11
167923.01
21
2546873.299
31
0
39
0
210
0
220
0
230
1
0
LINE
5
121
100
AcDbEntity
8
0
62
4
6
ByLayer
100
AcDbLine
10
168032.678
20
2546813.93
30
0
11
168077.357
21
2546885.439
31
0
39
0
210
0
220
0
230
1
0
LINE
5
122
100
AcDbEntity
8
0
62
4
6
ByLayer
100
AcDbLine
10
168077.357
20
2546885.439
30
0
11
168114.543
21
2546960.82
31
0
39
0
210
0
220
0
230
1
0
LINE
5
123
100
AcDbEntity
8
0
62
4
6
ByLayer
100
AcDbLine
10
168114.543
20
2546960.82
30
0
11
168174.524
21
2547068.294
31
0
39
0
210
0
220
0
230
1
0
LINE
5
124
100
AcDbEntity
8
0
62
4
6
ByLayer
100
AcDbLine
10
168174.524
20
2547068.294
30
0
11
168220.709
21
2547042.057
31
0
39
0
210
0
220
0
230
1
0
LINE
5
125
100
AcDbEntity
8
0
62
4
6
ByLayer
100
AcDbLine
10
167839.663
20
2546246.644
30
0
11
167965.271
21
2546245.52
31
0
39
0
210
0
220
0
230
1
0
LINE
5
126
100
AcDbEntity
8
0
62
4
6
ByLayer
100
AcDbLine
10
167965.271
20
2546245.52
30
0
11
168096.814
21
2546216.956
31
0
39
0
210
0
220
0
230
1
0
LINE
5
127
100
AcDbEntity
8
0
62
4
6
ByLayer
100
AcDbLine
10
168072.727
20
2546488.785
30
0
11
168104.084
21
2546568.83
31
0
39
0
210
0
220
0
230
1
0
LINE
5
128
100
AcDbEntity
8
0
62
4
6
ByLayer
100
AcDbLine
10
168104.084
20
2546568.83
30
0
11
168188.341
21
2546676.216
31
0
39
0
210
0
220
0
230
1
0
LINE
5
129
100
AcDbEntity
8
0
62
4
6
ByLayer
100
AcDbLine
10
168104.084
20
2546568.83
30
0
11
168129.804
21
2546598.764
31
0
39
0
210
0
220
0
230
1
0
LINE
5
12a
100
AcDbEntity
8
0
62
4
6
ByLayer
100
AcDbLine
10
168129.804
20
2546598.764
30
0
11
168284.837
21
2546516.501
31
0
39
0
210
0
220
0
230
1
0
LINE
5
12b
100
AcDbEntity
8
0
62
4
6
ByLayer
100
AcDbLine
10
168188.341
20
2546676.216
30
0
11
168233.512
21
2546732.539
31
0
39
0
210
0
220
0
230
1
0
LINE
5
12c
100
AcDbEntity
8
0
62
4
6
ByLayer
100
AcDbLine
10
168233.512
20
2546732.539
30
0
11
168320.812
21
2546662.901
31
0
39
0
210
0
220
0
230
1
0
LINE
5
12d
100
AcDbEntity
8
0
62
4
6
ByLayer
100
AcDbLine
10
168233.512
20
2546732.539
30
0
11
168271.003
21
2546780.819
31
0
39
0
210
0
220
0
230
1
0
LINE
5
12e
100
AcDbEntity
8
0
62
4
6
ByLayer
100
AcDbLine
10
168271.003
20
2546780.819
30
0
11
168308.232
21
2546821.521
31
0
39
0
210
0
220
0
230
1
0
LINE
5
12f
100
AcDbEntity
8
0
62
4
6
ByLayer
100
AcDbLine
10
168271.003
20
2546780.819
30
0
11
168408.881
21
2546954.69
31
0
39
0
210
0
220
0
230
1
0
LINE
5
130
100
AcDbEntity
8
0
62
4
6
ByLayer
100
AcDbLine
10
168271.003
20
2546780.819
30
0
11
168358.29
21
2546890.063
31
0
39
0
210
0
220
0
230
1
0
LINE
5
131
100
AcDbEntity
8
0
62
4
6
ByLayer
100
AcDbLine
10
168358.29
20
2546890.063
30
0
11
168394.432
21
2546871.75
31
0
39
0
210
0
220
0
230
1
0
LINE
5
132
100
AcDbEntity
8
0
62
4
6
ByLayer
100
AcDbLine
10
168358.29
20
2546890.063
30
0
11
168233.178
21
2546957.33
31
0
39
0
210
0
220
0
230
1
0
LINE
5
133
100
AcDbEntity
8
0
62
4
6
ByLayer
100
AcDbLine
10
168233.178
20
2546957.33
30
0
11
168270.782
21
2547018.781
31
0
39
0
210
0
220
0
230
1
0
LINE
5
134
100
AcDbEntity
8
0
62
4
6
ByLayer
100
AcDbLine
10
167757.725
20
2545770.052
30
0
11
167952.178
21
2545708.008
31
0
39
0
210
0
220
0
230
1
0
LINE
5
135
100
AcDbEntity
8
0
62
4
6
ByLayer
100
AcDbLine
10
167952.178
20
2545708.008
30
0
11
168058.758
21
2545653.479
31
0
39
0
210
0
220
0
230
1
0
LINE
5
136
100
AcDbEntity
8
0
62
4
6
ByLayer
100
AcDbLine
10
167952.178
20
2545708.008
30
0
11
168002.839
21
2545863.235
31
0
39
0
210
0
220
0
230
1
0
LINE
5
137
100
AcDbEntity
8
0
62
4
6
ByLayer
100
AcDbLine
10
168002.839
20
2545863.235
30
0
11
168023.2
21
2545769.833
31
0
39
0
210
0
220
0
230
1
0
LINE
5
138
100
AcDbEntity
8
0
62
4
6
ByLayer
100
AcDbLine
10
168002.839
20
2545863.235
30
0
11
167897.764
21
2545888.078
31
0
39
0
210
0
220
0
230
1
0
LINE
5
139
100
AcDbEntity
8
0
62
4
6
ByLayer
100
AcDbLine
10
167897.764
20
2545888.078
30
0
11
167928.79
21
2545963.799
31
0
39
0
210
0
220
0
230
1
0
LINE
5
13a
100
AcDbEntity
8
0
62
4
6
ByLayer
100
AcDbLine
10
167897.764
20
2545888.078
30
0
11
167954.24
21
2546034.007
31
0
39
0
210
0
220
0
230
1
0
LINE
5
13b
100
AcDbEntity
8
0
62
4
6
ByLayer
100
AcDbLine
10
167954.24
20
2546034.007
30
0
11
167930.646
21
2546107.781
31
0
39
0
210
0
220
0
230
1
0
LINE
5
13c
100
AcDbEntity
8
0
62
4
6
ByLayer
100
AcDbLine
10
167535.136
20
2545899.479
30
0
11
167533.594
21
2545783.853
31
0
39
0
210
0
220
0
230
1
0
LINE
5
13d
100
AcDbEntity
8
0
62
4
6
ByLayer
100
AcDbLine
10
167533.594
20
2545783.853
30
0
11
167529.723
21
2545737.51
31
0
39
0
210
0
220
0
230
1
0
LINE
5
13e
100
AcDbEntity
8
0
62
4
6
ByLayer
100
AcDbLine
10
167529.723
20
2545737.51
30
0
11
167620.237
21
2545670.525
31
0
39
0
210
0
220
0
230
1
0
LINE
5
13f
100
AcDbEntity
8
0
62
4
6
ByLayer
100
AcDbLine
10
167620.237
20
2545670.525
30
0
11
167663.511
21
2545652.147
31
0
39
0
210
0
220
0
230
1
0
LINE
5
140
100
AcDbEntity
8
0
62
4
6
ByLayer
100
AcDbLine
10
167464.668
20
2545655.839
30
0
11
167444.442
21
2545627.199
31
0
39
0
210
0
220
0
230
1
0
LINE
5
141
100
AcDbEntity
8
0
62
4
6
ByLayer
100
AcDbLine
10
167444.442
20
2545627.199
30
0
11
167494.143
21
2545592.521
31
0
39
0
210
0
220
0
230
1
0
LINE
5
142
100
AcDbEntity
8
0
62
4
6
ByLayer
100
AcDbLine
10
167494.143
20
2545592.521
30
0
11
167387.075
21
2545435.634
31
0
39
0
210
0
220
0
230
1
0
LINE
5
143
100
AcDbEntity
8
0
62
4
6
ByLayer
100
AcDbLine
10
167387.075
20
2545435.634
30
0
11
167424.019
21
2545403.135
31
0
39
0
210
0
220
0
230
1
0
LINE
5
144
100
AcDbEntity
8
0
62
4
6
ByLayer
100
AcDbLine
10
167444.442
20
2545627.199
30
0
11
167305.757
21
2545436.072
31
0
39
0
210
0
220
0
230
1
0
LINE
5
145
100
AcDbEntity
8
0
62
4
6
ByLayer
100
AcDbLine
10
167305.757
20
2545436.072
30
0
11
167419.633
21
2545583.586
31
0
39
0
210
0
220
0
230
1
0
LINE
5
146
100
AcDbEntity
8
0
62
4
6
ByLayer
100
AcDbLine
10
167305.757
20
2545436.072
30
0
11
167245.609
21
2545454.672
31
0
39
0
210
0
220
0
230
1
0
LINE
5
147
100
AcDbEntity
8
0
62
4
6
ByLayer
100
AcDbLine
10
167245.609
20
2545454.672
30
0
11
167178.952
21
2545447.974
31
0
39
0
210
0
220
0
230
1
0
LINE
5
148
100
AcDbEntity
8
0
62
4
6
ByLayer
100
AcDbLine
10
167305.757
20
2545436.072
30
0
11
167361.891
21
2545378.053
31
0
39
0
210
0
220
0
230
1
0
LINE
5
149
100
AcDbEntity
8
0
62
4
6
ByLayer
100
AcDbLine
10
167361.891
20
2545378.053
30
0
11
167226.58
21
2545327.088
31
0
39
0
210
0
220
0
230
1
0
LINE
5
14a
100
AcDbEntity
8
0
62
4
6
ByLayer
100
AcDbLine
10
167323.715
20
2545894.136
30
0
11
167328.094
21
2545709.952
31
0
39
0
210
0
220
0
230
1
0
LINE
5
14b
100
AcDbEntity
8
0
62
4
6
ByLayer
100
AcDbLine
10
167328.094
20
2545709.952
30
0
11
167241.791
21
2545709.443
31
0
39
0
210
0
220
0
230
1
0
LINE
5
14c
100
AcDbEntity
8
0
62
4
6
ByLayer
100
AcDbLine
10
167241.791
20
2545709.443
30
0
11
167241.747
21
2545641.704
31
0
39
0
210
0
220
0
230
1
0
LINE
5
14d
100
AcDbEntity
8
0
62
4
6
ByLayer
100
AcDbLine
10
167241.747
20
2545641.704
30
0
11
167393.045
21
2545644.834
31
0
39
0
210
0
220
0
230
1
0
LINE
5
14e
100
AcDbEntity
8
0
62
4
6
ByLayer
100
AcDbLine
10
167241.747
20
2545641.704
30
0
11
167239.868
21
2545570.094
31
0
39
0
210
0
220
0
230
1
0
LINE
5
14f
100
AcDbEntity
8
0
62
4
6
ByLayer
100
AcDbLine
10
167239.868
20
2545570.094
30
0
11
167142.211
21
2545571.742
31
0
39
0
210
0
220
0
230
1
0
LINE
5
150
100
AcDbEntity
8
0
62
4
6
ByLayer
100
AcDbLine
10
167562.886
20
2545488.369
30
0
11
167582.492
21
2545534.947
31
0
39
0
210
0
220
0
230
1
0
LINE
5
151
100
AcDbEntity
8
0
62
4
6
ByLayer
100
AcDbLine
10
167582.492
20
2545534.947
30
0
11
167629.138
21
2545497.719
31
0
39
0
210
0
220
0
230
1
0
LINE
5
152
100
AcDbEntity
8
0
62
4
6
ByLayer
100
AcDbLine
10
167582.492
20
2545534.947
30
0
11
167692.224
21
2545455.419
31
0
39
0
210
0
220
0
230
1
0
LINE
5
153
100
AcDbEntity
8
0
62
4
6
ByLayer
100
AcDbLine
10
167692.224
20
2545455.419
30
0
11
167776.104
21
2545418.229
31
0
39
0
210
0
220
0
230
1
0
LINE
5
154
100
AcDbEntity
8
0
62
4
6
ByLayer
100
AcDbLine
10
167776.104
20
2545418.229
30
0
11
167862.951
21
2545543
31
0
39
0
210
0
220
0
230
1
0
LINE
5
155
100
AcDbEntity
8
0
62
4
6
ByLayer
100
AcDbLine
10
167862.951
20
2545543
30
0
11
167814.533
21
2545498.533
31
0
39
0
210
0
220
0
230
1
0
LINE
5
156
100
AcDbEntity
8
0
62
4
6
ByLayer
100
AcDbLine
10
167862.951
20
2545543
30
0
11
167893.598
21
2545651.542
31
0
39
0
210
0
220
0
230
1
0
LINE
5
157
100
AcDbEntity
8
0
62
4
6
ByLayer
100
AcDbLine
10
167893.598
20
2545651.542
30
0
11
167952.178
21
2545708.008
31
0
39
0
210
0
220
0
230
1
0
LINE
5
158
100
AcDbEntity
8
0
62
4
6
ByLayer
100
AcDbLine
10
167663.511
20
2545652.147
30
0
11
167745.938
21
2545591.954
31
0
39
0
210
0
220
0
230
1
0
LINE
5
159
100
AcDbEntity
8
0
62
4
6
ByLayer
100
AcDbLine
10
167745.938
20
2545591.954
30
0
11
167694.581
21
2545513.604
31
0
39
0
210
0
220
0
230
1
0
LINE
5
15a
100
AcDbEntity
8
0
62
4
6
ByLayer
100
AcDbLine
10
167776.104
20
2545418.229
30
0
11
167803.219
21
2545386.443
31
0
39
0
210
0
220
0
230
1
0
LINE
5
15b
100
AcDbEntity
8
0
62
4
6
ByLayer
100
AcDbLine
10
167803.219
20
2545386.443
30
0
11
167902.84
21
2545441.296
31
0
39
0
210
0
220
0
230
1
0
LINE
5
15c
100
AcDbEntity
8
0
62
4
6
ByLayer
100
AcDbLine
10
168271.003
20
2546780.819
30
0
11
168343.251
21
2546756.592
31
0
39
0
210
0
220
0
230
1
0
LINE
5
15d
100
AcDbEntity
8
0
62
4
6
ByLayer
100
AcDbLine
10
168343.251
20
2546756.592
30
0
11
168403.879
21
2546702.006
31
0
39
0
210
0
220
0
230
1
0
LINE
5
15e
100
AcDbEntity
8
0
62
4
6
ByLayer
100
AcDbLine
10
168403.879
20
2546702.006
30
0
11
168385.452
21
2546643.075
31
0
39
0
210
0
220
0
230
1
0
LINE
5
15f
100
AcDbEntity
8
0
62
4
6
ByLayer
100
AcDbLine
10
168385.452
20
2546643.075
30
0
11
168418.74
21
2546621.117
31
0
39
0
210
0
220
0
230
1
0
LINE
5
160
100
AcDbEntity
8
0
62
4
6
ByLayer
100
AcDbLine
10
168403.879
20
2546702.006
30
0
11
168336.974
21
2546583.202
31
0
39
0
210
0
220
0
230
1
0
LINE
5
161
100
AcDbEntity
8
0
62
4
6
ByLayer
100
AcDbLine
10
168336.974
20
2546583.202
30
0
11
168366.071
21
2546573.498
31
0
39
0
210
0
220
0
230
1
0
LINE
5
162
100
AcDbEntity
8
0
62
4
6
ByLayer
100
AcDbLine
10
167954.24
20
2546034.007
30
0
11
168044.507
21
2545989.618
31
0
39
0
210
0
220
0
230
1
0
LINE
5
163
100
AcDbEntity
8
0
62
4
6
ByLayer
100
AcDbLine
10
168044.507
20
2545989.618
30
0
11
168049.825
21
2545924.07
31
0
39
0
210
0
220
0
230
1
0
LINE
5
164
100
AcDbEntity
8
0
62
4
6
ByLayer
100
AcDbLine
10
168044.507
20
2545989.618
30
0
11
168108.323
21
2546090.449
31
0
39
0
210
0
220
0
230
1
0
LINE
5
165
100
AcDbEntity
8
0
62
4
6
ByLayer
100
AcDbLine
10
168108.323
20
2546090.449
30
0
11
168111.191
21
2546171.485
31
0
39
0
210
0
220
0
230
1
0
LINE
5
166
100
AcDbEntity
8
0
62
4
6
ByLayer
100
AcDbLine
10
168111.191
20
2546171.485
30
0
11
168158.311
21
2546244.145
31
0
39
0
210
0
220
0
230
1
0
LINE
5
167
100
AcDbEntity
8
0
62
4
6
ByLayer
100
AcDbLine
10
168158.311
20
2546244.145
30
0
11
168211.149
21
2546247.884
31
0
39
0
210
0
220
0
230
1
0
LINE
5
168
100
AcDbEntity
8
0
62
4
6
ByLayer
100
AcDbLine
10
168111.191
20
2546171.485
30
0
11
168169.675
21
2546276.007
31
0
39
0
210
0
220
0
230
1
0
LINE
5
169
100
AcDbEntity
8
0
62
4
6
ByLayer
100
AcDbLine
10
168169.675
20
2546276.007
30
0
11
168241.304
21
2546276.368
31
0
39
0
210
0
220
0
230
1
0
LINE
5
16a
100
AcDbEntity
8
0
62
4
6
ByLayer
100
AcDbLine
10
168169.675
20
2546276.007
30
0
11
168182.491
21
2546377.146
31
0
39
0
210
0
220
0
230
1
0
LINE
5
16b
100
AcDbEntity
8
0
62
4
6
ByLayer
100
AcDbLine
10
168182.491
20
2546377.146
30
0
11
168188.419
21
2546332.322
31
0
39
0
210
0
220
0
230
1
0
LINE
5
16c
100
AcDbEntity
8
0
62
4
6
ByLayer
100
AcDbLine
10
168284.837
20
2546516.501
30
0
11
168321.989
21
2546476.266
31
0
39
0
210
0
220
0
230
1
0
LINE
5
16d
100
AcDbEntity
8
0
62
4
6
ByLayer
100
AcDbLine
10
168321.989
20
2546476.266
30
0
11
168386.942
21
2546560.514
31
0
39
0
210
0
220
0
230
1
0
LINE
5
16e
100
AcDbEntity
8
0
62
4
6
ByLayer
100
AcDbLine
10
168321.989
20
2546476.266
30
0
11
168377.832
21
2546431.986
31
0
39
0
210
0
220
0
230
1
0
LINE
5
16f
100
AcDbEntity
8
0
62
4
6
ByLayer
100
AcDbLine
10
168377.832
20
2546431.986
30
0
11
168458.417
21
2546385.999
31
0
39
0
210
0
220
0
230
1
0
LINE
5
170
100
AcDbEntity
8
0
62
4
6
ByLayer
100
AcDbLine
10
168377.832
20
2546431.986
30
0
11
168495.077
21
2546361.523
31
0
39
0
210
0
220
0
230
1
0
LINE
5
171
100
AcDbEntity
8
0
62
4
6
ByLayer
100
AcDbLine
10
168495.077
20
2546361.523
30
0
11
168488.429
21
2546506.694
31
0
39
0
210
0
220
0
230
1
0
LINE
5
172
100
AcDbEntity
8
0
62
4
6
ByLayer
100
AcDbLine
10
168488.429
20
2546506.694
30
0
11
168478.648
21
2546604.322
31
0
39
0
210
0
220
0
230
1
0
LINE
5
173
100
AcDbEntity
8
0
62
4
6
ByLayer
100
AcDbLine
10
168478.648
20
2546604.322
30
0
11
168433.974
21
2546603.459
31
0
39
0
210
0
220
0
230
1
0
LINE
5
174
100
AcDbEntity
8
0
62
4
6
ByLayer
100
AcDbLine
10
168478.648
20
2546604.322
30
0
11
168484.698
21
2546652.392
31
0
39
0
210
0
220
0
230
1
0
LINE
5
175
100
AcDbEntity
8
0
62
4
6
ByLayer
100
AcDbLine
10
168484.698
20
2546652.392
30
0
11
168504.822
21
2546702.224
31
0
39
0
210
0
220
0
230
1
0
LINE
5
176
100
AcDbEntity
8
0
62
4
6
ByLayer
100
AcDbLine
10
168801.605
20
2546125.395
30
0
11
168703.648
21
2546149.685
31
0
39
0
210
0
220
0
230
1
0
LINE
5
177
100
AcDbEntity
8
0
62
4
6
ByLayer
100
AcDbLine
10
168703.648
20
2546149.685
30
0
11
168675.255
21
2546171.242
31
0
39
0
210
0
220
0
230
1
0
LINE
5
178
100
AcDbEntity
8
0
62
4
6
ByLayer
100
AcDbLine
10
168703.648
20
2546149.685
30
0
11
168651.124
21
2546175.029
31
0
39
0
210
0
220
0
230
1
0
LINE
5
179
100
AcDbEntity
8
0
62
4
6
ByLayer
100
AcDbLine
10
168651.124
20
2546175.029
30
0
11
168554.34
21
2546161.07
31
0
39
0
210
0
220
0
230
1
0
LINE
5
17a
100
AcDbEntity
8
0
62
4
6
ByLayer
100
AcDbLine
10
168554.34
20
2546161.07
30
0
11
168496.96
21
2546162.686
31
0
39
0
210
0
220
0
230
1
0
LINE
5
17b
100
AcDbEntity
8
0
62
4
6
ByLayer
100
AcDbLine
10
168496.96
20
2546162.686
30
0
11
168477.328
21
2546121.579
31
0
39
0
210
0
220
0
230
1
0
LINE
5
17c
100
AcDbEntity
8
0
62
4
6
ByLayer
100
AcDbLine
10
168496.96
20
2546162.686
30
0
11
168401.457
21
2546204.576
31
0
39
0
210
0
220
0
230
1
0
LINE
5
17d
100
AcDbEntity
8
0
62
4
6
ByLayer
100
AcDbLine
10
168401.457
20
2546204.576
30
0
11
168470.314
21
2546270.244
31
0
39
0
210
0
220
0
230
1
0
LINE
5
17e
100
AcDbEntity
8
0
62
4
6
ByLayer
100
AcDbLine
10
168470.314
20
2546270.244
30
0
11
168506.402
21
2546351.491
31
0
39
0
210
0
220
0
230
1
0
LINE
5
17f
100
AcDbEntity
8
0
62
4
6
ByLayer
100
AcDbLine
10
168506.402
20
2546351.491
30
0
11
168377.832
21
2546431.986
31
0
39
0
210
0
220
0
230
1
0
TEXT
5
27d
100
AcDbEntity
8
0
62
5
6
ByLayer
100
AcDbText
1
98038
10
166474.488
20
2546757.416
30
0
40
1
41
1
50
0
51
0
7
Standard
11
166474.488
21
2546757.416
31
0
210
0
220
0
230
1
72
0
100
AcDbText
73
0
0
TEXT
5
27e
100
AcDbEntity
8
0
62
5
6
ByLayer
100
AcDbText
1
DA01
10
167094.289
20
2546991.887
30
0
40
1
41
1
50
0
51
0
7
Standard
11
167094.289
21
2546991.887
31
0
210
0
220
0
230
1
72
0
100
AcDbText
73
0
0
TEXT
5
27f
100
AcDbEntity
8
0
62
5
6
ByLayer
100
AcDbText
1
DA02
10
167148.42
20
2546901.068
30
0
40
1
41
1
50
0
51
0
7
Standard
11
167148.42
21
2546901.068
31
0
210
0
220
0
230
1
72
0
100
AcDbText
73
0
0
TEXT
5
280
100
AcDbEntity
8
0
62
5
6
ByLayer
100
AcDbText
1
DA03
10
167158.041
20
2546761.798
30
0
40
1
41
1
50
0
51
0
7
Standard
11
167158.041
21
2546761.798
31
0
210
0
220
0
230
1
72
0
100
AcDbText
73
0
0
TEXT
5
281
100
AcDbEntity
8
0
62
5
6
ByLayer
100
AcDbText
1
DA04
10
167207.098
20
2546664.794
30
0
40
1
41
1
50
0
51
0
7
Standard
11
167207.098
21
2546664.794
31
0
210
0
220
0
230
1
72
0
100
AcDbText
73
0
0
TEXT
5
282
100
AcDbEntity
8
0
62
5
6
ByLayer
100
AcDbText
1
DA05
10
167183.617
20
2546477.574
30
0
40
1
41
1
50
0
51
0
7
Standard
11
167183.617
21
2546477.574
31
0
210
0
220
0
230
1
72
0
100
AcDbText
73
0
0
TEXT
5
283
100
AcDbEntity
8
0
62
5
6
ByLayer
100
AcDbText
1
DA06
10
167271.581
20
2546488.06
30
0
40
1
41
1
50
0
51
0
7
Standard
11
167271.581
21
2546488.06
31
0
210
0
220
0
230
1
72
0
100
AcDbText
73
0
0
TEXT
5
284
100
AcDbEntity
8
0
62
5
6
ByLayer
100
AcDbText
1
C54-1
10
167327.017
20
2546497.722
30
0
40
1
41
1
50
0
51
0
7
Standard
11
167327.017
21
2546497.722
31
0
210
0
220
0
230
1
72
0
100
AcDbText
73
0
0
TEXT
5
285
100
AcDbEntity
8
0
62
5
6
ByLayer
100
AcDbText
1
C55
10
167430.867
20
2546507.859
30
0
40
1
41
1
50
0
51
0
7
Standard
11
167430.867
21
2546507.859
31
0
210
0
220
0
230
1
72
0
100
AcDbText
73
0
0
TEXT
5
286
100
AcDbEntity
8
0
62
5
6
ByLayer
100
AcDbText
1
C58
10
167604.792
20
2546557.124
30
0
40
1
41
1
50
0
51
0
7
Standard
11
167604.792
21
2546557.124
31
0
210
0
220
0
230
1
72
0
100
AcDbText
73
0
0
TEXT
5
287
100
AcDbEntity
8
0
62
5
6
ByLayer
100
AcDbText
1
DA07
10
167751.468
20
2546598.771
30
0
40
1
41
1
50
0
51
0
7
Standard
11
167751.468
21
2546598.771
31
0
210
0
220
0
230
1
72
0
100
AcDbText
73
0
0
TEXT
5
288
100
AcDbEntity
8
0
62
5
6
ByLayer
100
AcDbText
1
DA08
10
167887.768
20
2546585.824
30
0
40
1
41
1
50
0
51
0
7
Standard
11
167887.768
21
2546585.824
31
0
210
0
220
0
230
1
72
0
100
AcDbText
73
0
0
TEXT
5
289
100
AcDbEntity
8
0
62
5
6
ByLayer
100
AcDbText
1
DA09
10
167925.753
20
2546572.254
30
0
40
1
41
1
50
0
51
0
7
Standard
11
167925.753
21
2546572.254
31
0
210
0
220
0
230
1
72
0
100
AcDbText
73
0
0
TEXT
5
28a
100
AcDbEntity
8
0
62
5
6
ByLayer
100
AcDbText
1
DA10
10
168034.836
20
2546525.92
30
0
40
1
41
1
50
0
51
0
7
Standard
11
168034.836
21
2546525.92
31
0
210
0
220
0
230
1
72
0
100
AcDbText
73
0
0
TEXT
5
28b
100
AcDbEntity
8
0
62
5
6
ByLayer
100
AcDbText
1
DA11
10
168073.727
20
2546488.285
30
0
40
1
41
1
50
0
51
0
7
Standard
11
168073.727
21
2546488.285
31
0
210
0
220
0
230
1
72
0
100
AcDbText
73
0
0
TEXT
5
28c
100
AcDbEntity
8
0
62
5
6
ByLayer
100
AcDbText
1
DA12
10
168202.692
20
2546424.381
30
0
40
1
41
1
50
0
51
0
7
Standard
11
168202.692
21
2546424.381
31
0
210
0
220
0
230
1
72
0
100
AcDbText
73
0
0
TEXT
5
28d
100
AcDbEntity
8
0
62
5
6
ByLayer
100
AcDbText
1
DA13
10
168183.491
20
2546376.646
30
0
40
1
41
1
50
0
51
0
7
Standard
11
168183.491
21
2546376.646
31
0
210
0
220
0
230
1
72
0
100
AcDbText
73
0
0
TEXT
5
28e
100
AcDbEntity
8
0
62
5
6
ByLayer
100
AcDbText
1
DA14
10
168050.791
20
2546462.066
30
0
40
1
41
1
50
0
51
0
7
Standard
11
168050.791
21
2546462.066
31
0
210
0
220
0
230
1
72
0
100
AcDbText
73
0
0
TEXT
5
28f
100
AcDbEntity
8
0
62
5
6
ByLayer
100
AcDbText
1
DA15
10
168029.765
20
2546397.262
30
0
40
1
41
1
50
0
51
0
7
Standard
11
168029.765
21
2546397.262
31
0
210
0
220
0
230
1
72
0
100
AcDbText
73
0
0
TEXT
5
290
100
AcDbEntity
8
0
62
5
6
ByLayer
100
AcDbText
1
DA16
10
168005.906
20
2546357.84
30
0
40
1
41
1
50
0
51
0
7
Standard
11
168005.906
21
2546357.84
31
0
210
0
220
0
230
1
72
0
100
AcDbText
73
0
0
TEXT
5
291
100
AcDbEntity
8
0
62
5
6
ByLayer
100
AcDbText
1
DA17
10
167996.303
20
2546307.427
30
0
40
1
41
1
50
0
51
0
7
Standard
11
167996.303
21
2546307.427
31
0
210
0
220
0
230
1
72
0
100
AcDbText
73
0
0
TEXT
5
292
100
AcDbEntity
8
0
62
5
6
ByLayer
100
AcDbText
1
DA19
10
167192.27
20
2546355.987
30
0
40
1
41
1
50
0
51
0
7
Standard
11
167192.27
21
2546355.987
31
0
210
0
220
0
230
1
72
0
100
AcDbText
73
0
0
TEXT
5
293
100
AcDbEntity
8
0
62
5
6
ByLayer
100
AcDbText
1
DA20
10
167198.954
20
2546243.861
30
0
40
1
41
1
50
0
51
0
7
Standard
11
167198.954
21
2546243.861
31
0
210
0
220
0
230
1
72
0
100
AcDbText
73
0
0
TEXT
5
294
100
AcDbEntity
8
0
62
5
6
ByLayer
100
AcDbText
1
DA21
10
167206.689
20
2546105.369
30
0
40
1
41
1
50
0
51
0
7
Standard
11
167206.689
21
2546105.369
31
0
210
0
220
0
230
1
72
0
100
AcDbText
73
0
0
TEXT
5
295
100
AcDbEntity
8
0
62
5
6
ByLayer
100
AcDbText
1
DA22
10
167214.066
20
2545991.264
30
0
40
1
41
1
50
0
51
0
7
Standard
11
167214.066
21
2545991.264
31
0
210
0
220
0
230
1
72
0
100
AcDbText
73
0
0
TEXT
5
296
100
AcDbEntity
8
0
62
5
6
ByLayer
100
AcDbText
1
BA10
10
167239.312
20
2545918.415
30
0
40
1
41
1
50
0
51
0
7
Standard
11
167239.312
21
2545918.415
31
0
210
0
220
0
230
1
72
0
100
AcDbText
73
0
0
TEXT
5
297
100
AcDbEntity
8
0
62
5
6
ByLayer
100
AcDbText
1
BA09
10
167176.48
20
2545775.25
30
0
40
1
41
1
50
0
51
0
7
Standard
11
167176.48
21
2545775.25
31
0
210
0
220
0
230
1
72
0
100
AcDbText
73
0
0
TEXT
5
298
100
AcDbEntity
8
0
62
5
6
ByLayer
100
AcDbText
1
DA23
10
167143.211
20
2545571.242
30
0
40
1
41
1
50
0
51
0
7
Standard
11
167143.211
21
2545571.242
31
0
210
0
220
0
230
1
72
0
100
AcDbText
73
0
0
TEXT
5
299
100
AcDbEntity
8
0
62
5
6
ByLayer
100
AcDbText
1
DA24
10
167179.952
20
2545447.474
30
0
40
1
41
1
50
0
51
0
7
Standard
11
167179.952
21
2545447.474
31
0
210
0
220
0
230
1
72
0
100
AcDbText
73
0
0
TEXT
5
29a
100
AcDbEntity
8
0
62
5
6
ByLayer
100
AcDbText
1
DA25
10
167170.398
20
2545301.541
30
0
40
1
41
1
50
0
51
0
7
Standard
11
167170.398
21
2545301.541
31
0
210
0
220
0
230
1
72
0
100
AcDbText
73
0
0
TEXT
5
29b
100
AcDbEntity
8
0
62
5
6
ByLayer
100
AcDbText
1
DA26
10
167172.941
20
2545177.227
30
0
40
1
41
1
50
0
51
0
7
Standard
11
167172.941
21
2545177.227
31
0
210
0
220
0
230
1
72
0
100
AcDbText
73
0
0
TEXT
5
29c
100
AcDbEntity
8
0
62
5
6
ByLayer
100
AcDbText
1
BA08
10
167154.152
20
2545121.16
30
0
40
1
41
1
50
0
51
0
7
Standard
11
167154.152
21
2545121.16
31
0
210
0
220
0
230
1
72
0
100
AcDbText
73
0
0
TEXT
5
29d
100
AcDbEntity
8
0
62
5
6
ByLayer
100
AcDbText
1
BA07
10
167266.894
20
2545178.779
30
0
40
1
41
1
50
0
51
0
7
Standard
11
167266.894
21
2545178.779
31
0
210
0
220
0
230
1
72
0
100
AcDbText
73
0
0
TEXT
5
29e
100
AcDbEntity
8
0
62
5
6
ByLayer
100
AcDbText
1
DA27
10
167502.51
20
2545281.214
30
0
40
1
41
1
50
0
51
0
7
Standard
11
167502.51
21
2545281.214
31
0
210
0
220
0
230
1
72
0
100
AcDbText
73
0
0
TEXT
5
29f
100
AcDbEntity
8
0
62
5
6
ByLayer
100
AcDbText
1
DA28
10
167444.261
20
2545309.203
30
0
40
1
41
1
50
0
51
0
7
Standard
11
167444.261
21
2545309.203
31
0
210
0
220
0
230
1
72
0
100
AcDbText
73
0
0
TEXT
5
2a0
100
AcDbEntity
8
0
62
5
6
ByLayer
100
AcDbText
1
DA29
10
167470.605
20
2545374.9
30
0
40
1
41
1
50
0
51
0
7
Standard
11
167470.605
21
2545374.9
31
0
210
0
220
0
230
1
72
0
100
AcDbText
73
0
0
TEXT
5
2a1
100
AcDbEntity
8
0
62
5
6
ByLayer
100
AcDbText
1
DA30
10
167563.886
20
2545487.869
30
0
40
1
41
1
50
0
51
0
7
Standard
11
167563.886
21
2545487.869
31
0
210
0
220
0
230
1
72
0
100
AcDbText
73
0
0
TEXT
5
2a2
100
AcDbEntity
8
0
62
5
6
ByLayer
100
AcDbText
1
DA31
10
167664.511
20
2545651.647
30
0
40
1
41
1
50
0
51
0
7
Standard
11
167664.511
21
2545651.647
31
0
210
0
220
0
230
1
72
0
100
AcDbText
73
0
0
TEXT
5
2a3
100
AcDbEntity
8
0
62
5
6
ByLayer
100
AcDbText
1
DA32
10
167758.725
20
2545769.552
30
0
40
1
41
1
50
0
51
0
7
Standard
11
167758.725
21
2545769.552
31
0
210
0
220
0
230
1
72
0
100
AcDbText
73
0
0
TEXT
5
2a4
100
AcDbEntity
8
0
62
5
6
ByLayer
100
AcDbText
1
DA33
10
167798.663
20
2545925.48
30
0
40
1
41
1
50
0
51
0
7
Standard
11
167798.663
21
2545925.48
31
0
210
0
220
0
230
1
72
0
100
AcDbText
73
0
0
TEXT
5
2a5
100
AcDbEntity
8
0
62
5
6
ByLayer
100
AcDbText
1
DA34
10
167833.148
20
2546054.46
30
0
40
1
41
1
50
0
51
0
7
Standard
11
167833.148
21
2546054.46
31
0
210
0
220
0
230
1
72
0
100
AcDbText
73
0
0
TEXT
5
2a6
100
AcDbEntity
8
0
62
5
6
ByLayer
100
AcDbText
1
DA35
10
167688.928
20
2546090.654
30
0
40
1
41
1
50
0
51
0
7
Standard
11
167688.928
21
2546090.654
31
0
210
0
220
0
230
1
72
0
100
AcDbText
73
0
0
TEXT
5
2a7
100
AcDbEntity
8
0
62
5
6
ByLayer
100
AcDbText
1
DA36
10
167542.981
20
2546102.079
30
0
40
1
41
1
50
0
51
0
7
Standard
11
167542.981
21
2546102.079
31
0
210
0
220
0
230
1
72
0
100
AcDbText
73
0
0
TEXT
5
2a8
100
AcDbEntity
8
0
62
5
6
ByLayer
100
AcDbText
1
DA37
10
167286.186
20
2546040.339
30
0
40
1
41
1
50
0
51
0
7
Standard
11
167286.186
21
2546040.339
31
0
210
0
220
0
230
1
72
0
100
AcDbText
73
0
0
TEXT
5
2a9
100
AcDbEntity
8
0
62
5
6
ByLayer
100
AcDbText
1
DA39
10
167966.271
20
2546245.02
30
0
40
1
41
1
50
0
51
0
7
Standard
11
167966.271
21
2546245.02
31
0
210
0
220
0
230
1
72
0
100
AcDbText
73
0
0
TEXT
5
2aa
100
AcDbEntity
8
0
62
5
6
ByLayer
100
AcDbText
1
DA40
10
167931.646
20
2546107.281
30
0
40
1
41
1
50
0
51
0
7
Standard
11
167931.646
21
2546107.281
31
0
210
0
220
0
230
1
72
0
100
AcDbText
73
0
0
TEXT
5
2ab
100
AcDbEntity
8
0
62
5
6
ByLayer
100
AcDbText
1
DA41
10
167840.663
20
2546246.144
30
0
40
1
41
1
50
0
51
0
7
Standard
11
167840.663
21
2546246.144
31
0
210
0
220
0
230
1
72
0
100
AcDbText
73
0
0
TEXT
5
2ac
100
AcDbEntity
8
0
62
5
6
ByLayer
100
AcDbText
1
DA43
10
167840.959
20
2546120.322
30
0
40
1
41
1
50
0
51
0
7
Standard
11
167840.959
21
2546120.322
31
0
210
0
220
0
230
1
72
0
100
AcDbText
73
0
0
TEXT
5
2ad
100
AcDbEntity
8
0
62
5
6
ByLayer
100
AcDbText
1
DA42
10
167697.764
20
2546262.064
30
0
40
1
41
1
50
0
51
0
7
Standard
11
167697.764
21
2546262.064
31
0
210
0
220
0
230
1
72
0
100
AcDbText
73
0
0
TEXT
5
2ae
100
AcDbEntity
8
0
62
5
6
ByLayer
100
AcDbText
1
DA44
10
167602.155
20
2546266.764
30
0
40
1
41
1
50
0
51
0
7
Standard
11
167602.155
21
2546266.764
31
0
210
0
220
0
230
1
72
0
100
AcDbText
73
0
0
TEXT
5
2af
100
AcDbEntity
8
0
62
5
6
ByLayer
100
AcDbText
1
DA45
10
167538.147
20
2546269.514
30
0
40
1
41
1
50
0
51
0
7
Standard
11
167538.147
21
2546269.514
31
0
210
0
220
0
230
1
72
0
100
AcDbText
73
0
0
TEXT
5
2b0
100
AcDbEntity
8
0
62
5
6
ByLayer
100
AcDbText
1
DA46
10
167471.636
20
2546263.873
30
0
40
1
41
1
50
0
51
0
7
Standard
11
167471.636
21
2546263.873
31
0
210
0
220
0
230
1
72
0
100
AcDbText
73
0
0
TEXT
5
2b1
100
AcDbEntity
8
0
62
5
6
ByLayer
100
AcDbText
1
DA47
10
167341.193
20
2546247.908
30
0
40
1
41
1
50
0
51
0
7
Standard
11
167341.193
21
2546247.908
31
0
210
0
220
0
230
1
72
0
100
AcDbText
73
0
0
TEXT
5
2b2
100
AcDbEntity
8
0
62
5
6
ByLayer
100
AcDbText
1
DA48
10
167601.341
20
2545135.477
30
0
40
1
41
1
50
0
51
0
7
Standard
11
167601.341
21
2545135.477
31
0
210
0
220
0
230
1
72
0
100
AcDbText
73
0
0
TEXT
5
2b3
100
AcDbEntity
8
0
62
5
6
ByLayer
100
AcDbText
1
DA49
10
167755.651
20
2545316.71
30
0
40
1
41
1
50
0
51
0
7
Standard
11
167755.651
21
2545316.71
31
0
210
0
220
0
230
1
72
0
100
AcDbText
73
0
0
TEXT
5
2b4
100
AcDbEntity
8
0
62
5
6
ByLayer
100
AcDbText
1
DA50
10
168016.844
20
2545274.689
30
0
40
1
41
1
50
0
51
0
7
Standard
11
168016.844
21
2545274.689
31
0
210
0
220
0
230
1
72
0
100
AcDbText
73
0
0
TEXT
5
2b5
100
AcDbEntity
8
0
62
5
6
ByLayer
100
AcDbText
1
DA51
10
168046.372
20
2545268.158
30
0
40
1
41
1
50
0
51
0
7
Standard
11
168046.372
21
2545268.158
31
0
210
0
220
0
230
1
72
0
100
AcDbText
73
0
0
TEXT
5
2b6
100
AcDbEntity
8
0
62
5
6
ByLayer
100
AcDbText
1
DA53
10
168130.56
20
2545250.583
30
0
40
1
41
1
50
0
51
0
7
Standard
11
168130.56
21
2545250.583
31
0
210
0
220
0
230
1
72
0
100
AcDbText
73
0
0
TEXT
5
2b7
100
AcDbEntity
8
0
62
5
6
ByLayer
100
AcDbText
1
DA52
10
168222.829
20
2545213.923
30
0
40
1
41
1
50
0
51
0
7
Standard
11
168222.829
21
2545213.923
31
0
210
0
220
0
230
1
72
0
100
AcDbText
73
0
0
TEXT
5
2b8
100
AcDbEntity
8
0
62
5
6
ByLayer
100
AcDbText
1
DA54
10
168280.629
20
2545200.959
30
0
40
1
41
1
50
0
51
0
7
Standard
11
168280.629
21
2545200.959
31
0
210
0
220
0
230
1
72
0
100
AcDbText
73
0
0
TEXT
5
2b9
100
AcDbEntity
8
0
62
5
6
ByLayer
100
AcDbText
1
DA55
10
168363.604
20
2545183.099
30
0
40
1
41
1
50
0
51
0
7
Standard
11
168363.604
21
2545183.099
31
0
210
0
220
0
230
1
72
0
100
AcDbText
73
0
0
TEXT
5
2ba
100
AcDbEntity
8
0
62
5
6
ByLayer
100
AcDbText
1
DA56
10
168445.089
20
2545165.107
30
0
40
1
41
1
50
0
51
0
7
Standard
11
168445.089
21
2545165.107
31
0
210
0
220
0
230
1
72
0
100
AcDbText
73
0
0
TEXT
5
2bb
100
AcDbEntity
8
0
62
5
6
ByLayer
100
AcDbText
1
DA57
10
168565.116
20
2545134.67
30
0
40
1
41
1
50
0
51
0
7
Standard
11
168565.116
21
2545134.67
31
0
210
0
220
0
230
1
72
0
100
AcDbText
73
0
0
TEXT
5
2bc
100
AcDbEntity
8
0
62
5
6
ByLayer
100
AcDbText
1
BA01
10
168714.705
20
2545118.276
30
0
40
1
41
1
50
0
51
0
7
Standard
11
168714.705
21
2545118.276
31
0
210
0
220
0
230
1
72
0
100
AcDbText
73
0
0
TEXT
5
2bd
100
AcDbEntity
8
0
62
5
6
ByLayer
100
AcDbText
1
DA58
10
168631.727
20
2545356.814
30
0
40
1
41
1
50
0
51
0
7
Standard
11
168631.727
21
2545356.814
31
0
210
0
220
0
230
1
72
0
100
AcDbText
73
0
0
TEXT
5
2be
100
AcDbEntity
8
0
62
5
6
ByLayer
100
AcDbText
1
DA59
10
168660.063
20
2545430.844
30
0
40
1
41
1
50
0
51
0
7
Standard
11
168660.063
21
2545430.844
31
0
210
0
220
0
230
1
72
0
100
AcDbText
73
0
0
TEXT
5
2bf
100
AcDbEntity
8
0
62
5
6
ByLayer
100
AcDbText
1
DA60
10
168686.516
20
2545472.827
30
0
40
1
41
1
50
0
51
0
7
Standard
11
168686.516
21
2545472.827
31
0
210
0
220
0
230
1
72
0
100
AcDbText
73
0
0
TEXT
5
2c0
100
AcDbEntity
8
0
62
5
6
ByLayer
100
AcDbText
1
DA61
10
168701.095
20
2545501.992
30
0
40
1
41
1
50
0
51
0
7
Standard
11
168701.095
21
2545501.992
31
0
210
0
220
0
230
1
72
0
100
AcDbText
73
0
0
TEXT
5
2c1
100
AcDbEntity
8
0
62
5
6
ByLayer
100
AcDbText
1
DA62
10
168703.529
20
2545537.297
30
0
40
1
41
1
50
0
51
0
7
Standard
11
168703.529
21
2545537.297
31
0
210
0
220
0
230
1
72
0
100
AcDbText
73
0
0
TEXT
5
2c2
100
AcDbEntity
8
0
62
5
6
ByLayer
100
AcDbText
1
DA63
10
168737.752
20
2545582.212
30
0
40
1
41
1
50
0
51
0
7
Standard
11
168737.752
21
2545582.212
31
0
210
0
220
0
230
1
72
0
100
AcDbText
73
0
0
TEXT
5
2c3
100
AcDbEntity
8
0
62
5
6
ByLayer
100
AcDbText
1
DA64
10
168763.349
20
2545650.152
30
0
40
1
41
1
50
0
51
0
7
Standard
11
168763.349
21
2545650.152
31
0
210
0
220
0
230
1
72
0
100
AcDbText
73
0
0
TEXT
5
2c4
100
AcDbEntity
8
0
62
5
6
ByLayer
100
AcDbText
1
DA65
10
168782.24
20
2545720.138
30
0
40
1
41
1
50
0
51
0
7
Standard
11
168782.24
21
2545720.138
31
0
210
0
220
0
230
1
72
0
100
AcDbText
73
0
0
TEXT
5
2c5
100
AcDbEntity
8
0
62
5
6
ByLayer
100
AcDbText
1
DA66
10
168838.245
20
2545884.294
30
0
40
1
41
1
50
0
51
0
7
Standard
11
168838.245
21
2545884.294
31
0
210
0
220
0
230
1
72
0
100
AcDbText
73
0
0
TEXT
5
2c6
100
AcDbEntity
8
0
62
5
6
ByLayer
100
AcDbText
1
DA67
10
168888.041
20
2546051.139
30
0
40
1
41
1
50
0
51
0
7
Standard
11
168888.041
21
2546051.139
31
0
210
0
220
0
230
1
72
0
100
AcDbText
73
0
0
TEXT
5
2c7
100
AcDbEntity
8
0
62
5
6
ByLayer
100
AcDbText
1
DA68
10
168920.876
20
2546135.312
30
0
40
1
41
1
50
0
51
0
7
Standard
11
168920.876
21
2546135.312
31
0
210
0
220
0
230
1
72
0
100
AcDbText
73
0
0
TEXT
5
2c8
100
AcDbEntity
8
0
62
5
6
ByLayer
100
AcDbText
1
BA03
10
169040.884
20
2546111.228
30
0
40
1
41
1
50
0
51
0
7
Standard
11
169040.884
21
2546111.228
31
0
210
0
220
0
230
1
72
0
100
AcDbText
73
0
0
TEXT
5
2c9
100
AcDbEntity
8
0
62
5
6
ByLayer
100
AcDbText
1
GB13-1
10
168802.605
20
2546124.895
30
0
40
1
41
1
50
0
51
0
7
Standard
11
168802.605
21
2546124.895
31
0
210
0
220
0
230
1
72
0
100
AcDbText
73
0
0
TEXT
5
2ca
100
AcDbEntity
8
0
62
5
6
ByLayer
100
AcDbText
1
BA04
10
169150.018
20
2546117.791
30
0
40
1
41
1
50
0
51
0
7
Standard
11
169150.018
21
2546117.791
31
0
210
0
220
0
230
1
72
0
100
AcDbText
73
0
0
TEXT
5
2cb
100
AcDbEntity
8
0
62
5
6
ByLayer
100
AcDbText
1
DA69
10
169163.055
20
2546131.914
30
0
40
1
41
1
50
0
51
0
7
Standard
11
169163.055
21
2546131.914
31
0
210
0
220
0
230
1
72
0
100
AcDbText
73
0
0
TEXT
5
2cc
100
AcDbEntity
8
0
62
5
6
ByLayer
100
AcDbText
1
GB646
10
169161.217
20
2546167.079
30
0
40
1
41
1
50
0
51
0
7
Standard
11
169161.217
21
2546167.079
31
0
210
0
220
0
230
1
72
0
100
AcDbText
73
0
0
TEXT
5
2cd
100
AcDbEntity
8
0
62
5
6
ByLayer
100
AcDbText
1
GB647
10
169159.851
20
2546213.311
30
0
40
1
41
1
50
0
51
0
7
Standard
11
169159.851
21
2546213.311
31
0
210
0
220
0
230
1
72
0
100
AcDbText
73
0
0
TEXT
5
2ce
100
AcDbEntity
8
0
62
5
6
ByLayer
100
AcDbText
1
DA70
10
169214.103
20
2546202.056
30
0
40
1
41
1
50
0
51
0
7
Standard
11
169214.103
21
2546202.056
31
0
210
0
220
0
230
1
72
0
100
AcDbText
73
0
0
TEXT
5
2cf
100
AcDbEntity
8
0
62
5
6
ByLayer
100
AcDbText
1
GB642
10
169273.83
20
2546282.075
30
0
40
1
41
1
50
0
51
0
7
Standard
11
169273.83
21
2546282.075
31
0
210
0
220
0
230
1
72
0
100
AcDbText
73
0
0
TEXT
5
2d0
100
AcDbEntity
8
0
62
5
6
ByLayer
100
AcDbText
1
GB640
10
169313.441
20
2546350.638
30
0
40
1
41
1
50
0
51
0
7
Standard
11
169313.441
21
2546350.638
31
0
210
0
220
0
230
1
72
0
100
AcDbText
73
0
0
TEXT
5
2d1
100
AcDbEntity
8
0
62
5
6
ByLayer
100
AcDbText
1
DA71
10
169357.972
20
2546409.783
30
0
40
1
41
1
50
0
51
0
7
Standard
11
169357.972
21
2546409.783
31
0
210
0
220
0
230
1
72
0
100
AcDbText
73
0
0
TEXT
5
2d2
100
AcDbEntity
8
0
62
5
6
ByLayer
100
AcDbText
1
GB634
10
169392.632
20
2546477.82
30
0
40
1
41
1
50
0
51
0
7
Standard
11
169392.632
21
2546477.82
31
0
210
0
220
0
230
1
72
0
100
AcDbText
73
0
0
TEXT
5
2d3
100
AcDbEntity
8
0
62
5
6
ByLayer
100
AcDbText
1
GB632
10
169386.602
20
2546521.914
30
0
40
1
41
1
50
0
51
0
7
Standard
11
169386.602
21
2546521.914
31
0
210
0
220
0
230
1
72
0
100
AcDbText
73
0
0
TEXT
5
2d4
100
AcDbEntity
8
0
62
5
6
ByLayer
100
AcDbText
1
GB631
10
169393.45
20
2546554.943
30
0
40
1
41
1
50
0
51
0
7
Standard
11
169393.45
21
2546554.943
31
0
210
0
220
0
230
1
72
0
100
AcDbText
73
0
0
TEXT
5
2d5
100
AcDbEntity
8
0
62
5
6
ByLayer
100
AcDbText
1
GB628
10
169387.269
20
2546587.948
30
0
40
1
41
1
50
0
51
0
7
Standard
11
169387.269
21
2546587.948
31
0
210
0
220
0
230
1
72
0
100
AcDbText
73
0
0
TEXT
5
2d6
100
AcDbEntity
8
0
62
5
6
ByLayer
100
AcDbText
1
GB627
10
169395.098
20
2546631.332
30
0
40
1
41
1
50
0
51
0
7
Standard
11
169395.098
21
2546631.332
31
0
210
0
220
0
230
1
72
0
100
AcDbText
73
0
0
TEXT
5
2d7
100
AcDbEntity
8
0
62
5
6
ByLayer
100
AcDbText
1
GB623
10
169390.578
20
2546668.374
30
0
40
1
41
1
50
0
51
0
7
Standard
11
169390.578
21
2546668.374
31
0
210
0
220
0
230
1
72
0
100
AcDbText
73
0
0
TEXT
5
2d8
100
AcDbEntity
8
0
62
5
6
ByLayer
100
AcDbText
1
GB622
10
169398.956
20
2546707.314
30
0
40
1
41
1
50
0
51
0
7
Standard
11
169398.956
21
2546707.314
31
0
210
0
220
0
230
1
72
0
100
AcDbText
73
0
0
TEXT
5
2d9
100
AcDbEntity
8
0
62
5
6
ByLayer
100
AcDbText
1
DA72
10
169391.857
20
2546725.744
30
0
40
1
41
1
50
0
51
0
7
Standard
11
169391.857
21
2546725.744
31
0
210
0
220
0
230
1
72
0
100
AcDbText
73
0
0
TEXT
5
2da
100
AcDbEntity
8
0
62
5
6
ByLayer
100
AcDbText
1
DA73
10
169404.318
20
2546797.955
30
0
40
1
41
1
50
0
51
0
7
Standard
11
169404.318
21
2546797.955
31
0
210
0
220
0
230
1
72
0
100
AcDbText
73
0
0
TEXT
5
2db
100
AcDbEntity
8
0
62
5
6
ByLayer
100
AcDbText
1
BA15
10
169373.629
20
2546789.217
30
0
40
1
41
1
50
0
51
0
7
Standard
11
169373.629
21
2546789.217
31
0
210
0
220
0
230
1
72
0
100
AcDbText
73
0
0
TEXT
5
2dc
100
AcDbEntity
8
0
62
5
6
ByLayer
100
AcDbText
1
DA74
10
169368.427
20
2546739.928
30
0
40
1
41
1
50
0
51
0
7
Standard
11
169368.427
21
2546739.928
31
0
210
0
220
0
230
1
72
0
100
AcDbText
73
0
0
TEXT
5
2dd
100
AcDbEntity
8
0
62
5
6
ByLayer
100
AcDbText
1
DA75
10
169322.775
20
2546779.358
30
0
40
1
41
1
50
0
51
0
7
Standard
11
169322.775
21
2546779.358
31
0
210
0
220
0
230
1
72
0
100
AcDbText
73
0
0
TEXT
5
2de
100
AcDbEntity
8
0
62
5
6
ByLayer
100
AcDbText
1
DA76
10
169261.132
20
2546777.821
30
0
40
1
41
1
50
0
51
0
7
Standard
11
169261.132
21
2546777.821
31
0
210
0
220
0
230
1
72
0
100
AcDbText
73
0
0
TEXT
5
2df
100
AcDbEntity
8
0
62
5
6
ByLayer
100
AcDbText
1
DA77
10
169252.915
20
2546746.255
30
0
40
1
41
1
50
0
51
0
7
Standard
11
169252.915
21
2546746.255
31
0
210
0
220
0
230
1
72
0
100
AcDbText
73
0
0
TEXT
5
2e0
100
AcDbEntity
8
0
62
5
6
ByLayer
100
AcDbText
1
DA78
10
169238.546
20
2546712.943
30
0
40
1
41
1
50
0
51
0
7
Standard
11
169238.546
21
2546712.943
31
0
210
0
220
0
230
1
72
0
100
AcDbText
73
0
0
TEXT
5
2e1
100
AcDbEntity
8
0
62
5
6
ByLayer
100
AcDbText
1
GB665
10
169229.753
20
2546626.517
30
0
40
1
41
1
50
0
51
0
7
Standard
11
169229.753
21
2546626.517
31
0
210
0
220
0
230
1
72
0
100
AcDbText
73
0
0
TEXT
5
2e2
100
AcDbEntity
8
0
62
5
6
ByLayer
100
AcDbText
1
GB664
10
169188.254
20
2546640.273
30
0
40
1
41
1
50
0
51
0
7
Standard
11
169188.254
21
2546640.273
31
0
210
0
220
0
230
1
72
0
100
AcDbText
73
0
0
TEXT
5
2e3
100
AcDbEntity
8
0
62
5
6
ByLayer
100
AcDbText
1
GB663
10
169096.83
20
2546678.7
30
0
40
1
41
1
50
0
51
0
7
Standard
11
169096.83
21
2546678.7
31
0
210
0
220
0
230
1
72
0
100
AcDbText
73
0
0
TEXT
5
2e4
100
AcDbEntity
8
0
62
5
6
ByLayer
100
AcDbText
1
GB666
10
169041.83
20
2546676.293
30
0
40
1
41
1
50
0
51
0
7
Standard
11
169041.83
21
2546676.293
31
0
210
0
220
0
230
1
72
0
100
AcDbText
73
0
0
TEXT
5
2e5
100
AcDbEntity
8
0
62
5
6
ByLayer
100
AcDbText
1
DA79
10
169000.538
20
2546663.297
30
0
40
1
41
1
50
0
51
0
7
Standard
11
169000.538
21
2546663.297
31
0
210
0
220
0
230
1
72
0
100
AcDbText
73
0
0
TEXT
5
2e6
100
AcDbEntity
8
0
62
5
6
ByLayer
100
AcDbText
1
GB668
10
168920.491
20
2546688.283
30
0
40
1
41
1
50
0
51
0
7
Standard
11
168920.491
21
2546688.283
31
0
210
0
220
0
230
1
72
0
100
AcDbText
73
0
0
TEXT
5
2e7
100
AcDbEntity
8
0
62
5
6
ByLayer
100
AcDbText
1
GB669
10
168865.837
20
2546694.8
30
0
40
1
41
1
50
0
51
0
7
Standard
11
168865.837
21
2546694.8
31
0
210
0
220
0
230
1
72
0
100
AcDbText
73
0
0
TEXT
5
2e8
100
AcDbEntity
8
0
62
5
6
ByLayer
100
AcDbText
1
DA80
10
168875.862
20
2546745.979
30
0
40
1
41
1
50
0
51
0
7
Standard
11
168875.862
21
2546745.979
31
0
210
0
220
0
230
1
72
0
100
AcDbText
73
0
0
TEXT
5
2e9
100
AcDbEntity
8
0
62
5
6
ByLayer
100
AcDbText
1
DA81
10
168888.64
20
2546814.485
30
0
40
1
41
1
50
0
51
0
7
Standard
11
168888.64
21
2546814.485
31
0
210
0
220
0
230
1
72
0
100
AcDbText
73
0
0
TEXT
5
2ea
100
AcDbEntity
8
0
62
5
6
ByLayer
100
AcDbText
1
DA82
10
168809.961
20
2546810.517
30
0
40
1
41
1
50
0
51
0
7
Standard
11
168809.961
21
2546810.517
31
0
210
0
220
0
230
1
72
0
100
AcDbText
73
0
0
TEXT
5
2eb
100
AcDbEntity
8
0
62
5
6
ByLayer
100
AcDbText
1
GB614
10
168781.819
20
2546747.344
30
0
40
1
41
1
50
0
51
0
7
Standard
11
168781.819
21
2546747.344
31
0
210
0
220
0
230
1
72
0
100
AcDbText
73
0
0
TEXT
5
2ec
100
AcDbEntity
8
0
62
5
6
ByLayer
100
AcDbText
1
DA83
10
168732.6
20
2546760.394
30
0
40
1
41
1
50
0
51
0
7
Standard
11
168732.6
21
2546760.394
31
0
210
0
220
0
230
1
72
0
100
AcDbText
73
0
0
TEXT
5
2ed
100
AcDbEntity
8
0
62
5
6
ByLayer
100
AcDbText
1
DA84
10
168703.17
20
2546660.812
30
0
40
1
41
1
50
0
51
0
7
Standard
11
168703.17
21
2546660.812
31
0
210
0
220
0
230
1
72
0
100
AcDbText
73
0
0
TEXT
5
2ee
100
AcDbEntity
8
0
62
5
6
ByLayer
100
AcDbText
1
GB302
10
168649.46
20
2546678.66
30
0
40
1
41
1
50
0
51
0
7
Standard
11
168649.46
21
2546678.66
31
0
210
0
220
0
230
1
72
0
100
AcDbText
73
0
0
TEXT
5
2ef
100
AcDbEntity
8
0
62
5
6
ByLayer
100
AcDbText
1
GB306
10
168589.094
20
2546693.66
30
0
40
1
41
1
50
0
51
0
7
Standard
11
168589.094
21
2546693.66
31
0
210
0
220
0
230
1
72
0
100
AcDbText
73
0
0
TEXT
5
2f0
100
AcDbEntity
8
0
62
5
6
ByLayer
100
AcDbText
1
GB310
10
168549.785
20
2546690.51
30
0
40
1
41
1
50
0
51
0
7
Standard
11
168549.785
21
2546690.51
31
0
210
0
220
0
230
1
72
0
100
AcDbText
73
0
0
TEXT
5
2f1
100
AcDbEntity
8
0
62
5
6
ByLayer
100
AcDbText
1
GB325
10
168505.822
20
2546701.724
30
0
40
1
41
1
50
0
51
0
7
Standard
11
168505.822
21
2546701.724
31
0
210
0
220
0
230
1
72
0
100
AcDbText
73
0
0
TEXT
5
2f2
100
AcDbEntity
8
0
62
5
6
ByLayer
100
AcDbText
1
FD310
10
168514.133
20
2546801.642
30
0
40
1
41
1
50
0
51
0
7
Standard
11
168514.133
21
2546801.642
31
0
210
0
220
0
230
1
72
0
100
AcDbText
73
0
0
TEXT
5
2f3
100
AcDbEntity
8
0
62
5
6
ByLayer
100
AcDbText
1
DA85
10
168520.621
20
2546855.263
30
0
40
1
41
1
50
0
51
0
7
Standard
11
168520.621
21
2546855.263
31
0
210
0
220
0
230
1
72
0
100
AcDbText
73
0
0
TEXT
5
2f4
100
AcDbEntity
8
0
62
5
6
ByLayer
100
AcDbText
1
DA86
10
168344.736
20
2547051.737
30
0
40
1
41
1
50
0
51
0
7
Standard
11
168344.736
21
2547051.737
31
0
210
0
220
0
230
1
72
0
100
AcDbText
73
0
0
TEXT
5
2f5
100
AcDbEntity
8
0
62
5
6
ByLayer
100
AcDbText
1
DA87
10
168209.708
20
2547129.475
30
0
40
1
41
1
50
0
51
0
7
Standard
11
168209.708
21
2547129.475
31
0
210
0
220
0
230
1
72
0
100
AcDbText
73
0
0
TEXT
5
2f6
100
AcDbEntity
8
0
62
5
6
ByLayer
100
AcDbText
1
BA14
10
168038.505
20
2547190.011
30
0
40
1
41
1
50
0
51
0
7
Standard
11
168038.505
21
2547190.011
31
0
210
0
220
0
230
1
72
0
100
AcDbText
73
0
0
TEXT
5
2f7
100
AcDbEntity
8
0
62
5
6
ByLayer
100
AcDbText
1
BA13
10
168211.623
20
2547183.819
30
0
40
1
41
1
50
0
51
0
7
Standard
11
168211.623
21
2547183.819
31
0
210
0
220
0
230
1
72
0
100
AcDbText
73
0
0
TEXT
5
2f8
100
AcDbEntity
8
0
62
5
6
ByLayer
100
AcDbText
1
DA88
10
167976.767
20
2547179.415
30
0
40
1
41
1
50
0
51
0
7
Standard
11
167976.767
21
2547179.415
31
0
210
0
220
0
230
1
72
0
100
AcDbText
73
0
0
TEXT
5
2f9
100
AcDbEntity
8
0
62
5
6
ByLayer
100
AcDbText
1
DA89
10
167865.878
20
2547161.379
30
0
40
1
41
1
50
0
51
0
7
Standard
11
167865.878
21
2547161.379
31
0
210
0
220
0
230
1
72
0
100
AcDbText
73
0
0
TEXT
5
2fa
100
AcDbEntity
8
0
62
5
6
ByLayer
100
AcDbText
1
DA90
10
167816.699
20
2547154.087
30
0
40
1
41
1
50
0
51
0
7
Standard
11
167816.699
21
2547154.087
31
0
210
0
220
0
230
1
72
0
100
AcDbText
73
0
0
TEXT
5
2fb
100
AcDbEntity
8
0
62
5
6
ByLayer
100
AcDbText
1
PE37
10
167742.504
20
2547139.454
30
0
40
1
41
1
50
0
51
0
7
Standard
11
167742.504
21
2547139.454
31
0
210
0
220
0
230
1
72
0
100
AcDbText
73
0
0
TEXT
5
2fc
100
AcDbEntity
8
0
62
5
6
ByLayer
100
AcDbText
1
DA91
10
167657.578
20
2547124.267
30
0
40
1
41
1
50
0
51
0
7
Standard
11
167657.578
21
2547124.267
31
0
210
0
220
0
230
1
72
0
100
AcDbText
73
0
0
TEXT
5
2fd
100
AcDbEntity
8
0
62
5
6
ByLayer
100
AcDbText
1
DA92
10
167457.387
20
2547086.073
30
0
40
1
41
1
50
0
51
0
7
Standard
11
167457.387
21
2547086.073
31
0
210
0
220
0
230
1
72
0
100
AcDbText
73
0
0
TEXT
5
2fe
100
AcDbEntity
8
0
62
5
6
ByLayer
100
AcDbText
1
DA93
10
167385.209
20
2547089.87
30
0
40
1
41
1
50
0
51
0
7
Standard
11
167385.209
21
2547089.87
31
0
210
0
220
0
230
1
72
0
100
AcDbText
73
0
0
TEXT
5
2ff
100
AcDbEntity
8
0
62
5
6
ByLayer
100
AcDbText
1
DA94
10
167287.501
20
2547061.139
30
0
40
1
41
1
50
0
51
0
7
Standard
11
167287.501
21
2547061.139
31
0
210
0
220
0
230
1
72
0
100
AcDbText
73
0
0
TEXT
5
300
100
AcDbEntity
8
0
62
5
6
ByLayer
100
AcDbText
1
CA01
10
167197.603
20
2546927.002
30
0
40
1
41
1
50
0
51
0
7
Standard
11
167197.603
21
2546927.002
31
0
210
0
220
0
230
1
72
0
100
AcDbText
73
0
0
TEXT
5
301
100
AcDbEntity
8
0
62
5
6
ByLayer
100
AcDbText
1
CA02
10
167308.412
20
2546958.963
30
0
40
1
41
1
50
0
51
0
7
Standard
11
167308.412
21
2546958.963
31
0
210
0
220
0
230
1
72
0
100
AcDbText
73
0
0
TEXT
5
302
100
AcDbEntity
8
0
62
5
6
ByLayer
100
AcDbText
1
CA05
10
167341.338
20
2546819.667
30
0
40
1
41
1
50
0
51
0
7
Standard
11
167341.338
21
2546819.667
31
0
210
0
220
0
230
1
72
0
100
AcDbText
73
0
0
TEXT
5
303
100
AcDbEntity
8
0
62
5
6
ByLayer
100
AcDbText
1
CA06
10
167375.032
20
2546704.096
30
0
40
1
41
1
50
0
51
0
7
Standard
11
167375.032
21
2546704.096
31
0
210
0
220
0
230
1
72
0
100
AcDbText
73
0
0
TEXT
5
304
100
AcDbEntity
8
0
62
5
6
ByLayer
100
AcDbText
1
CA10
10
167307.284
20
2546686.407
30
0
40
1
41
1
50
0
51
0
7
Standard
11
167307.284
21
2546686.407
31
0
210
0
220
0
230
1
72
0
100
AcDbText
73
0
0
TEXT
5
305
100
AcDbEntity
8
0
62
5
6
ByLayer
100
AcDbText
1
CA11
10
167319.129
20
2546571.311
30
0
40
1
41
1
50
0
51
0
7
Standard
11
167319.129
21
2546571.311
31
0
210
0
220
0
230
1
72
0
100
AcDbText
73
0
0
TEXT
5
306
100
AcDbEntity
8
0
62
5
6
ByLayer
100
AcDbText
1
CA16
10
167484.704
20
2546380.765
30
0
40
1
41
1
50
0
51
0
7
Standard
11
167484.704
21
2546380.765
31
0
210
0
220
0
230
1
72
0
100
AcDbText
73
0
0
TEXT
5
307
100
AcDbEntity
8
0
62
5
6
ByLayer
100
AcDbText
1
CA03
10
167397.287
20
2546987.668
30
0
40
1
41
1
50
0
51
0
7
Standard
11
167397.287
21
2546987.668
31
0
210
0
220
0
230
1
72
0
100
AcDbText
73
0
0
TEXT
5
308
100
AcDbEntity
8
0
62
5
6
ByLayer
100
AcDbText
1
CA15
10
167475.106
20
2547008.44
30
0
40
1
41
1
50
0
51
0
7
Standard
11
167475.106
21
2547008.44
31
0
210
0
220
0
230
1
72
0
100
AcDbText
73
0
0
TEXT
5
309
100
AcDbEntity
8
0
62
5
6
ByLayer
100
AcDbText
1
DA97
10
167670.512
20
2547064.503
30
0
40
1
41
1
50
0
51
0
7
Standard
11
167670.512
21
2547064.503
31
0
210
0
220
0
230
1
72
0
100
AcDbText
73
0
0
TEXT
5
30a
100
AcDbEntity
8
0
62
5
6
ByLayer
100
AcDbText
1
CA07
10
167437.423
20
2546847.812
30
0
40
1
41
1
50
0
51
0
7
Standard
11
167437.423
21
2546847.812
31
0
210
0
220
0
230
1
72
0
100
AcDbText
73
0
0
TEXT
5
30b
100
AcDbEntity
8
0
62
5
6
ByLayer
100
AcDbText
1
CA09
10
167514.552
20
2546870.434
30
0
40
1
41
1
50
0
51
0
7
Standard
11
167514.552
21
2546870.434
31
0
210
0
220
0
230
1
72
0
100
AcDbText
73
0
0
TEXT
5
30c
100
AcDbEntity
8
0
62
5
6
ByLayer
100
AcDbText
1
CA14
10
167494.959
20
2546937.55
30
0
40
1
41
1
50
0
51
0
7
Standard
11
167494.959
21
2546937.55
31
0
210
0
220
0
230
1
72
0
100
AcDbText
73
0
0
TEXT
5
30d
100
AcDbEntity
8
0
62
5
6
ByLayer
100
AcDbText
1
DA98
10
167684.252
20
2546999.452
30
0
40
1
41
1
50
0
51
0
7
Standard
11
167684.252
21
2546999.452
31
0
210
0
220
0
230
1
72
0
100
AcDbText
73
0
0
TEXT
5
30e
100
AcDbEntity
8
0
62
5
6
ByLayer
100
AcDbText
1
DA99
10
167766.252
20
2547017.183
30
0
40
1
41
1
50
0
51
0
7
Standard
11
167766.252
21
2547017.183
31
0
210
0
220
0
230
1
72
0
100
AcDbText
73
0
0
TEXT
5
30f
100
AcDbEntity
8
0
62
5
6
ByLayer
100
AcDbText
1
CA13
10
167665.127
20
2546914.799
30
0
40
1
41
1
50
0
51
0
7
Standard
11
167665.127
21
2546914.799
31
0
210
0
220
0
230
1
72
0
100
AcDbText
73
0
0
TEXT
5
310
100
AcDbEntity
8
0
62
5
6
ByLayer
100
AcDbText
1
PE31
10
167811.515
20
2546964.15
30
0
40
1
41
1
50
0
51
0
7
Standard
11
167811.515
21
2546964.15
31
0
210
0
220
0
230
1
72
0
100
AcDbText
73
0
0
TEXT
5
311
100
AcDbEntity
8
0
62
5
6
ByLayer
100
AcDbText
1
CA31
10
167907.143
20
2546973.621
30
0
40
1
41
1
50
0
51
0
7
Standard
11
167907.143
21
2546973.621
31
0
210
0
220
0
230
1
72
0
100
AcDbText
73
0
0
TEXT
5
312
100
AcDbEntity
8
0
62
5
6
ByLayer
100
AcDbText
1
CC27
10
167988.673
20
2547098.188
30
0
40
1
41
1
50
0
51
0
7
Standard
11
167988.673
21
2547098.188
31
0
210
0
220
0
230
1
72
0
100
AcDbText
73
0
0
TEXT
5
313
100
AcDbEntity
8
0
62
5
6
ByLayer
100
AcDbText
1
CA33
10
167684.359
20
2545971.385
30
0
40
1
41
1
50
0
51
0
7
Standard
11
167684.359
21
2545971.385
31
0
210
0
220
0
230
1
72
0
100
AcDbText
73
0
0
TEXT
5
314
100
AcDbEntity
8
0
62
5
6
ByLayer
100
AcDbText
1
CA34
10
167536.136
20
2545898.979
30
0
40
1
41
1
50
0
51
0
7
Standard
11
167536.136
21
2545898.979
31
0
210
0
220
0
230
1
72
0
100
AcDbText
73
0
0
TEXT
5
315
100
AcDbEntity
8
0
62
5
6
ByLayer
100
AcDbText
1
CA35
10
167462.739
20
2545898.842
30
0
40
1
41
1
50
0
51
0
7
Standard
11
167462.739
21
2545898.842
31
0
210
0
220
0
230
1
72
0
100
AcDbText
73
0
0
TEXT
5
316
100
AcDbEntity
8
0
62
5
6
ByLayer
100
AcDbText
1
CA37
10
167465.668
20
2545655.339
30
0
40
1
41
1
50
0
51
0
7
Standard
11
167465.668
21
2545655.339
31
0
210
0
220
0
230
1
72
0
100
AcDbText
73
0
0
TEXT
5
317
100
AcDbEntity
8
0
62
5
6
ByLayer
100
AcDbText
1
CA38
10
167394.354
20
2545903.377
30
0
40
1
41
1
50
0
51
0
7
Standard
11
167394.354
21
2545903.377
31
0
210
0
220
0
230
1
72
0
100
AcDbText
73
0
0
TEXT
5
318
100
AcDbEntity
8
0
62
5
6
ByLayer
100
AcDbText
1
CA39
10
167324.715
20
2545893.636
30
0
40
1
41
1
50
0
51
0
7
Standard
11
167324.715
21
2545893.636
31
0
210
0
220
0
230
1
72
0
100
AcDbText
73
0
0
TEXT
5
319
100
AcDbEntity
8
0
62
5
6
ByLayer
100
AcDbText
1
CA19
10
167652.698
20
2546379.744
30
0
40
1
41
1
50
0
51
0
7
Standard
11
167652.698
21
2546379.744
31
0
210
0
220
0
230
1
72
0
100
AcDbText
73
0
0
TEXT
5
31a
100
AcDbEntity
8
0
62
5
6
ByLayer
100
AcDbText
1
CA24
10
167637.605
20
2546441.816
30
0
40
1
41
1
50
0
51
0
7
Standard
11
167637.605
21
2546441.816
31
0
210
0
220
0
230
1
72
0
100
AcDbText
73
0
0
TEXT
5
31b
100
AcDbEntity
8
0
62
5
6
ByLayer
100
AcDbText
1
CA25
10
167713.809
20
2546732.674
30
0
40
1
41
1
50
0
51
0
7
Standard
11
167713.809
21
2546732.674
31
0
210
0
220
0
230
1
72
0
100
AcDbText
73
0
0
TEXT
5
31c
100
AcDbEntity
8
0
62
5
6
ByLayer
100
AcDbText
1
CA26
10
167771.386
20
2546746.082
30
0
40
1
41
1
50
0
51
0
7
Standard
11
167771.386
21
2546746.082
31
0
210
0
220
0
230
1
72
0
100
AcDbText
73
0
0
TEXT
5
31d
100
AcDbEntity
8
0
62
5
6
ByLayer
100
AcDbText
1
CA22
10
167698.103
20
2546795.655
30
0
40
1
41
1
50
0
51
0
7
Standard
11
167698.103
21
2546795.655
31
0
210
0
220
0
230
1
72
0
100
AcDbText
73
0
0
TEXT
5
31e
100
AcDbEntity
8
0
62
5
6
ByLayer
100
AcDbText
1
BA12
10
167891.689
20
2546513.596
30
0
40
1
41
1
50
0
51
0
7
Standard
11
167891.689
21
2546513.596
31
0
210
0
220
0
230
1
72
0
100
AcDbText
73
0
0
TEXT
5
31f
100
AcDbEntity
8
0
62
5
6
ByLayer
100
AcDbText
1
CA28
10
167913.82
20
2546646.896
30
0
40
1
41
1
50
0
51
0
7
Standard
11
167913.82
21
2546646.896
31
0
210
0
220
0
230
1
72
0
100
AcDbText
73
0
0
TEXT
5
320
100
AcDbEntity
8
0
62
5
6
ByLayer
100
AcDbText
1
CA27
10
167955.838
20
2546658.407
30
0
40
1
41
1
50
0
51
0
7
Standard
11
167955.838
21
2546658.407
31
0
210
0
220
0
230
1
72
0
100
AcDbText
73
0
0
TEXT
5
321
100
AcDbEntity
8
0
62
5
6
ByLayer
100
AcDbText
1
CA41
10
167983.779
20
2546726.692
30
0
40
1
41
1
50
0
51
0
7
Standard
11
167983.779
21
2546726.692
31
0
210
0
220
0
230
1
72
0
100
AcDbText
73
0
0
TEXT
5
322
100
AcDbEntity
8
0
62
5
6
ByLayer
100
AcDbText
1
PE25
10
168033.678
20
2546813.43
30
0
40
1
41
1
50
0
51
0
7
Standard
11
168033.678
21
2546813.43
31
0
210
0
220
0
230
1
72
0
100
AcDbText
73
0
0
TEXT
5
323
100
AcDbEntity
8
0
62
5
6
ByLayer
100
AcDbText
1
PE26
10
167924.01
20
2546872.799
30
0
40
1
41
1
50
0
51
0
7
Standard
11
167924.01
21
2546872.799
31
0
210
0
220
0
230
1
72
0
100
AcDbText
73
0
0
TEXT
5
324
100
AcDbEntity
8
0
62
5
6
ByLayer
100
AcDbText
1
CA44
10
168078.357
20
2546884.939
30
0
40
1
41
1
50
0
51
0
7
Standard
11
168078.357
21
2546884.939
31
0
210
0
220
0
230
1
72
0
100
AcDbText
73
0
0
TEXT
5
325
100
AcDbEntity
8
0
62
5
6
ByLayer
100
AcDbText
1
PE17
10
168115.543
20
2546960.32
30
0
40
1
41
1
50
0
51
0
7
Standard
11
168115.543
21
2546960.32
31
0
210
0
220
0
230
1
72
0
100
AcDbText
73
0
0
TEXT
5
326
100
AcDbEntity
8
0
62
5
6
ByLayer
100
AcDbText
1
CA46
10
168175.524
20
2547067.794
30
0
40
1
41
1
50
0
51
0
7
Standard
11
168175.524
21
2547067.794
31
0
210
0
220
0
230
1
72
0
100
AcDbText
73
0
0
TEXT
5
327
100
AcDbEntity
8
0
62
5
6
ByLayer
100
AcDbText
1
CA47
10
168221.709
20
2547041.557
30
0
40
1
41
1
50
0
51
0
7
Standard
11
168221.709
21
2547041.557
31
0
210
0
220
0
230
1
72
0
100
AcDbText
73
0
0
TEXT
5
328
100
AcDbEntity
8
0
62
5
6
ByLayer
100
AcDbText
1
KJ01
10
168097.814
20
2546216.456
30
0
40
1
41
1
50
0
51
0
7
Standard
11
168097.814
21
2546216.456
31
0
210
0
220
0
230
1
72
0
100
AcDbText
73
0
0
TEXT
5
329
100
AcDbEntity
8
0
62
5
6
ByLayer
100
AcDbText
1
PE05
10
168105.084
20
2546568.33
30
0
40
1
41
1
50
0
51
0
7
Standard
11
168105.084
21
2546568.33
31
0
210
0
220
0
230
1
72
0
100
AcDbText
73
0
0
TEXT
5
32a
100
AcDbEntity
8
0
62
5
6
ByLayer
100
AcDbText
1
CA51
10
168189.341
20
2546675.716
30
0
40
1
41
1
50
0
51
0
7
Standard
11
168189.341
21
2546675.716
31
0
210
0
220
0
230
1
72
0
100
AcDbText
73
0
0
TEXT
5
32b
100
AcDbEntity
8
0
62
5
6
ByLayer
100
AcDbText
1
CA52
10
168130.804
20
2546598.264
30
0
40
1
41
1
50
0
51
0
7
Standard
11
168130.804
21
2546598.264
31
0
210
0
220
0
230
1
72
0
100
AcDbText
73
0
0
TEXT
5
32c
100
AcDbEntity
8
0
62
5
6
ByLayer
100
AcDbText
1
CA53
10
168285.837
20
2546516.001
30
0
40
1
41
1
50
0
51
0
7
Standard
11
168285.837
21
2546516.001
31
0
210
0
220
0
230
1
72
0
100
AcDbText
73
0
0
TEXT
5
32d
100
AcDbEntity
8
0
62
5
6
ByLayer
100
AcDbText
1
CA54
10
168234.512
20
2546732.039
30
0
40
1
41
1
50
0
51
0
7
Standard
11
168234.512
21
2546732.039
31
0
210
0
220
0
230
1
72
0
100
AcDbText
73
0
0
TEXT
5
32e
100
AcDbEntity
8
0
62
5
6
ByLayer
100
AcDbText
1
PE09
10
168321.812
20
2546662.401
30
0
40
1
41
1
50
0
51
0
7
Standard
11
168321.812
21
2546662.401
31
0
210
0
220
0
230
1
72
0
100
AcDbText
73
0
0
TEXT
5
32f
100
AcDbEntity
8
0
62
5
6
ByLayer
100
AcDbText
1
CA55
10
168272.003
20
2546780.319
30
0
40
1
41
1
50
0
51
0
7
Standard
11
168272.003
21
2546780.319
31
0
210
0
220
0
230
1
72
0
100
AcDbText
73
0
0
TEXT
5
330
100
AcDbEntity
8
0
62
5
6
ByLayer
100
AcDbText
1
KJ05
10
168309.232
20
2546821.021
30
0
40
1
41
1
50
0
51
0
7
Standard
11
168309.232
21
2546821.021
31
0
210
0
220
0
230
1
72
0
100
AcDbText
73
0
0
TEXT
5
331
100
AcDbEntity
8
0
62
5
6
ByLayer
100
AcDbText
1
CA57
10
168409.881
20
2546954.19
30
0
40
1
41
1
50
0
51
0
7
Standard
11
168409.881
21
2546954.19
31
0
210
0
220
0
230
1
72
0
100
AcDbText
73
0
0
TEXT
5
332
100
AcDbEntity
8
0
62
5
6
ByLayer
100
AcDbText
1
CA56
10
168359.29
20
2546889.563
30
0
40
1
41
1
50
0
51
0
7
Standard
11
168359.29
21
2546889.563
31
0
210
0
220
0
230
1
72
0
100
AcDbText
73
0
0
TEXT
5
333
100
AcDbEntity
8
0
62
5
6
ByLayer
100
AcDbText
1
PE14
10
168395.432
20
2546871.25
30
0
40
1
41
1
50
0
51
0
7
Standard
11
168395.432
21
2546871.25
31
0
210
0
220
0
230
1
72
0
100
AcDbText
73
0
0
TEXT
5
334
100
AcDbEntity
8
0
62
5
6
ByLayer
100
AcDbText
1
CA58
10
168234.178
20
2546956.83
30
0
40
1
41
1
50
0
51
0
7
Standard
11
168234.178
21
2546956.83
31
0
210
0
220
0
230
1
72
0
100
AcDbText
73
0
0
TEXT
5
335
100
AcDbEntity
8
0
62
5
6
ByLayer
100
AcDbText
1
CA48
10
168271.782
20
2547018.281
30
0
40
1
41
1
50
0
51
0
7
Standard
11
168271.782
21
2547018.281
31
0
210
0
220
0
230
1
72
0
100
AcDbText
73
0
0
TEXT
5
336
100
AcDbEntity
8
0
62
5
6
ByLayer
100
AcDbText
1
CA59
10
167953.178
20
2545707.508
30
0
40
1
41
1
50
0
51
0
7
Standard
11
167953.178
21
2545707.508
31
0
210
0
220
0
230
1
72
0
100
AcDbText
73
0
0
TEXT
5
337
100
AcDbEntity
8
0
62
5
6
ByLayer
100
AcDbText
1
FD330
10
168059.758
20
2545652.979
30
0
40
1
41
1
50
0
51
0
7
Standard
11
168059.758
21
2545652.979
31
0
210
0
220
0
230
1
72
0
100
AcDbText
73
0
0
TEXT
5
338
100
AcDbEntity
8
0
62
5
6
ByLayer
100
AcDbText
1
CA61
10
168003.839
20
2545862.735
30
0
40
1
41
1
50
0
51
0
7
Standard
11
168003.839
21
2545862.735
31
0
210
0
220
0
230
1
72
0
100
AcDbText
73
0
0
TEXT
5
339
100
AcDbEntity
8
0
62
5
6
ByLayer
100
AcDbText
1
CA62
10
168024.2
20
2545769.333
30
0
40
1
41
1
50
0
51
0
7
Standard
11
168024.2
21
2545769.333
31
0
210
0
220
0
230
1
72
0
100
AcDbText
73
0
0
TEXT
5
33a
100
AcDbEntity
8
0
62
5
6
ByLayer
100
AcDbText
1
CA63
10
167898.764
20
2545887.578
30
0
40
1
41
1
50
0
51
0
7
Standard
11
167898.764
21
2545887.578
31
0
210
0
220
0
230
1
72
0
100
AcDbText
73
0
0
TEXT
5
33b
100
AcDbEntity
8
0
62
5
6
ByLayer
100
AcDbText
1
KJ10
10
167929.79
20
2545963.299
30
0
40
1
41
1
50
0
51
0
7
Standard
11
167929.79
21
2545963.299
31
0
210
0
220
0
230
1
72
0
100
AcDbText
73
0
0
TEXT
5
33c
100
AcDbEntity
8
0
62
5
6
ByLayer
100
AcDbText
1
CA64
10
167955.24
20
2546033.507
30
0
40
1
41
1
50
0
51
0
7
Standard
11
167955.24
21
2546033.507
31
0
210
0
220
0
230
1
72
0
100
AcDbText
73
0
0
TEXT
5
33d
100
AcDbEntity
8
0
62
5
6
ByLayer
100
AcDbText
1
CA36
10
167534.594
20
2545783.353
30
0
40
1
41
1
50
0
51
0
7
Standard
11
167534.594
21
2545783.353
31
0
210
0
220
0
230
1
72
0
100
AcDbText
73
0
0
TEXT
5
33e
100
AcDbEntity
8
0
62
5
6
ByLayer
100
AcDbText
1
CA67
10
167530.723
20
2545737.01
30
0
40
1
41
1
50
0
51
0
7
Standard
11
167530.723
21
2545737.01
31
0
210
0
220
0
230
1
72
0
100
AcDbText
73
0
0
TEXT
5
33f
100
AcDbEntity
8
0
62
5
6
ByLayer
100
AcDbText
1
PD70
10
167621.237
20
2545670.025
30
0
40
1
41
1
50
0
51
0
7
Standard
11
167621.237
21
2545670.025
31
0
210
0
220
0
230
1
72
0
100
AcDbText
73
0
0
TEXT
5
340
100
AcDbEntity
8
0
62
5
6
ByLayer
100
AcDbText
1
CA60
10
167445.442
20
2545626.699
30
0
40
1
41
1
50
0
51
0
7
Standard
11
167445.442
21
2545626.699
31
0
210
0
220
0
230
1
72
0
100
AcDbText
73
0
0
TEXT
5
341
100
AcDbEntity
8
0
62
5
6
ByLayer
100
AcDbText
1
PD68
10
167495.143
20
2545592.021
30
0
40
1
41
1
50
0
51
0
7
Standard
11
167495.143
21
2545592.021
31
0
210
0
220
0
230
1
72
0
100
AcDbText
73
0
0
TEXT
5
342
100
AcDbEntity
8
0
62
5
6
ByLayer
100
AcDbText
1
PA54
10
167388.075
20
2545435.134
30
0
40
1
41
1
50
0
51
0
7
Standard
11
167388.075
21
2545435.134
31
0
210
0
220
0
230
1
72
0
100
AcDbText
73
0
0
TEXT
5
343
100
AcDbEntity
8
0
62
5
6
ByLayer
100
AcDbText
1
CA69
10
167425.019
20
2545402.635
30
0
40
1
41
1
50
0
51
0
7
Standard
11
167425.019
21
2545402.635
31
0
210
0
220
0
230
1
72
0
100
AcDbText
73
0
0
TEXT
5
344
100
AcDbEntity
8
0
62
5
6
ByLayer
100
AcDbText
1
CA68
10
167306.757
20
2545435.572
30
0
40
1
41
1
50
0
51
0
7
Standard
11
167306.757
21
2545435.572
31
0
210
0
220
0
230
1
72
0
100
AcDbText
73
0
0
TEXT
5
345
100
AcDbEntity
8
0
62
5
6
ByLayer
100
AcDbText
1
KJ12
10
167420.633
20
2545583.086
30
0
40
1
41
1
50
0
51
0
7
Standard
11
167420.633
21
2545583.086
31
0
210
0
220
0
230
1
72
0
100
AcDbText
73
0
0
TEXT
5
346
100
AcDbEntity
8
0
62
5
6
ByLayer
100
AcDbText
1
CA70
10
167246.609
20
2545454.172
30
0
40
1
41
1
50
0
51
0
7
Standard
11
167246.609
21
2545454.172
31
0
210
0
220
0
230
1
72
0
100
AcDbText
73
0
0
TEXT
5
347
100
AcDbEntity
8
0
62
5
6
ByLayer
100
AcDbText
1
PA38
10
167362.891
20
2545377.553
30
0
40
1
41
1
50
0
51
0
7
Standard
11
167362.891
21
2545377.553
31
0
210
0
220
0
230
1
72
0
100
AcDbText
73
0
0
TEXT
5
348
100
AcDbEntity
8
0
62
5
6
ByLayer
100
AcDbText
1
PA30
10
167227.58
20
2545326.588
30
0
40
1
41
1
50
0
51
0
7
Standard
11
167227.58
21
2545326.588
31
0
210
0
220
0
230
1
72
0
100
AcDbText
73
0
0
TEXT
5
349
100
AcDbEntity
8
0
62
5
6
ByLayer
100
AcDbText
1
CA40
10
167329.094
20
2545709.452
30
0
40
1
41
1
50
0
51
0
7
Standard
11
167329.094
21
2545709.452
31
0
210
0
220
0
230
1
72
0
100
AcDbText
73
0
0
TEXT
5
34a
100
AcDbEntity
8
0
62
5
6
ByLayer
100
AcDbText
1
CA72
10
167242.791
20
2545708.943
30
0
40
1
41
1
50
0
51
0
7
Standard
11
167242.791
21
2545708.943
31
0
210
0
220
0
230
1
72
0
100
AcDbText
73
0
0
TEXT
5
34b
100
AcDbEntity
8
0
62
5
6
ByLayer
100
AcDbText
1
CA73
10
167242.747
20
2545641.204
30
0
40
1
41
1
50
0
51
0
7
Standard
11
167242.747
21
2545641.204
31
0
210
0
220
0
230
1
72
0
100
AcDbText
73
0
0
TEXT
5
34c
100
AcDbEntity
8
0
62
5
6
ByLayer
100
AcDbText
1
PD60
10
167394.045
20
2545644.334
30
0
40
1
41
1
50
0
51
0
7
Standard
11
167394.045
21
2545644.334
31
0
210
0
220
0
230
1
72
0
100
AcDbText
73
0
0
TEXT
5
34d
100
AcDbEntity
8
0
62
5
6
ByLayer
100
AcDbText
1
CA74
10
167240.868
20
2545569.594
30
0
40
1
41
1
50
0
51
0
7
Standard
11
167240.868
21
2545569.594
31
0
210
0
220
0
230
1
72
0
100
AcDbText
73
0
0
TEXT
5
34e
100
AcDbEntity
8
0
62
5
6
ByLayer
100
AcDbText
1
PD89
10
167583.492
20
2545534.447
30
0
40
1
41
1
50
0
51
0
7
Standard
11
167583.492
21
2545534.447
31
0
210
0
220
0
230
1
72
0
100
AcDbText
73
0
0
TEXT
5
34f
100
AcDbEntity
8
0
62
5
6
ByLayer
100
AcDbText
1
PD88
10
167630.138
20
2545497.219
30
0
40
1
41
1
50
0
51
0
7
Standard
11
167630.138
21
2545497.219
31
0
210
0
220
0
230
1
72
0
100
AcDbText
73
0
0
TEXT
5
350
100
AcDbEntity
8
0
62
5
6
ByLayer
100
AcDbText
1
CA76
10
167693.224
20
2545454.919
30
0
40
1
41
1
50
0
51
0
7
Standard
11
167693.224
21
2545454.919
31
0
210
0
220
0
230
1
72
0
100
AcDbText
73
0
0
TEXT
5
351
100
AcDbEntity
8
0
62
5
6
ByLayer
100
AcDbText
1
CA78
10
167777.104
20
2545417.729
30
0
40
1
41
1
50
0
51
0
7
Standard
11
167777.104
21
2545417.729
31
0
210
0
220
0
230
1
72
0
100
AcDbText
73
0
0
TEXT
5
352
100
AcDbEntity
8
0
62
5
6
ByLayer
100
AcDbText
1
CA77
10
167863.951
20
2545542.5
30
0
40
1
41
1
50
0
51
0
7
Standard
11
167863.951
21
2545542.5
31
0
210
0
220
0
230
1
72
0
100
AcDbText
73
0
0
TEXT
5
353
100
AcDbEntity
8
0
62
5
6
ByLayer
100
AcDbText
1
KJ15
10
167815.533
20
2545498.033
30
0
40
1
41
1
50
0
51
0
7
Standard
11
167815.533
21
2545498.033
31
0
210
0
220
0
230
1
72
0
100
AcDbText
73
0
0
TEXT
5
354
100
AcDbEntity
8
0
62
5
6
ByLayer
100
AcDbText
1
CA80
10
167894.598
20
2545651.042
30
0
40
1
41
1
50
0
51
0
7
Standard
11
167894.598
21
2545651.042
31
0
210
0
220
0
230
1
72
0
100
AcDbText
73
0
0
TEXT
5
355
100
AcDbEntity
8
0
62
5
6
ByLayer
100
AcDbText
1
CA82
10
167746.938
20
2545591.454
30
0
40
1
41
1
50
0
51
0
7
Standard
11
167746.938
21
2545591.454
31
0
210
0
220
0
230
1
72
0
100
AcDbText
73
0
0
TEXT
5
356
100
AcDbEntity
8
0
62
5
6
ByLayer
100
AcDbText
1
PD86
10
167695.581
20
2545513.104
30
0
40
1
41
1
50
0
51
0
7
Standard
11
167695.581
21
2545513.104
31
0
210
0
220
0
230
1
72
0
100
AcDbText
73
0
0
TEXT
5
357
100
AcDbEntity
8
0
62
5
6
ByLayer
100
AcDbText
1
CA79
10
167804.219
20
2545385.943
30
0
40
1
41
1
50
0
51
0
7
Standard
11
167804.219
21
2545385.943
31
0
210
0
220
0
230
1
72
0
100
AcDbText
73
0
0
TEXT
5
358
100
AcDbEntity
8
0
62
5
6
ByLayer
100
AcDbText
1
FD10
10
167903.84
20
2545440.796
30
0
40
1
41
1
50
0
51
0
7
Standard
11
167903.84
21
2545440.796
31
0
210
0
220
0
230
1
72
0
100
AcDbText
73
0
0
TEXT
5
359
100
AcDbEntity
8
0
62
5
6
ByLayer
100
AcDbText
1
PE11
10
168344.251
20
2546756.092
30
0
40
1
41
1
50
0
51
0
7
Standard
11
168344.251
21
2546756.092
31
0
210
0
220
0
230
1
72
0
100
AcDbText
73
0
0
TEXT
5
35a
100
AcDbEntity
8
0
62
5
6
ByLayer
100
AcDbText
1
CA83
10
168404.879
20
2546701.506
30
0
40
1
41
1
50
0
51
0
7
Standard
11
168404.879
21
2546701.506
31
0
210
0
220
0
230
1
72
0
100
AcDbText
73
0
0
TEXT
5
35b
100
AcDbEntity
8
0
62
5
6
ByLayer
100
AcDbText
1
FD103
10
168386.452
20
2546642.575
30
0
40
1
41
1
50
0
51
0
7
Standard
11
168386.452
21
2546642.575
31
0
210
0
220
0
230
1
72
0
100
AcDbText
73
0
0
TEXT
5
35c
100
AcDbEntity
8
0
62
5
6
ByLayer
100
AcDbText
1
FD102
10
168419.74
20
2546620.617
30
0
40
1
41
1
50
0
51
0
7
Standard
11
168419.74
21
2546620.617
31
0
210
0
220
0
230
1
72
0
100
AcDbText
73
0
0
TEXT
5
35d
100
AcDbEntity
8
0
62
5
6
ByLayer
100
AcDbText
1
FD22
10
168337.974
20
2546582.702
30
0
40
1
41
1
50
0
51
0
7
Standard
11
168337.974
21
2546582.702
31
0
210
0
220
0
230
1
72
0
100
AcDbText
73
0
0
TEXT
5
35e
100
AcDbEntity
8
0
62
5
6
ByLayer
100
AcDbText
1
FD106
10
168367.071
20
2546572.998
30
0
40
1
41
1
50
0
51
0
7
Standard
11
168367.071
21
2546572.998
31
0
210
0
220
0
230
1
72
0
100
AcDbText
73
0
0
TEXT
5
35f
100
AcDbEntity
8
0
62
5
6
ByLayer
100
AcDbText
1
CA65
10
168045.507
20
2545989.118
30
0
40
1
41
1
50
0
51
0
7
Standard
11
168045.507
21
2545989.118
31
0
210
0
220
0
230
1
72
0
100
AcDbText
73
0
0
TEXT
5
360
100
AcDbEntity
8
0
62
5
6
ByLayer
100
AcDbText
1
KJ21
10
168050.825
20
2545923.57
30
0
40
1
41
1
50
0
51
0
7
Standard
11
168050.825
21
2545923.57
31
0
210
0
220
0
230
1
72
0
100
AcDbText
73
0
0
TEXT
5
361
100
AcDbEntity
8
0
62
5
6
ByLayer
100
AcDbText
1
FD321
10
168109.323
20
2546089.949
30
0
40
1
41
1
50
0
51
0
7
Standard
11
168109.323
21
2546089.949
31
0
210
0
220
0
230
1
72
0
100
AcDbText
73
0
0
TEXT
5
362
100
AcDbEntity
8
0
62
5
6
ByLayer
100
AcDbText
1
CA85
10
168112.191
20
2546170.985
30
0
40
1
41
1
50
0
51
0
7
Standard
11
168112.191
21
2546170.985
31
0
210
0
220
0
230
1
72
0
100
AcDbText
73
0
0
TEXT
5
363
100
AcDbEntity
8
0
62
5
6
ByLayer
100
AcDbText
1
CA86
10
168159.311
20
2546243.645
30
0
40
1
41
1
50
0
51
0
7
Standard
11
168159.311
21
2546243.645
31
0
210
0
220
0
230
1
72
0
100
AcDbText
73
0
0
TEXT
5
364
100
AcDbEntity
8
0
62
5
6
ByLayer
100
AcDbText
1
FD142
10
168212.149
20
2546247.384
30
0
40
1
41
1
50
0
51
0
7
Standard
11
168212.149
21
2546247.384
31
0
210
0
220
0
230
1
72
0
100
AcDbText
73
0
0
TEXT
5
365
100
AcDbEntity
8
0
62
5
6
ByLayer
100
AcDbText
1
FD140
10
168170.675
20
2546275.507
30
0
40
1
41
1
50
0
51
0
7
Standard
11
168170.675
21
2546275.507
31
0
210
0
220
0
230
1
72
0
100
AcDbText
73
0
0
TEXT
5
366
100
AcDbEntity
8
0
62
5
6
ByLayer
100
AcDbText
1
CA87
10
168242.304
20
2546275.868
30
0
40
1
41
1
50
0
51
0
7
Standard
11
168242.304
21
2546275.868
31
0
210
0
220
0
230
1
72
0
100
AcDbText
73
0
0
TEXT
5
367
100
AcDbEntity
8
0
62
5
6
ByLayer
100
AcDbText
1
FD139
10
168189.419
20
2546331.822
30
0
40
1
41
1
50
0
51
0
7
Standard
11
168189.419
21
2546331.822
31
0
210
0
220
0
230
1
72
0
100
AcDbText
73
0
0
TEXT
5
368
100
AcDbEntity
8
0
62
5
6
ByLayer
100
AcDbText
1
CA84
10
168322.989
20
2546475.766
30
0
40
1
41
1
50
0
51
0
7
Standard
11
168322.989
21
2546475.766
31
0
210
0
220
0
230
1
72
0
100
AcDbText
73
0
0
TEXT
5
369
100
AcDbEntity
8
0
62
5
6
ByLayer
100
AcDbText
1
FD105
10
168387.942
20
2546560.014
30
0
40
1
41
1
50
0
51
0
7
Standard
11
168387.942
21
2546560.014
31
0
210
0
220
0
230
1
72
0
100
AcDbText
73
0
0
TEXT
5
36a
100
AcDbEntity
8
0
62
5
6
ByLayer
100
AcDbText
1
FD24
10
168378.832
20
2546431.486
30
0
40
1
41
1
50
0
51
0
7
Standard
11
168378.832
21
2546431.486
31
0
210
0
220
0
230
1
72
0
100
AcDbText
73
0
0
TEXT
5
36b
100
AcDbEntity
8
0
62
5
6
ByLayer
100
AcDbText
1
CA89
10
168459.417
20
2546385.499
30
0
40
1
41
1
50
0
51
0
7
Standard
11
168459.417
21
2546385.499
31
0
210
0
220
0
230
1
72
0
100
AcDbText
73
0
0
TEXT
5
36c
100
AcDbEntity
8
0
62
5
6
ByLayer
100
AcDbText
1
CA90
10
168496.077
20
2546361.023
30
0
40
1
41
1
50
0
51
0
7
Standard
11
168496.077
21
2546361.023
31
0
210
0
220
0
230
1
72
0
100
AcDbText
73
0
0
TEXT
5
36d
100
AcDbEntity
8
0
62
5
6
ByLayer
100
AcDbText
1
GB43
10
168489.429
20
2546506.194
30
0
40
1
41
1
50
0
51
0
7
Standard
11
168489.429
21
2546506.194
31
0
210
0
220
0
230
1
72
0
100
AcDbText
73
0
0
TEXT
5
36e
100
AcDbEntity
8
0
62
5
6
ByLayer
100
AcDbText
1
GB327
10
168479.648
20
2546603.822
30
0
40
1
41
1
50
0
51
0
7
Standard
11
168479.648
21
2546603.822
31
0
210
0
220
0
230
1
72
0
100
AcDbText
73
0
0
TEXT
5
36f
100
AcDbEntity
8
0
62
5
6
ByLayer
100
AcDbText
1
FD101
10
168434.974
20
2546602.959
30
0
40
1
41
1
50
0
51
0
7
Standard
11
168434.974
21
2546602.959
31
0
210
0
220
0
230
1
72
0
100
AcDbText
73
0
0
TEXT
5
370
100
AcDbEntity
8
0
62
5
6
ByLayer
100
AcDbText
1
GB326
10
168485.698
20
2546651.892
30
0
40
1
41
1
50
0
51
0
7
Standard
11
168485.698
21
2546651.892
31
0
210
0
220
0
230
1
72
0
100
AcDbText
73
0
0
TEXT
5
371
100
AcDbEntity
8
0
62
5
6
ByLayer
100
AcDbText
1
CA94
10
168704.648
20
2546149.185
30
0
40
1
41
1
50
0
51
0
7
Standard
11
168704.648
21
2546149.185
31
0
210
0
220
0
230
1
72
0
100
AcDbText
73
0
0
TEXT
5
372
100
AcDbEntity
8
0
62
5
6
ByLayer
100
AcDbText
1
GB250
10
168676.255
20
2546170.742
30
0
40
1
41
1
50
0
51
0
7
Standard
11
168676.255
21
2546170.742
31
0
210
0
220
0
230
1
72
0
100
AcDbText
73
0
0
TEXT
5
373
100
AcDbEntity
8
0
62
5
6
ByLayer
100
AcDbText
1
GB251
10
168652.124
20
2546174.529
30
0
40
1
41
1
50
0
51
0
7
Standard
11
168652.124
21
2546174.529
31
0
210
0
220
0
230
1
72
0
100
AcDbText
73
0
0
TEXT
5
374
100
AcDbEntity
8
0
62
5
6
ByLayer
100
AcDbText
1
CA95
10
168555.34
20
2546160.57
30
0
40
1
41
1
50
0
51
0
7
Standard
11
168555.34
21
2546160.57
31
0
210
0
220
0
230
1
72
0
100
AcDbText
73
0
0
TEXT
5
375
100
AcDbEntity
8
0
62
5
6
ByLayer
100
AcDbText
1
GB399
10
168497.96
20
2546162.186
30
0
40
1
41
1
50
0
51
0
7
Standard
11
168497.96
21
2546162.186
31
0
210
0
220
0
230
1
72
0
100
AcDbText
73
0
0
TEXT
5
376
100
AcDbEntity
8
0
62
5
6
ByLayer
100
AcDbText
1
GB400
10
168478.328
20
2546121.079
30
0
40
1
41
1
50
0
51
0
7
Standard
11
168478.328
21
2546121.079
31
0
210
0
220
0
230
1
72
0
100
AcDbText
73
0
0
TEXT
5
377
100
AcDbEntity
8
0
62
5
6
ByLayer
100
AcDbText
1
CD01
10
168402.457
20
2546204.076
30
0
40
1
41
1
50
0
51
0
7
Standard
11
168402.457
21
2546204.076
31
0
210
0
220
0
230
1
72
0
100
AcDbText
73
0
0
TEXT
5
378
100
AcDbEntity
8
0
62
5
6
ByLayer
100
AcDbText
1
CD02
10
168471.314
20
2546269.744
30
0
40
1
41
1
50
0
51
0
7
Standard
11
168471.314
21
2546269.744
31
0
210
0
220
0
230
1
72
0
100
AcDbText
73
0
0
TEXT
5
379
100
AcDbEntity
8
0
62
5
6
ByLayer
100
AcDbText
1
CD03
10
168507.402
20
2546350.991
30
0
40
1
41
1
50
0
51
0
7
Standard
11
168507.402
21
2546350.991
31
0
210
0
220
0
230
1
72
0
100
AcDbText
73
0
0
ENDSEC
0
SECTION
2
OBJECTS
0
DICTIONARY
5
a
100
AcDbDictionary
281
1
3
ACAD_GROUP
350
b
0
DICTIONARY
5
b
100
AcDbDictionary
281
1
0
ENDSEC
0
EOF
