999
Dxf file generated by netDxf, Copyright(C) 2012 Daniel Carvajal, Licensed under LGPL
0
SECTION
2
HEADER
9
$ACADVER
1
AC1015
9
$HANDSEED
5
18b
0
ENDSEC
0
SECTION
2
TABLES
0
TABLE
2
VPORT
5
1
100
AcDbSymbolTable
0
VPORT
5
64
100
AcDbSymbolTableRecord
100
AcDbViewportTableRecord
2
*Active
70
0
10
0
20
0
11
1
21
1
12
-1
22
1
13
0
23
0
14
0.5
24
0.5
15
10
25
10
16
0
26
0
36
1
17
0
27
0
37
0
0
ENDTAB
0
TABLE
2
LTYPE
5
2
100
AcDbSymbolTable
0
LTYPE
5
67
100
AcDbSymbolTableRecord
100
AcDbLinetypeTableRecord
70
0
2
Continuous
3
Solid line
72
65
73
0
40
0
0
LTYPE
5
68
100
AcDbSymbolTableRecord
100
AcDbLinetypeTableRecord
70
0
2
ByLayer
3

72
65
73
0
40
0
0
LTYPE
5
69
100
AcDbSymbolTableRecord
100
AcDbLinetypeTableRecord
70
0
2
ByBlock
3

72
65
73
0
40
0
0
ENDTAB
0
TABLE
2
LAYER
5
3
100
AcDbSymbolTable
0
LAYER
5
66
100
AcDbSymbolTableRecord
100
AcDbLayerTableRecord
70
0
2
0
62
7
6
Continuous
390
65
0
ENDTAB
0
TABLE
2
STYLE
5
4
100
AcDbSymbolTable
0
STYLE
5
6a
100
AcDbSymbolTableRecord
100
AcDbTextStyleTableRecord
2
Standard
3
simplex
70
0
71
0
40
0
41
1
42
0
50
0
0
ENDTAB
0
TABLE
2
VIEW
5
5
100
AcDbSymbolTable
0
ENDTAB
0
TABLE
2
UCS
5
6
100
AcDbSymbolTable
0
ENDTAB
0
TABLE
2
APPID
5
7
100
AcDbSymbolTable
0
APPID
5
71
100
AcDbSymbolTableRecord
100
AcDbRegAppTableRecord
2
ACAD
70
0
0
ENDTAB
0
TABLE
2
DIMSTYLE
5
8
100
AcDbSymbolTable
100
AcDbDimStyleTable
0
DIMSTYLE
105
72
100
AcDbSymbolTableRecord
100
AcDbDimStyleTableRecord
2
Standard
70
0
0
ENDTAB
0
TABLE
2
BLOCK_RECORD
5
9
100
AcDbSymbolTable
0
BLOCK_RECORD
5
6b
100
AcDbSymbolTableRecord
100
AcDbBlockTableRecord
2
*Model_Space
0
BLOCK_RECORD
5
6e
100
AcDbSymbolTableRecord
100
AcDbBlockTableRecord
2
*Paper_Space
0
ENDTAB
0
ENDSEC
0
SECTION
2
BLOCKS
0
BLOCK
5
6d
100
AcDbEntity
8
0
100
AcDbBlockBegin
2
*Model_Space
70
0
10
0
20
0
30
0
3
*Model_Space
0
ENDBLK
5
6c
100
AcDbEntity
8
0
100
AcDbBlockEnd
0
BLOCK
5
70
100
AcDbEntity
8
0
100
AcDbBlockBegin
2
*Paper_Space
70
0
10
0
20
0
30
0
3
*Paper_Space
0
ENDBLK
5
6f
100
AcDbEntity
8
0
100
AcDbBlockEnd
0
ENDSEC
0
SECTION
2
ENTITIES
0
CIRCLE
5
c1
100
AcDbEntity
8
0
62
256
6
ByLayer
100
AcDbCircle
10
249646.172
20
2748234.185
30
0
40
1
39
0
210
0
220
0
230
1
0
CIRCLE
5
c2
100
AcDbEntity
8
0
62
256
6
ByLayer
100
AcDbCircle
10
249645.191
20
2748234.731
30
0
40
1
39
0
210
0
220
0
230
1
0
CIRCLE
5
c3
100
AcDbEntity
8
0
62
256
6
ByLayer
100
AcDbCircle
10
249682.046
20
2748196.004
30
0
40
1
39
0
210
0
220
0
230
1
0
CIRCLE
5
c4
100
AcDbEntity
8
0
62
256
6
ByLayer
100
AcDbCircle
10
249693.848
20
2748187.832
30
0
40
1
39
0
210
0
220
0
230
1
0
CIRCLE
5
c5
100
AcDbEntity
8
0
62
256
6
ByLayer
100
AcDbCircle
10
249756.9
20
2748247.832
30
0
40
1
39
0
210
0
220
0
230
1
0
CIRCLE
5
c6
100
AcDbEntity
8
0
62
256
6
ByLayer
100
AcDbCircle
10
249752.578
20
2748250.954
30
0
40
1
39
0
210
0
220
0
230
1
0
CIRCLE
5
c7
100
AcDbEntity
8
0
62
256
6
ByLayer
100
AcDbCircle
10
249789.581
20
2748243.838
30
0
40
1
39
0
210
0
220
0
230
1
0
CIRCLE
5
c8
100
AcDbEntity
8
0
62
256
6
ByLayer
100
AcDbCircle
10
249787.999
20
2748238.119
30
0
40
1
39
0
210
0
220
0
230
1
0
CIRCLE
5
c9
100
AcDbEntity
8
0
62
256
6
ByLayer
100
AcDbCircle
10
249809.907
20
2748157.494
30
0
40
1
39
0
210
0
220
0
230
1
0
CIRCLE
5
ca
100
AcDbEntity
8
0
62
256
6
ByLayer
100
AcDbCircle
10
249807.825
20
2748159.76
30
0
40
1
39
0
210
0
220
0
230
1
0
CIRCLE
5
cb
100
AcDbEntity
8
0
62
256
6
ByLayer
100
AcDbCircle
10
249762.555
20
2748077.717
30
0
40
1
39
0
210
0
220
0
230
1
0
CIRCLE
5
cc
100
AcDbEntity
8
0
62
256
6
ByLayer
100
AcDbCircle
10
249763.794
20
2748083.026
30
0
40
1
39
0
210
0
220
0
230
1
0
CIRCLE
5
cd
100
AcDbEntity
8
0
62
256
6
ByLayer
100
AcDbCircle
10
250497.915
20
2747564.632
30
0
40
1
39
0
210
0
220
0
230
1
0
CIRCLE
5
ce
100
AcDbEntity
8
0
62
256
6
ByLayer
100
AcDbCircle
10
250507.003
20
2747538.613
30
0
40
1
39
0
210
0
220
0
230
1
0
CIRCLE
5
cf
100
AcDbEntity
8
0
62
256
6
ByLayer
100
AcDbCircle
10
250208.293
20
2746691.74
30
0
40
1
39
0
210
0
220
0
230
1
0
CIRCLE
5
d0
100
AcDbEntity
8
0
62
256
6
ByLayer
100
AcDbCircle
10
250199.826
20
2746693.118
30
0
40
1
39
0
210
0
220
0
230
1
0
CIRCLE
5
d1
100
AcDbEntity
8
0
62
256
6
ByLayer
100
AcDbCircle
10
249834.007
20
2748320.271
30
0
40
1
39
0
210
0
220
0
230
1
0
CIRCLE
5
d2
100
AcDbEntity
8
0
62
256
6
ByLayer
100
AcDbCircle
10
249835.754
20
2748323.437
30
0
40
1
39
0
210
0
220
0
230
1
0
CIRCLE
5
d3
100
AcDbEntity
8
0
62
256
6
ByLayer
100
AcDbCircle
10
249749.686
20
2748621.824
30
0
40
1
39
0
210
0
220
0
230
1
0
CIRCLE
5
d4
100
AcDbEntity
8
0
62
256
6
ByLayer
100
AcDbCircle
10
249745.581
20
2748625.007
30
0
40
1
39
0
210
0
220
0
230
1
0
CIRCLE
5
d5
100
AcDbEntity
8
0
62
256
6
ByLayer
100
AcDbCircle
10
250345.78
20
2748381.751
30
0
40
1
39
0
210
0
220
0
230
1
0
CIRCLE
5
d6
100
AcDbEntity
8
0
62
256
6
ByLayer
100
AcDbCircle
10
250347.05
20
2748383.678
30
0
40
1
39
0
210
0
220
0
230
1
0
CIRCLE
5
d7
100
AcDbEntity
8
0
62
256
6
ByLayer
100
AcDbCircle
10
250411.877
20
2747982.461
30
0
40
1
39
0
210
0
220
0
230
1
0
CIRCLE
5
d8
100
AcDbEntity
8
0
62
256
6
ByLayer
100
AcDbCircle
10
250410.766
20
2747964.014
30
0
40
1
39
0
210
0
220
0
230
1
0
CIRCLE
5
d9
100
AcDbEntity
8
0
62
256
6
ByLayer
100
AcDbCircle
10
249955.429
20
2746618.242
30
0
40
1
39
0
210
0
220
0
230
1
0
CIRCLE
5
da
100
AcDbEntity
8
0
62
256
6
ByLayer
100
AcDbCircle
10
249952.728
20
2746613.923
30
0
40
1
39
0
210
0
220
0
230
1
0
CIRCLE
5
db
100
AcDbEntity
8
0
62
256
6
ByLayer
100
AcDbCircle
10
250065.284
20
2746881.524
30
0
40
1
39
0
210
0
220
0
230
1
0
CIRCLE
5
dc
100
AcDbEntity
8
0
62
256
6
ByLayer
100
AcDbCircle
10
250067.611
20
2746880.499
30
0
40
1
39
0
210
0
220
0
230
1
0
CIRCLE
5
dd
100
AcDbEntity
8
0
62
256
6
ByLayer
100
AcDbCircle
10
249333.211
20
2746665.684
30
0
40
1
39
0
210
0
220
0
230
1
0
CIRCLE
5
de
100
AcDbEntity
8
0
62
256
6
ByLayer
100
AcDbCircle
10
249336.312
20
2746665.72
30
0
40
1
39
0
210
0
220
0
230
1
0
CIRCLE
5
df
100
AcDbEntity
8
0
62
256
6
ByLayer
100
AcDbCircle
10
249606.219
20
2747189.351
30
0
40
1
39
0
210
0
220
0
230
1
0
CIRCLE
5
e0
100
AcDbEntity
8
0
62
256
6
ByLayer
100
AcDbCircle
10
249608.351
20
2747190.919
30
0
40
1
39
0
210
0
220
0
230
1
0
CIRCLE
5
e1
100
AcDbEntity
8
0
62
256
6
ByLayer
100
AcDbCircle
10
249534.193
20
2747157.675
30
0
40
1
39
0
210
0
220
0
230
1
0
CIRCLE
5
e2
100
AcDbEntity
8
0
62
256
6
ByLayer
100
AcDbCircle
10
249535.599
20
2747155.143
30
0
40
1
39
0
210
0
220
0
230
1
0
CIRCLE
5
e3
100
AcDbEntity
8
0
62
256
6
ByLayer
100
AcDbCircle
10
249452.893
20
2747095.097
30
0
40
1
39
0
210
0
220
0
230
1
0
CIRCLE
5
e4
100
AcDbEntity
8
0
62
256
6
ByLayer
100
AcDbCircle
10
249456.025
20
2747095.647
30
0
40
1
39
0
210
0
220
0
230
1
0
CIRCLE
5
e5
100
AcDbEntity
8
0
62
256
6
ByLayer
100
AcDbCircle
10
250043.328
20
2748383.97
30
0
40
1
39
0
210
0
220
0
230
1
0
CIRCLE
5
e6
100
AcDbEntity
8
0
62
256
6
ByLayer
100
AcDbCircle
10
250047.411
20
2748389.056
30
0
40
1
39
0
210
0
220
0
230
1
0
CIRCLE
5
e7
100
AcDbEntity
8
0
62
256
6
ByLayer
100
AcDbCircle
10
250542.292
20
2747922.298
30
0
40
1
39
0
210
0
220
0
230
1
0
CIRCLE
5
e8
100
AcDbEntity
8
0
62
256
6
ByLayer
100
AcDbCircle
10
250517.219
20
2747912.172
30
0
40
1
39
0
210
0
220
0
230
1
0
CIRCLE
5
e9
100
AcDbEntity
8
0
62
256
6
ByLayer
100
AcDbCircle
10
249983.728
20
2748024.134
30
0
40
1
39
0
210
0
220
0
230
1
0
CIRCLE
5
ea
100
AcDbEntity
8
0
62
256
6
ByLayer
100
AcDbCircle
10
249985.939
20
2748022.14
30
0
40
1
39
0
210
0
220
0
230
1
0
CIRCLE
5
eb
100
AcDbEntity
8
0
62
256
6
ByLayer
100
AcDbCircle
10
250494.182
20
2747546.261
30
0
40
1
39
0
210
0
220
0
230
1
0
CIRCLE
5
ec
100
AcDbEntity
8
0
62
256
6
ByLayer
100
AcDbCircle
10
249743.742
20
2748628.346
30
0
40
1
39
0
210
0
220
0
230
1
0
CIRCLE
5
ed
100
AcDbEntity
8
0
62
256
6
ByLayer
100
AcDbCircle
10
250292.094
20
2748414.482
30
0
40
1
39
0
210
0
220
0
230
1
0
CIRCLE
5
ee
100
AcDbEntity
8
0
62
256
6
ByLayer
100
AcDbCircle
10
250260.372
20
2748432.908
30
0
40
1
39
0
210
0
220
0
230
1
0
CIRCLE
5
ef
100
AcDbEntity
8
0
62
256
6
ByLayer
100
AcDbCircle
10
250205.102
20
2748451.233
30
0
40
1
39
0
210
0
220
0
230
1
0
CIRCLE
5
f0
100
AcDbEntity
8
0
62
256
6
ByLayer
100
AcDbCircle
10
250174.23
20
2748415.659
30
0
40
1
39
0
210
0
220
0
230
1
0
CIRCLE
5
f1
100
AcDbEntity
8
0
62
256
6
ByLayer
100
AcDbCircle
10
250202.542
20
2748478.294
30
0
40
1
39
0
210
0
220
0
230
1
0
CIRCLE
5
f2
100
AcDbEntity
8
0
62
256
6
ByLayer
100
AcDbCircle
10
250170.907
20
2748377.969
30
0
40
1
39
0
210
0
220
0
230
1
0
CIRCLE
5
f3
100
AcDbEntity
8
0
62
256
6
ByLayer
100
AcDbCircle
10
250158.165
20
2748391.527
30
0
40
1
39
0
210
0
220
0
230
1
0
CIRCLE
5
f4
100
AcDbEntity
8
0
62
256
6
ByLayer
100
AcDbCircle
10
249838.013
20
2748630.3
30
0
40
1
39
0
210
0
220
0
230
1
0
CIRCLE
5
f5
100
AcDbEntity
8
0
62
256
6
ByLayer
100
AcDbCircle
10
249839.597
20
2748628.665
30
0
40
1
39
0
210
0
220
0
230
1
0
CIRCLE
5
f6
100
AcDbEntity
8
0
62
256
6
ByLayer
100
AcDbCircle
10
249893.024
20
2748628.77
30
0
40
1
39
0
210
0
220
0
230
1
0
CIRCLE
5
f7
100
AcDbEntity
8
0
62
256
6
ByLayer
100
AcDbCircle
10
249929.61
20
2748661.812
30
0
40
1
39
0
210
0
220
0
230
1
0
CIRCLE
5
f8
100
AcDbEntity
8
0
62
256
6
ByLayer
100
AcDbCircle
10
249767.921
20
2748724.033
30
0
40
1
39
0
210
0
220
0
230
1
0
CIRCLE
5
f9
100
AcDbEntity
8
0
62
256
6
ByLayer
100
AcDbCircle
10
249853.269
20
2748729.85
30
0
40
1
39
0
210
0
220
0
230
1
0
CIRCLE
5
fa
100
AcDbEntity
8
0
62
256
6
ByLayer
100
AcDbCircle
10
249839.385
20
2748597.978
30
0
40
1
39
0
210
0
220
0
230
1
0
CIRCLE
5
fb
100
AcDbEntity
8
0
62
256
6
ByLayer
100
AcDbCircle
10
249953.528
20
2748587.414
30
0
40
1
39
0
210
0
220
0
230
1
0
CIRCLE
5
fc
100
AcDbEntity
8
0
62
256
6
ByLayer
100
AcDbCircle
10
249803.929
20
2748647.978
30
0
40
1
39
0
210
0
220
0
230
1
0
CIRCLE
5
fd
100
AcDbEntity
8
0
62
256
6
ByLayer
100
AcDbCircle
10
249754.1
20
2748653.756
30
0
40
1
39
0
210
0
220
0
230
1
0
CIRCLE
5
fe
100
AcDbEntity
8
0
62
256
6
ByLayer
100
AcDbCircle
10
249810.107
20
2748297.798
30
0
40
1
39
0
210
0
220
0
230
1
0
CIRCLE
5
ff
100
AcDbEntity
8
0
62
256
6
ByLayer
100
AcDbCircle
10
249875.815
20
2748243.768
30
0
40
1
39
0
210
0
220
0
230
1
0
CIRCLE
5
100
100
AcDbEntity
8
0
62
256
6
ByLayer
100
AcDbCircle
10
249809.024
20
2748297.262
30
0
40
1
39
0
210
0
220
0
230
1
0
CIRCLE
5
101
100
AcDbEntity
8
0
62
256
6
ByLayer
100
AcDbCircle
10
249324.477
20
2746821.564
30
0
40
1
39
0
210
0
220
0
230
1
0
CIRCLE
5
102
100
AcDbEntity
8
0
62
256
6
ByLayer
100
AcDbCircle
10
249281.166
20
2746841.822
30
0
40
1
39
0
210
0
220
0
230
1
0
CIRCLE
5
103
100
AcDbEntity
8
0
62
256
6
ByLayer
100
AcDbCircle
10
250084.255
20
2748147.344
30
0
40
1
39
0
210
0
220
0
230
1
0
CIRCLE
5
104
100
AcDbEntity
8
0
62
256
6
ByLayer
100
AcDbCircle
10
250031.098
20
2748174.18
30
0
40
1
39
0
210
0
220
0
230
1
0
CIRCLE
5
105
100
AcDbEntity
8
0
62
256
6
ByLayer
100
AcDbCircle
10
249983.514
20
2748181.109
30
0
40
1
39
0
210
0
220
0
230
1
0
CIRCLE
5
106
100
AcDbEntity
8
0
62
256
6
ByLayer
100
AcDbCircle
10
249809.116
20
2748297.477
30
0
40
1
39
0
210
0
220
0
230
1
0
CIRCLE
5
107
100
AcDbEntity
8
0
62
256
6
ByLayer
100
AcDbCircle
10
249420.015
20
2746964.801
30
0
40
1
39
0
210
0
220
0
230
1
0
CIRCLE
5
108
100
AcDbEntity
8
0
62
256
6
ByLayer
100
AcDbCircle
10
249414.758
20
2747133.448
30
0
40
1
39
0
210
0
220
0
230
1
0
CIRCLE
5
109
100
AcDbEntity
8
0
62
256
6
ByLayer
100
AcDbCircle
10
249504.674
20
2747262.551
30
0
40
1
39
0
210
0
220
0
230
1
0
CIRCLE
5
10a
100
AcDbEntity
8
0
62
256
6
ByLayer
100
AcDbCircle
10
249365.683
20
2747213.676
30
0
40
1
39
0
210
0
220
0
230
1
0
CIRCLE
5
10b
100
AcDbEntity
8
0
62
256
6
ByLayer
100
AcDbCircle
10
249311.818
20
2747174.725
30
0
40
1
39
0
210
0
220
0
230
1
0
CIRCLE
5
10c
100
AcDbEntity
8
0
62
256
6
ByLayer
100
AcDbCircle
10
249257.821
20
2747128.461
30
0
40
1
39
0
210
0
220
0
230
1
0
CIRCLE
5
10d
100
AcDbEntity
8
0
62
256
6
ByLayer
100
AcDbCircle
10
249321.483
20
2746822.309
30
0
40
1
39
0
210
0
220
0
230
1
0
CIRCLE
5
10e
100
AcDbEntity
8
0
62
256
6
ByLayer
100
AcDbCircle
10
249233.124
20
2746934.665
30
0
40
1
39
0
210
0
220
0
230
1
0
CIRCLE
5
10f
100
AcDbEntity
8
0
62
256
6
ByLayer
100
AcDbCircle
10
249406.547
20
2746636.881
30
0
40
1
39
0
210
0
220
0
230
1
0
CIRCLE
5
110
100
AcDbEntity
8
0
62
256
6
ByLayer
100
AcDbCircle
10
249183.265
20
2746780
30
0
40
1
39
0
210
0
220
0
230
1
0
CIRCLE
5
111
100
AcDbEntity
8
0
62
256
6
ByLayer
100
AcDbCircle
10
249208.755
20
2746718.406
30
0
40
1
39
0
210
0
220
0
230
1
0
CIRCLE
5
112
100
AcDbEntity
8
0
62
256
6
ByLayer
100
AcDbCircle
10
250382.959
20
2748661.647
30
0
40
1
39
0
210
0
220
0
230
1
0
CIRCLE
5
113
100
AcDbEntity
8
0
62
256
6
ByLayer
100
AcDbCircle
10
250475.85
20
2748280.308
30
0
40
1
39
0
210
0
220
0
230
1
0
CIRCLE
5
114
100
AcDbEntity
8
0
62
256
6
ByLayer
100
AcDbCircle
10
250478.511
20
2748348.896
30
0
40
1
39
0
210
0
220
0
230
1
0
CIRCLE
5
115
100
AcDbEntity
8
0
62
256
6
ByLayer
100
AcDbCircle
10
249576.039
20
2748331.15
30
0
40
1
39
0
210
0
220
0
230
1
0
CIRCLE
5
116
100
AcDbEntity
8
0
62
256
6
ByLayer
100
AcDbCircle
10
249592.076
20
2748345.366
30
0
40
1
39
0
210
0
220
0
230
1
0
CIRCLE
5
117
100
AcDbEntity
8
0
62
256
6
ByLayer
100
AcDbCircle
10
249585.911
20
2748331.559
30
0
40
1
39
0
210
0
220
0
230
1
0
CIRCLE
5
118
100
AcDbEntity
8
0
62
256
6
ByLayer
100
AcDbCircle
10
250417.317
20
2746554.473
30
0
40
1
39
0
210
0
220
0
230
1
0
CIRCLE
5
119
100
AcDbEntity
8
0
62
256
6
ByLayer
100
AcDbCircle
10
250531.673
20
2746526.151
30
0
40
1
39
0
210
0
220
0
230
1
0
CIRCLE
5
11a
100
AcDbEntity
8
0
62
256
6
ByLayer
100
AcDbCircle
10
250599.611
20
2746474.026
30
0
40
1
39
0
210
0
220
0
230
1
0
CIRCLE
5
11b
100
AcDbEntity
8
0
62
256
6
ByLayer
100
AcDbCircle
10
249832.07
20
2748193.373
30
0
40
1
39
0
210
0
220
0
230
1
0
CIRCLE
5
11c
100
AcDbEntity
8
0
62
256
6
ByLayer
100
AcDbCircle
10
249946.044
20
2748219.86
30
0
40
1
39
0
210
0
220
0
230
1
0
CIRCLE
5
11d
100
AcDbEntity
8
0
62
256
6
ByLayer
100
AcDbCircle
10
250241.861
20
2747602.56
30
0
40
1
39
0
210
0
220
0
230
1
0
CIRCLE
5
11e
100
AcDbEntity
8
0
62
256
6
ByLayer
100
AcDbCircle
10
250292.003
20
2747789.668
30
0
40
1
39
0
210
0
220
0
230
1
0
CIRCLE
5
11f
100
AcDbEntity
8
0
62
256
6
ByLayer
100
AcDbCircle
10
250241.502
20
2747699.544
30
0
40
1
39
0
210
0
220
0
230
1
0
CIRCLE
5
120
100
AcDbEntity
8
0
62
256
6
ByLayer
100
AcDbCircle
10
250395.809
20
2747743.537
30
0
40
1
39
0
210
0
220
0
230
1
0
CIRCLE
5
121
100
AcDbEntity
8
0
62
256
6
ByLayer
100
AcDbCircle
10
249765.817
20
2746601.61
30
0
40
1
39
0
210
0
220
0
230
1
0
CIRCLE
5
122
100
AcDbEntity
8
0
62
256
6
ByLayer
100
AcDbCircle
10
249823.54
20
2746661.526
30
0
40
1
39
0
210
0
220
0
230
1
0
CIRCLE
5
123
100
AcDbEntity
8
0
62
256
6
ByLayer
100
AcDbCircle
10
249846.214
20
2746668.008
30
0
40
1
39
0
210
0
220
0
230
1
0
CIRCLE
5
124
100
AcDbEntity
8
0
62
256
6
ByLayer
100
AcDbCircle
10
250420.316
20
2747426.875
30
0
40
1
39
0
210
0
220
0
230
1
0
CIRCLE
5
125
100
AcDbEntity
8
0
62
256
6
ByLayer
100
AcDbCircle
10
250258.892
20
2747367.302
30
0
40
1
39
0
210
0
220
0
230
1
0
LINE
5
73
100
AcDbEntity
8
0
62
4
6
ByLayer
100
AcDbLine
10
249646.172
20
2748234.185
30
0
11
249645.191
21
2748234.731
31
0
39
0
210
0
220
0
230
1
0
LINE
5
74
100
AcDbEntity
8
0
62
4
6
ByLayer
100
AcDbLine
10
249682.046
20
2748196.004
30
0
11
249693.848
21
2748187.832
31
0
39
0
210
0
220
0
230
1
0
LINE
5
75
100
AcDbEntity
8
0
62
4
6
ByLayer
100
AcDbLine
10
249756.9
20
2748247.832
30
0
11
249752.578
21
2748250.954
31
0
39
0
210
0
220
0
230
1
0
LINE
5
76
100
AcDbEntity
8
0
62
4
6
ByLayer
100
AcDbLine
10
249789.581
20
2748243.838
30
0
11
249787.999
21
2748238.119
31
0
39
0
210
0
220
0
230
1
0
LINE
5
77
100
AcDbEntity
8
0
62
4
6
ByLayer
100
AcDbLine
10
249809.907
20
2748157.494
30
0
11
249807.825
21
2748159.76
31
0
39
0
210
0
220
0
230
1
0
LINE
5
78
100
AcDbEntity
8
0
62
4
6
ByLayer
100
AcDbLine
10
249762.555
20
2748077.717
30
0
11
249763.794
21
2748083.026
31
0
39
0
210
0
220
0
230
1
0
LINE
5
79
100
AcDbEntity
8
0
62
4
6
ByLayer
100
AcDbLine
10
250497.915
20
2747564.632
30
0
11
250507.003
21
2747538.613
31
0
39
0
210
0
220
0
230
1
0
LINE
5
7a
100
AcDbEntity
8
0
62
4
6
ByLayer
100
AcDbLine
10
250208.293
20
2746691.74
30
0
11
250199.826
21
2746693.118
31
0
39
0
210
0
220
0
230
1
0
LINE
5
7b
100
AcDbEntity
8
0
62
4
6
ByLayer
100
AcDbLine
10
249834.007
20
2748320.271
30
0
11
249835.754
21
2748323.437
31
0
39
0
210
0
220
0
230
1
0
LINE
5
7c
100
AcDbEntity
8
0
62
4
6
ByLayer
100
AcDbLine
10
249749.686
20
2748621.824
30
0
11
249745.581
21
2748625.007
31
0
39
0
210
0
220
0
230
1
0
LINE
5
7d
100
AcDbEntity
8
0
62
4
6
ByLayer
100
AcDbLine
10
250345.78
20
2748381.751
30
0
11
250347.05
21
2748383.678
31
0
39
0
210
0
220
0
230
1
0
LINE
5
7e
100
AcDbEntity
8
0
62
4
6
ByLayer
100
AcDbLine
10
250411.877
20
2747982.461
30
0
11
250410.766
21
2747964.014
31
0
39
0
210
0
220
0
230
1
0
LINE
5
7f
100
AcDbEntity
8
0
62
4
6
ByLayer
100
AcDbLine
10
249955.429
20
2746618.242
30
0
11
249952.728
21
2746613.923
31
0
39
0
210
0
220
0
230
1
0
LINE
5
80
100
AcDbEntity
8
0
62
4
6
ByLayer
100
AcDbLine
10
250065.284
20
2746881.524
30
0
11
250067.611
21
2746880.499
31
0
39
0
210
0
220
0
230
1
0
LINE
5
81
100
AcDbEntity
8
0
62
4
6
ByLayer
100
AcDbLine
10
249333.211
20
2746665.684
30
0
11
249336.312
21
2746665.72
31
0
39
0
210
0
220
0
230
1
0
LINE
5
82
100
AcDbEntity
8
0
62
4
6
ByLayer
100
AcDbLine
10
249606.219
20
2747189.351
30
0
11
249608.351
21
2747190.919
31
0
39
0
210
0
220
0
230
1
0
LINE
5
83
100
AcDbEntity
8
0
62
4
6
ByLayer
100
AcDbLine
10
249534.193
20
2747157.675
30
0
11
249535.599
21
2747155.143
31
0
39
0
210
0
220
0
230
1
0
LINE
5
84
100
AcDbEntity
8
0
62
4
6
ByLayer
100
AcDbLine
10
249452.893
20
2747095.097
30
0
11
249456.025
21
2747095.647
31
0
39
0
210
0
220
0
230
1
0
LINE
5
85
100
AcDbEntity
8
0
62
4
6
ByLayer
100
AcDbLine
10
250043.328
20
2748383.97
30
0
11
250047.411
21
2748389.056
31
0
39
0
210
0
220
0
230
1
0
LINE
5
86
100
AcDbEntity
8
0
62
4
6
ByLayer
100
AcDbLine
10
250542.292
20
2747922.298
30
0
11
250517.219
21
2747912.172
31
0
39
0
210
0
220
0
230
1
0
LINE
5
87
100
AcDbEntity
8
0
62
4
6
ByLayer
100
AcDbLine
10
249983.728
20
2748024.134
30
0
11
249985.939
21
2748022.14
31
0
39
0
210
0
220
0
230
1
0
LINE
5
88
100
AcDbEntity
8
0
62
4
6
ByLayer
100
AcDbLine
10
250494.182
20
2747546.261
30
0
11
250507.003
21
2747538.613
31
0
39
0
210
0
220
0
230
1
0
LINE
5
89
100
AcDbEntity
8
0
62
4
6
ByLayer
100
AcDbLine
10
249743.742
20
2748628.346
30
0
11
249745.581
21
2748625.007
31
0
39
0
210
0
220
0
230
1
0
LINE
5
8a
100
AcDbEntity
8
0
62
4
6
ByLayer
100
AcDbLine
10
250292.094
20
2748414.482
30
0
11
250260.372
21
2748432.908
31
0
39
0
210
0
220
0
230
1
0
LINE
5
8b
100
AcDbEntity
8
0
62
4
6
ByLayer
100
AcDbLine
10
250260.372
20
2748432.908
30
0
11
250205.102
21
2748451.233
31
0
39
0
210
0
220
0
230
1
0
LINE
5
8c
100
AcDbEntity
8
0
62
4
6
ByLayer
100
AcDbLine
10
250174.23
20
2748415.659
30
0
11
250205.102
21
2748451.233
31
0
39
0
210
0
220
0
230
1
0
LINE
5
8d
100
AcDbEntity
8
0
62
4
6
ByLayer
100
AcDbLine
10
250205.102
20
2748451.233
30
0
11
250202.542
21
2748478.294
31
0
39
0
210
0
220
0
230
1
0
LINE
5
8e
100
AcDbEntity
8
0
62
4
6
ByLayer
100
AcDbLine
10
250170.907
20
2748377.969
30
0
11
250158.165
21
2748391.527
31
0
39
0
210
0
220
0
230
1
0
LINE
5
8f
100
AcDbEntity
8
0
62
4
6
ByLayer
100
AcDbLine
10
250158.165
20
2748391.527
30
0
11
250174.23
21
2748415.659
31
0
39
0
210
0
220
0
230
1
0
LINE
5
90
100
AcDbEntity
8
0
62
4
6
ByLayer
100
AcDbLine
10
249838.013
20
2748630.3
30
0
11
249839.597
21
2748628.665
31
0
39
0
210
0
220
0
230
1
0
LINE
5
91
100
AcDbEntity
8
0
62
4
6
ByLayer
100
AcDbLine
10
249838.013
20
2748630.3
30
0
11
249893.024
21
2748628.77
31
0
39
0
210
0
220
0
230
1
0
LINE
5
92
100
AcDbEntity
8
0
62
4
6
ByLayer
100
AcDbLine
10
249893.024
20
2748628.77
30
0
11
249929.61
21
2748661.812
31
0
39
0
210
0
220
0
230
1
0
LINE
5
93
100
AcDbEntity
8
0
62
4
6
ByLayer
100
AcDbLine
10
249767.921
20
2748724.033
30
0
11
249853.269
21
2748729.85
31
0
39
0
210
0
220
0
230
1
0
LINE
5
94
100
AcDbEntity
8
0
62
4
6
ByLayer
100
AcDbLine
10
249853.269
20
2748729.85
30
0
11
249838.013
21
2748630.3
31
0
39
0
210
0
220
0
230
1
0
LINE
5
95
100
AcDbEntity
8
0
62
4
6
ByLayer
100
AcDbLine
10
249838.013
20
2748630.3
30
0
11
249839.385
21
2748597.978
31
0
39
0
210
0
220
0
230
1
0
LINE
5
96
100
AcDbEntity
8
0
62
4
6
ByLayer
100
AcDbLine
10
249839.385
20
2748597.978
30
0
11
249953.528
21
2748587.414
31
0
39
0
210
0
220
0
230
1
0
LINE
5
97
100
AcDbEntity
8
0
62
4
6
ByLayer
100
AcDbLine
10
249838.013
20
2748630.3
30
0
11
249803.929
21
2748647.978
31
0
39
0
210
0
220
0
230
1
0
LINE
5
98
100
AcDbEntity
8
0
62
4
6
ByLayer
100
AcDbLine
10
249803.929
20
2748647.978
30
0
11
249754.1
21
2748653.756
31
0
39
0
210
0
220
0
230
1
0
LINE
5
99
100
AcDbEntity
8
0
62
4
6
ByLayer
100
AcDbLine
10
249810.107
20
2748297.798
30
0
11
249875.815
21
2748243.768
31
0
39
0
210
0
220
0
230
1
0
LINE
5
9a
100
AcDbEntity
8
0
62
4
6
ByLayer
100
AcDbLine
10
249875.815
20
2748243.768
30
0
11
249809.024
21
2748297.262
31
0
39
0
210
0
220
0
230
1
0
LINE
5
9b
100
AcDbEntity
8
0
62
4
6
ByLayer
100
AcDbLine
10
249756.9
20
2748247.832
30
0
11
249789.581
21
2748243.838
31
0
39
0
210
0
220
0
230
1
0
LINE
5
9c
100
AcDbEntity
8
0
62
4
6
ByLayer
100
AcDbLine
10
249789.581
20
2748243.838
30
0
11
249809.024
21
2748297.262
31
0
39
0
210
0
220
0
230
1
0
LINE
5
9d
100
AcDbEntity
8
0
62
4
6
ByLayer
100
AcDbLine
10
249333.211
20
2746665.684
30
0
11
249324.477
21
2746821.564
31
0
39
0
210
0
220
0
230
1
0
LINE
5
9e
100
AcDbEntity
8
0
62
4
6
ByLayer
100
AcDbLine
10
249324.477
20
2746821.564
30
0
11
249281.166
21
2746841.822
31
0
39
0
210
0
220
0
230
1
0
LINE
5
9f
100
AcDbEntity
8
0
62
4
6
ByLayer
100
AcDbLine
10
250084.255
20
2748147.344
30
0
11
250031.098
21
2748174.18
31
0
39
0
210
0
220
0
230
1
0
LINE
5
a0
100
AcDbEntity
8
0
62
4
6
ByLayer
100
AcDbLine
10
250031.098
20
2748174.18
30
0
11
249983.514
21
2748181.109
31
0
39
0
210
0
220
0
230
1
0
LINE
5
a1
100
AcDbEntity
8
0
62
4
6
ByLayer
100
AcDbLine
10
249875.815
20
2748243.768
30
0
11
249809.116
21
2748297.477
31
0
39
0
210
0
220
0
230
1
0
LINE
5
a2
100
AcDbEntity
8
0
62
4
6
ByLayer
100
AcDbLine
10
249809.116
20
2748297.477
30
0
11
249787.999
21
2748238.119
31
0
39
0
210
0
220
0
230
1
0
LINE
5
a3
100
AcDbEntity
8
0
62
4
6
ByLayer
100
AcDbLine
10
249420.015
20
2746964.801
30
0
11
249414.758
21
2747133.448
31
0
39
0
210
0
220
0
230
1
0
LINE
5
a4
100
AcDbEntity
8
0
62
4
6
ByLayer
100
AcDbLine
10
249414.758
20
2747133.448
30
0
11
249456.025
21
2747095.647
31
0
39
0
210
0
220
0
230
1
0
LINE
5
a5
100
AcDbEntity
8
0
62
4
6
ByLayer
100
AcDbLine
10
249504.674
20
2747262.551
30
0
11
249365.683
21
2747213.676
31
0
39
0
210
0
220
0
230
1
0
LINE
5
a6
100
AcDbEntity
8
0
62
4
6
ByLayer
100
AcDbLine
10
249365.683
20
2747213.676
30
0
11
249414.758
21
2747133.448
31
0
39
0
210
0
220
0
230
1
0
LINE
5
a7
100
AcDbEntity
8
0
62
4
6
ByLayer
100
AcDbLine
10
249414.758
20
2747133.448
30
0
11
249311.818
21
2747174.725
31
0
39
0
210
0
220
0
230
1
0
LINE
5
a8
100
AcDbEntity
8
0
62
4
6
ByLayer
100
AcDbLine
10
249311.818
20
2747174.725
30
0
11
249257.821
21
2747128.461
31
0
39
0
210
0
220
0
230
1
0
LINE
5
a9
100
AcDbEntity
8
0
62
4
6
ByLayer
100
AcDbLine
10
249420.015
20
2746964.801
30
0
11
249452.893
21
2747095.097
31
0
39
0
210
0
220
0
230
1
0
LINE
5
aa
100
AcDbEntity
8
0
62
4
6
ByLayer
100
AcDbLine
10
249452.893
20
2747095.097
30
0
11
249414.758
21
2747133.448
31
0
39
0
210
0
220
0
230
1
0
LINE
5
ab
100
AcDbEntity
8
0
62
4
6
ByLayer
100
AcDbLine
10
249324.477
20
2746821.564
30
0
11
249321.483
21
2746822.309
31
0
39
0
210
0
220
0
230
1
0
LINE
5
ac
100
AcDbEntity
8
0
62
4
6
ByLayer
100
AcDbLine
10
249233.124
20
2746934.665
30
0
11
249281.166
21
2746841.822
31
0
39
0
210
0
220
0
230
1
0
LINE
5
ad
100
AcDbEntity
8
0
62
4
6
ByLayer
100
AcDbLine
10
249281.166
20
2746841.822
30
0
11
249321.483
21
2746822.309
31
0
39
0
210
0
220
0
230
1
0
LINE
5
ae
100
AcDbEntity
8
0
62
4
6
ByLayer
100
AcDbLine
10
249406.547
20
2746636.881
30
0
11
249333.211
21
2746665.684
31
0
39
0
210
0
220
0
230
1
0
LINE
5
af
100
AcDbEntity
8
0
62
4
6
ByLayer
100
AcDbLine
10
249333.211
20
2746665.684
30
0
11
249321.483
21
2746822.309
31
0
39
0
210
0
220
0
230
1
0
LINE
5
b0
100
AcDbEntity
8
0
62
4
6
ByLayer
100
AcDbLine
10
249321.483
20
2746822.309
30
0
11
249183.265
21
2746780
31
0
39
0
210
0
220
0
230
1
0
LINE
5
b1
100
AcDbEntity
8
0
62
4
6
ByLayer
100
AcDbLine
10
249183.265
20
2746780
30
0
11
249208.755
21
2746718.406
31
0
39
0
210
0
220
0
230
1
0
LINE
5
b2
100
AcDbEntity
8
0
62
4
6
ByLayer
100
AcDbLine
10
250382.959
20
2748661.647
30
0
11
250475.85
21
2748280.308
31
0
39
0
210
0
220
0
230
1
0
LINE
5
b3
100
AcDbEntity
8
0
62
4
6
ByLayer
100
AcDbLine
10
250475.85
20
2748280.308
30
0
11
250478.511
21
2748348.896
31
0
39
0
210
0
220
0
230
1
0
LINE
5
b4
100
AcDbEntity
8
0
62
4
6
ByLayer
100
AcDbLine
10
249576.039
20
2748331.15
30
0
11
249592.076
21
2748345.366
31
0
39
0
210
0
220
0
230
1
0
LINE
5
b5
100
AcDbEntity
8
0
62
4
6
ByLayer
100
AcDbLine
10
249592.076
20
2748345.366
30
0
11
249585.911
21
2748331.559
31
0
39
0
210
0
220
0
230
1
0
LINE
5
b6
100
AcDbEntity
8
0
62
4
6
ByLayer
100
AcDbLine
10
250417.317
20
2746554.473
30
0
11
250531.673
21
2746526.151
31
0
39
0
210
0
220
0
230
1
0
LINE
5
b7
100
AcDbEntity
8
0
62
4
6
ByLayer
100
AcDbLine
10
250531.673
20
2746526.151
30
0
11
250599.611
21
2746474.026
31
0
39
0
210
0
220
0
230
1
0
LINE
5
b8
100
AcDbEntity
8
0
62
4
6
ByLayer
100
AcDbLine
10
249832.07
20
2748193.373
30
0
11
249875.815
21
2748243.768
31
0
39
0
210
0
220
0
230
1
0
LINE
5
b9
100
AcDbEntity
8
0
62
4
6
ByLayer
100
AcDbLine
10
249875.815
20
2748243.768
30
0
11
249946.044
21
2748219.86
31
0
39
0
210
0
220
0
230
1
0
LINE
5
ba
100
AcDbEntity
8
0
62
4
6
ByLayer
100
AcDbLine
10
250241.861
20
2747602.56
30
0
11
250292.003
21
2747789.668
31
0
39
0
210
0
220
0
230
1
0
LINE
5
bb
100
AcDbEntity
8
0
62
4
6
ByLayer
100
AcDbLine
10
250292.003
20
2747789.668
30
0
11
250241.502
21
2747699.544
31
0
39
0
210
0
220
0
230
1
0
LINE
5
bc
100
AcDbEntity
8
0
62
4
6
ByLayer
100
AcDbLine
10
250241.861
20
2747602.56
30
0
11
250395.809
21
2747743.537
31
0
39
0
210
0
220
0
230
1
0
LINE
5
bd
100
AcDbEntity
8
0
62
4
6
ByLayer
100
AcDbLine
10
249765.817
20
2746601.61
30
0
11
249823.54
21
2746661.526
31
0
39
0
210
0
220
0
230
1
0
LINE
5
be
100
AcDbEntity
8
0
62
4
6
ByLayer
100
AcDbLine
10
249823.54
20
2746661.526
30
0
11
249846.214
21
2746668.008
31
0
39
0
210
0
220
0
230
1
0
LINE
5
bf
100
AcDbEntity
8
0
62
4
6
ByLayer
100
AcDbLine
10
250420.316
20
2747426.875
30
0
11
250241.861
21
2747602.56
31
0
39
0
210
0
220
0
230
1
0
LINE
5
c0
100
AcDbEntity
8
0
62
4
6
ByLayer
100
AcDbLine
10
250241.861
20
2747602.56
30
0
11
250258.892
21
2747367.302
31
0
39
0
210
0
220
0
230
1
0
TEXT
5
126
100
AcDbEntity
8
0
62
5
6
ByLayer
100
AcDbText
1
HT169
10
249647.172
20
2748233.685
30
0
40
1
41
1
50
0
51
0
7
Standard
11
249647.172
21
2748233.685
31
0
210
0
220
0
230
1
72
0
100
AcDbText
73
0
0
TEXT
5
127
100
AcDbEntity
8
0
62
5
6
ByLayer
100
AcDbText
1
QSN13
10
249646.191
20
2748234.231
30
0
40
1
41
1
50
0
51
0
7
Standard
11
249646.191
21
2748234.231
31
0
210
0
220
0
230
1
72
0
100
AcDbText
73
0
0
TEXT
5
128
100
AcDbEntity
8
0
62
5
6
ByLayer
100
AcDbText
1
HT168
10
249683.046
20
2748195.504
30
0
40
1
41
1
50
0
51
0
7
Standard
11
249683.046
21
2748195.504
31
0
210
0
220
0
230
1
72
0
100
AcDbText
73
0
0
TEXT
5
129
100
AcDbEntity
8
0
62
5
6
ByLayer
100
AcDbText
1
QSN14
10
249694.848
20
2748187.332
30
0
40
1
41
1
50
0
51
0
7
Standard
11
249694.848
21
2748187.332
31
0
210
0
220
0
230
1
72
0
100
AcDbText
73
0
0
TEXT
5
12a
100
AcDbEntity
8
0
62
5
6
ByLayer
100
AcDbText
1
HT165
10
249757.9
20
2748247.332
30
0
40
1
41
1
50
0
51
0
7
Standard
11
249757.9
21
2748247.332
31
0
210
0
220
0
230
1
72
0
100
AcDbText
73
0
0
TEXT
5
12b
100
AcDbEntity
8
0
62
5
6
ByLayer
100
AcDbText
1
HD148
10
249753.578
20
2748250.454
30
0
40
1
41
1
50
0
51
0
7
Standard
11
249753.578
21
2748250.454
31
0
210
0
220
0
230
1
72
0
100
AcDbText
73
0
0
TEXT
5
12c
100
AcDbEntity
8
0
62
5
6
ByLayer
100
AcDbText
1
HT166
10
249790.581
20
2748243.338
30
0
40
1
41
1
50
0
51
0
7
Standard
11
249790.581
21
2748243.338
31
0
210
0
220
0
230
1
72
0
100
AcDbText
73
0
0
TEXT
5
12d
100
AcDbEntity
8
0
62
5
6
ByLayer
100
AcDbText
1
HD149
10
249788.999
20
2748237.619
30
0
40
1
41
1
50
0
51
0
7
Standard
11
249788.999
21
2748237.619
31
0
210
0
220
0
230
1
72
0
100
AcDbText
73
0
0
TEXT
5
12e
100
AcDbEntity
8
0
62
5
6
ByLayer
100
AcDbText
1
HT187
10
249810.907
20
2748156.994
30
0
40
1
41
1
50
0
51
0
7
Standard
11
249810.907
21
2748156.994
31
0
210
0
220
0
230
1
72
0
100
AcDbText
73
0
0
TEXT
5
12f
100
AcDbEntity
8
0
62
5
6
ByLayer
100
AcDbText
1
QSN08
10
249808.825
20
2748159.26
30
0
40
1
41
1
50
0
51
0
7
Standard
11
249808.825
21
2748159.26
31
0
210
0
220
0
230
1
72
0
100
AcDbText
73
0
0
TEXT
5
130
100
AcDbEntity
8
0
62
5
6
ByLayer
100
AcDbText
1
HT221
10
249763.555
20
2748077.217
30
0
40
1
41
1
50
0
51
0
7
Standard
11
249763.555
21
2748077.217
31
0
210
0
220
0
230
1
72
0
100
AcDbText
73
0
0
TEXT
5
131
100
AcDbEntity
8
0
62
5
6
ByLayer
100
AcDbText
1
QSN10
10
249764.794
20
2748082.526
30
0
40
1
41
1
50
0
51
0
7
Standard
11
249764.794
21
2748082.526
31
0
210
0
220
0
230
1
72
0
100
AcDbText
73
0
0
TEXT
5
132
100
AcDbEntity
8
0
62
5
6
ByLayer
100
AcDbText
1
ZB043
10
250498.915
20
2747564.132
30
0
40
1
41
1
50
0
51
0
7
Standard
11
250498.915
21
2747564.132
31
0
210
0
220
0
230
1
72
0
100
AcDbText
73
0
0
TEXT
5
133
100
AcDbEntity
8
0
62
5
6
ByLayer
100
AcDbText
1
HD825
10
250508.003
20
2747538.113
30
0
40
1
41
1
50
0
51
0
7
Standard
11
250508.003
21
2747538.113
31
0
210
0
220
0
230
1
72
0
100
AcDbText
73
0
0
TEXT
5
134
100
AcDbEntity
8
0
62
5
6
ByLayer
100
AcDbText
1
HT401
10
250209.293
20
2746691.24
30
0
40
1
41
1
50
0
51
0
7
Standard
11
250209.293
21
2746691.24
31
0
210
0
220
0
230
1
72
0
100
AcDbText
73
0
0
TEXT
5
135
100
AcDbEntity
8
0
62
5
6
ByLayer
100
AcDbText
1
GF03
10
250200.826
20
2746692.618
30
0
40
1
41
1
50
0
51
0
7
Standard
11
250200.826
21
2746692.618
31
0
210
0
220
0
230
1
72
0
100
AcDbText
73
0
0
TEXT
5
136
100
AcDbEntity
8
0
62
5
6
ByLayer
100
AcDbText
1
QSB02
10
249835.007
20
2748319.771
30
0
40
1
41
1
50
0
51
0
7
Standard
11
249835.007
21
2748319.771
31
0
210
0
220
0
230
1
72
0
100
AcDbText
73
0
0
TEXT
5
137
100
AcDbEntity
8
0
62
5
6
ByLayer
100
AcDbText
1
HT155
10
249836.754
20
2748322.937
30
0
40
1
41
1
50
0
51
0
7
Standard
11
249836.754
21
2748322.937
31
0
210
0
220
0
230
1
72
0
100
AcDbText
73
0
0
TEXT
5
138
100
AcDbEntity
8
0
62
5
6
ByLayer
100
AcDbText
1
ZB020
10
249750.686
20
2748621.324
30
0
40
1
41
1
50
0
51
0
7
Standard
11
249750.686
21
2748621.324
31
0
210
0
220
0
230
1
72
0
100
AcDbText
73
0
0
TEXT
5
139
100
AcDbEntity
8
0
62
5
6
ByLayer
100
AcDbText
1
QSB06
10
249746.581
20
2748624.507
30
0
40
1
41
1
50
0
51
0
7
Standard
11
249746.581
21
2748624.507
31
0
210
0
220
0
230
1
72
0
100
AcDbText
73
0
0
TEXT
5
13a
100
AcDbEntity
8
0
62
5
6
ByLayer
100
AcDbText
1
QX1
10
250346.78
20
2748381.251
30
0
40
1
41
1
50
0
51
0
7
Standard
11
250346.78
21
2748381.251
31
0
210
0
220
0
230
1
72
0
100
AcDbText
73
0
0
TEXT
5
13b
100
AcDbEntity
8
0
62
5
6
ByLayer
100
AcDbText
1
HT106
10
250348.05
20
2748383.178
30
0
40
1
41
1
50
0
51
0
7
Standard
11
250348.05
21
2748383.178
31
0
210
0
220
0
230
1
72
0
100
AcDbText
73
0
0
TEXT
5
13c
100
AcDbEntity
8
0
62
5
6
ByLayer
100
AcDbText
1
HT200
10
250412.877
20
2747981.961
30
0
40
1
41
1
50
0
51
0
7
Standard
11
250412.877
21
2747981.961
31
0
210
0
220
0
230
1
72
0
100
AcDbText
73
0
0
TEXT
5
13d
100
AcDbEntity
8
0
62
5
6
ByLayer
100
AcDbText
1
1037
10
250411.766
20
2747963.514
30
0
40
1
41
1
50
0
51
0
7
Standard
11
250411.766
21
2747963.514
31
0
210
0
220
0
230
1
72
0
100
AcDbText
73
0
0
TEXT
5
13e
100
AcDbEntity
8
0
62
5
6
ByLayer
100
AcDbText
1
HT393
10
249956.429
20
2746617.742
30
0
40
1
41
1
50
0
51
0
7
Standard
11
249956.429
21
2746617.742
31
0
210
0
220
0
230
1
72
0
100
AcDbText
73
0
0
TEXT
5
13f
100
AcDbEntity
8
0
62
5
6
ByLayer
100
AcDbText
1
HJ285
10
249953.728
20
2746613.423
30
0
40
1
41
1
50
0
51
0
7
Standard
11
249953.728
21
2746613.423
31
0
210
0
220
0
230
1
72
0
100
AcDbText
73
0
0
TEXT
5
140
100
AcDbEntity
8
0
62
5
6
ByLayer
100
AcDbText
1
HT328
10
250066.284
20
2746881.024
30
0
40
1
41
1
50
0
51
0
7
Standard
11
250066.284
21
2746881.024
31
0
210
0
220
0
230
1
72
0
100
AcDbText
73
0
0
TEXT
5
141
100
AcDbEntity
8
0
62
5
6
ByLayer
100
AcDbText
1
HJ508
10
250068.611
20
2746879.999
30
0
40
1
41
1
50
0
51
0
7
Standard
11
250068.611
21
2746879.999
31
0
210
0
220
0
230
1
72
0
100
AcDbText
73
0
0
TEXT
5
142
100
AcDbEntity
8
0
62
5
6
ByLayer
100
AcDbText
1
HT359
10
249334.211
20
2746665.184
30
0
40
1
41
1
50
0
51
0
7
Standard
11
249334.211
21
2746665.184
31
0
210
0
220
0
230
1
72
0
100
AcDbText
73
0
0
TEXT
5
143
100
AcDbEntity
8
0
62
5
6
ByLayer
100
AcDbText
1
ZB063
10
249337.312
20
2746665.22
30
0
40
1
41
1
50
0
51
0
7
Standard
11
249337.312
21
2746665.22
31
0
210
0
220
0
230
1
72
0
100
AcDbText
73
0
0
TEXT
5
144
100
AcDbEntity
8
0
62
5
6
ByLayer
100
AcDbText
1
HJ250
10
249607.219
20
2747188.851
30
0
40
1
41
1
50
0
51
0
7
Standard
11
249607.219
21
2747188.851
31
0
210
0
220
0
230
1
72
0
100
AcDbText
73
0
0
TEXT
5
145
100
AcDbEntity
8
0
62
5
6
ByLayer
100
AcDbText
1
HT343
10
249609.351
20
2747190.419
30
0
40
1
41
1
50
0
51
0
7
Standard
11
249609.351
21
2747190.419
31
0
210
0
220
0
230
1
72
0
100
AcDbText
73
0
0
TEXT
5
146
100
AcDbEntity
8
0
62
5
6
ByLayer
100
AcDbText
1
HJ249
10
249535.193
20
2747157.175
30
0
40
1
41
1
50
0
51
0
7
Standard
11
249535.193
21
2747157.175
31
0
210
0
220
0
230
1
72
0
100
AcDbText
73
0
0
TEXT
5
147
100
AcDbEntity
8
0
62
5
6
ByLayer
100
AcDbText
1
HT342
10
249536.599
20
2747154.643
30
0
40
1
41
1
50
0
51
0
7
Standard
11
249536.599
21
2747154.643
31
0
210
0
220
0
230
1
72
0
100
AcDbText
73
0
0
TEXT
5
148
100
AcDbEntity
8
0
62
5
6
ByLayer
100
AcDbText
1
HJ247
10
249453.893
20
2747094.597
30
0
40
1
41
1
50
0
51
0
7
Standard
11
249453.893
21
2747094.597
31
0
210
0
220
0
230
1
72
0
100
AcDbText
73
0
0
TEXT
5
149
100
AcDbEntity
8
0
62
5
6
ByLayer
100
AcDbText
1
HT341
10
249457.025
20
2747095.147
30
0
40
1
41
1
50
0
51
0
7
Standard
11
249457.025
21
2747095.147
31
0
210
0
220
0
230
1
72
0
100
AcDbText
73
0
0
TEXT
5
14a
100
AcDbEntity
8
0
62
5
6
ByLayer
100
AcDbText
1
QSB15
10
250044.328
20
2748383.47
30
0
40
1
41
1
50
0
51
0
7
Standard
11
250044.328
21
2748383.47
31
0
210
0
220
0
230
1
72
0
100
AcDbText
73
0
0
TEXT
5
14b
100
AcDbEntity
8
0
62
5
6
ByLayer
100
AcDbText
1
HT141
10
250048.411
20
2748388.556
30
0
40
1
41
1
50
0
51
0
7
Standard
11
250048.411
21
2748388.556
31
0
210
0
220
0
230
1
72
0
100
AcDbText
73
0
0
TEXT
5
14c
100
AcDbEntity
8
0
62
5
6
ByLayer
100
AcDbText
1
HT202
10
250543.292
20
2747921.798
30
0
40
1
41
1
50
0
51
0
7
Standard
11
250543.292
21
2747921.798
31
0
210
0
220
0
230
1
72
0
100
AcDbText
73
0
0
TEXT
5
14d
100
AcDbEntity
8
0
62
5
6
ByLayer
100
AcDbText
1
ZB024
10
250518.219
20
2747911.672
30
0
40
1
41
1
50
0
51
0
7
Standard
11
250518.219
21
2747911.672
31
0
210
0
220
0
230
1
72
0
100
AcDbText
73
0
0
TEXT
5
14e
100
AcDbEntity
8
0
62
5
6
ByLayer
100
AcDbText
1
HD850
10
249984.728
20
2748023.634
30
0
40
1
41
1
50
0
51
0
7
Standard
11
249984.728
21
2748023.634
31
0
210
0
220
0
230
1
72
0
100
AcDbText
73
0
0
TEXT
5
14f
100
AcDbEntity
8
0
62
5
6
ByLayer
100
AcDbText
1
HT214
10
249986.939
20
2748021.64
30
0
40
1
41
1
50
0
51
0
7
Standard
11
249986.939
21
2748021.64
31
0
210
0
220
0
230
1
72
0
100
AcDbText
73
0
0
TEXT
5
150
100
AcDbEntity
8
0
62
5
6
ByLayer
100
AcDbText
1
HT271
10
250495.182
20
2747545.761
30
0
40
1
41
1
50
0
51
0
7
Standard
11
250495.182
21
2747545.761
31
0
210
0
220
0
230
1
72
0
100
AcDbText
73
0
0
TEXT
5
151
100
AcDbEntity
8
0
62
5
6
ByLayer
100
AcDbText
1
HT029
10
249744.742
20
2748627.846
30
0
40
1
41
1
50
0
51
0
7
Standard
11
249744.742
21
2748627.846
31
0
210
0
220
0
230
1
72
0
100
AcDbText
73
0
0
TEXT
5
152
100
AcDbEntity
8
0
62
5
6
ByLayer
100
AcDbText
1
QSB09
10
250293.094
20
2748413.982
30
0
40
1
41
1
50
0
51
0
7
Standard
11
250293.094
21
2748413.982
31
0
210
0
220
0
230
1
72
0
100
AcDbText
73
0
0
TEXT
5
153
100
AcDbEntity
8
0
62
5
6
ByLayer
100
AcDbText
1
HT104
10
250261.372
20
2748432.408
30
0
40
1
41
1
50
0
51
0
7
Standard
11
250261.372
21
2748432.408
31
0
210
0
220
0
230
1
72
0
100
AcDbText
73
0
0
TEXT
5
154
100
AcDbEntity
8
0
62
5
6
ByLayer
100
AcDbText
1
HT103
10
250206.102
20
2748450.733
30
0
40
1
41
1
50
0
51
0
7
Standard
11
250206.102
21
2748450.733
31
0
210
0
220
0
230
1
72
0
100
AcDbText
73
0
0
TEXT
5
155
100
AcDbEntity
8
0
62
5
6
ByLayer
100
AcDbText
1
HT102
10
250175.23
20
2748415.159
30
0
40
1
41
1
50
0
51
0
7
Standard
11
250175.23
21
2748415.159
31
0
210
0
220
0
230
1
72
0
100
AcDbText
73
0
0
TEXT
5
156
100
AcDbEntity
8
0
62
5
6
ByLayer
100
AcDbText
1
HT119
10
250203.542
20
2748477.794
30
0
40
1
41
1
50
0
51
0
7
Standard
11
250203.542
21
2748477.794
31
0
210
0
220
0
230
1
72
0
100
AcDbText
73
0
0
TEXT
5
157
100
AcDbEntity
8
0
62
5
6
ByLayer
100
AcDbText
1
HT100
10
250171.907
20
2748377.469
30
0
40
1
41
1
50
0
51
0
7
Standard
11
250171.907
21
2748377.469
31
0
210
0
220
0
230
1
72
0
100
AcDbText
73
0
0
TEXT
5
158
100
AcDbEntity
8
0
62
5
6
ByLayer
100
AcDbText
1
HT101
10
250159.165
20
2748391.027
30
0
40
1
41
1
50
0
51
0
7
Standard
11
250159.165
21
2748391.027
31
0
210
0
220
0
230
1
72
0
100
AcDbText
73
0
0
TEXT
5
159
100
AcDbEntity
8
0
62
5
6
ByLayer
100
AcDbText
1
HT027
10
249839.013
20
2748629.8
30
0
40
1
41
1
50
0
51
0
7
Standard
11
249839.013
21
2748629.8
31
0
210
0
220
0
230
1
72
0
100
AcDbText
73
0
0
TEXT
5
15a
100
AcDbEntity
8
0
62
5
6
ByLayer
100
AcDbText
1
HT452
10
249840.597
20
2748628.165
30
0
40
1
41
1
50
0
51
0
7
Standard
11
249840.597
21
2748628.165
31
0
210
0
220
0
230
1
72
0
100
AcDbText
73
0
0
TEXT
5
15b
100
AcDbEntity
8
0
62
5
6
ByLayer
100
AcDbText
1
HT046
10
249894.024
20
2748628.27
30
0
40
1
41
1
50
0
51
0
7
Standard
11
249894.024
21
2748628.27
31
0
210
0
220
0
230
1
72
0
100
AcDbText
73
0
0
TEXT
5
15c
100
AcDbEntity
8
0
62
5
6
ByLayer
100
AcDbText
1
HT047
10
249930.61
20
2748661.312
30
0
40
1
41
1
50
0
51
0
7
Standard
11
249930.61
21
2748661.312
31
0
210
0
220
0
230
1
72
0
100
AcDbText
73
0
0
TEXT
5
15d
100
AcDbEntity
8
0
62
5
6
ByLayer
100
AcDbText
1
HT025
10
249768.921
20
2748723.533
30
0
40
1
41
1
50
0
51
0
7
Standard
11
249768.921
21
2748723.533
31
0
210
0
220
0
230
1
72
0
100
AcDbText
73
0
0
TEXT
5
15e
100
AcDbEntity
8
0
62
5
6
ByLayer
100
AcDbText
1
HT026
10
249854.269
20
2748729.35
30
0
40
1
41
1
50
0
51
0
7
Standard
11
249854.269
21
2748729.35
31
0
210
0
220
0
230
1
72
0
100
AcDbText
73
0
0
TEXT
5
15f
100
AcDbEntity
8
0
62
5
6
ByLayer
100
AcDbText
1
HT045
10
249840.385
20
2748597.478
30
0
40
1
41
1
50
0
51
0
7
Standard
11
249840.385
21
2748597.478
31
0
210
0
220
0
230
1
72
0
100
AcDbText
73
0
0
TEXT
5
160
100
AcDbEntity
8
0
62
5
6
ByLayer
100
AcDbText
1
HT129
10
249954.528
20
2748586.914
30
0
40
1
41
1
50
0
51
0
7
Standard
11
249954.528
21
2748586.914
31
0
210
0
220
0
230
1
72
0
100
AcDbText
73
0
0
TEXT
5
161
100
AcDbEntity
8
0
62
5
6
ByLayer
100
AcDbText
1
HT028
10
249804.929
20
2748647.478
30
0
40
1
41
1
50
0
51
0
7
Standard
11
249804.929
21
2748647.478
31
0
210
0
220
0
230
1
72
0
100
AcDbText
73
0
0
TEXT
5
162
100
AcDbEntity
8
0
62
5
6
ByLayer
100
AcDbText
1
HT451
10
249755.1
20
2748653.256
30
0
40
1
41
1
50
0
51
0
7
Standard
11
249755.1
21
2748653.256
31
0
210
0
220
0
230
1
72
0
100
AcDbText
73
0
0
TEXT
5
163
100
AcDbEntity
8
0
62
5
6
ByLayer
100
AcDbText
1
HT154
10
249811.107
20
2748297.298
30
0
40
1
41
1
50
0
51
0
7
Standard
11
249811.107
21
2748297.298
31
0
210
0
220
0
230
1
72
0
100
AcDbText
73
0
0
TEXT
5
164
100
AcDbEntity
8
0
62
5
6
ByLayer
100
AcDbText
1
HT152
10
249876.815
20
2748243.268
30
0
40
1
41
1
50
0
51
0
7
Standard
11
249876.815
21
2748243.268
31
0
210
0
220
0
230
1
72
0
100
AcDbText
73
0
0
TEXT
5
165
100
AcDbEntity
8
0
62
5
6
ByLayer
100
AcDbText
1
HT456
10
249810.024
20
2748296.762
30
0
40
1
41
1
50
0
51
0
7
Standard
11
249810.024
21
2748296.762
31
0
210
0
220
0
230
1
72
0
100
AcDbText
73
0
0
TEXT
5
166
100
AcDbEntity
8
0
62
5
6
ByLayer
100
AcDbText
1
HT354
10
249325.477
20
2746821.064
30
0
40
1
41
1
50
0
51
0
7
Standard
11
249325.477
21
2746821.064
31
0
210
0
220
0
230
1
72
0
100
AcDbText
73
0
0
TEXT
5
167
100
AcDbEntity
8
0
62
5
6
ByLayer
100
AcDbText
1
HT351
10
249282.166
20
2746841.322
30
0
40
1
41
1
50
0
51
0
7
Standard
11
249282.166
21
2746841.322
31
0
210
0
220
0
230
1
72
0
100
AcDbText
73
0
0
TEXT
5
168
100
AcDbEntity
8
0
62
5
6
ByLayer
100
AcDbText
1
HT148
10
250085.255
20
2748146.844
30
0
40
1
41
1
50
0
51
0
7
Standard
11
250085.255
21
2748146.844
31
0
210
0
220
0
230
1
72
0
100
AcDbText
73
0
0
TEXT
5
169
100
AcDbEntity
8
0
62
5
6
ByLayer
100
AcDbText
1
HT149
10
250032.098
20
2748173.68
30
0
40
1
41
1
50
0
51
0
7
Standard
11
250032.098
21
2748173.68
31
0
210
0
220
0
230
1
72
0
100
AcDbText
73
0
0
TEXT
5
16a
100
AcDbEntity
8
0
62
5
6
ByLayer
100
AcDbText
1
HT150
10
249984.514
20
2748180.609
30
0
40
1
41
1
50
0
51
0
7
Standard
11
249984.514
21
2748180.609
31
0
210
0
220
0
230
1
72
0
100
AcDbText
73
0
0
TEXT
5
16b
100
AcDbEntity
8
0
62
5
6
ByLayer
100
AcDbText
1
QSB01
10
249810.116
20
2748296.977
30
0
40
1
41
1
50
0
51
0
7
Standard
11
249810.116
21
2748296.977
31
0
210
0
220
0
230
1
72
0
100
AcDbText
73
0
0
TEXT
5
16c
100
AcDbEntity
8
0
62
5
6
ByLayer
100
AcDbText
1
HT339
10
249421.015
20
2746964.301
30
0
40
1
41
1
50
0
51
0
7
Standard
11
249421.015
21
2746964.301
31
0
210
0
220
0
230
1
72
0
100
AcDbText
73
0
0
TEXT
5
16d
100
AcDbEntity
8
0
62
5
6
ByLayer
100
AcDbText
1
HT340
10
249415.758
20
2747132.948
30
0
40
1
41
1
50
0
51
0
7
Standard
11
249415.758
21
2747132.948
31
0
210
0
220
0
230
1
72
0
100
AcDbText
73
0
0
TEXT
5
16e
100
AcDbEntity
8
0
62
5
6
ByLayer
100
AcDbText
1
HT300
10
249505.674
20
2747262.051
30
0
40
1
41
1
50
0
51
0
7
Standard
11
249505.674
21
2747262.051
31
0
210
0
220
0
230
1
72
0
100
AcDbText
73
0
0
TEXT
5
16f
100
AcDbEntity
8
0
62
5
6
ByLayer
100
AcDbText
1
HT301
10
249366.683
20
2747213.176
30
0
40
1
41
1
50
0
51
0
7
Standard
11
249366.683
21
2747213.176
31
0
210
0
220
0
230
1
72
0
100
AcDbText
73
0
0
TEXT
5
170
100
AcDbEntity
8
0
62
5
6
ByLayer
100
AcDbText
1
HT302
10
249312.818
20
2747174.225
30
0
40
1
41
1
50
0
51
0
7
Standard
11
249312.818
21
2747174.225
31
0
210
0
220
0
230
1
72
0
100
AcDbText
73
0
0
TEXT
5
171
100
AcDbEntity
8
0
62
5
6
ByLayer
100
AcDbText
1
HT303
10
249258.821
20
2747127.961
30
0
40
1
41
1
50
0
51
0
7
Standard
11
249258.821
21
2747127.961
31
0
210
0
220
0
230
1
72
0
100
AcDbText
73
0
0
TEXT
5
172
100
AcDbEntity
8
0
62
5
6
ByLayer
100
AcDbText
1
Q388_2
10
249322.483
20
2746821.809
30
0
40
1
41
1
50
0
51
0
7
Standard
11
249322.483
21
2746821.809
31
0
210
0
220
0
230
1
72
0
100
AcDbText
73
0
0
TEXT
5
173
100
AcDbEntity
8
0
62
5
6
ByLayer
100
AcDbText
1
HT347
10
249234.124
20
2746934.165
30
0
40
1
41
1
50
0
51
0
7
Standard
11
249234.124
21
2746934.165
31
0
210
0
220
0
230
1
72
0
100
AcDbText
73
0
0
TEXT
5
174
100
AcDbEntity
8
0
62
5
6
ByLayer
100
AcDbText
1
HT358
10
249407.547
20
2746636.381
30
0
40
1
41
1
50
0
51
0
7
Standard
11
249407.547
21
2746636.381
31
0
210
0
220
0
230
1
72
0
100
AcDbText
73
0
0
TEXT
5
175
100
AcDbEntity
8
0
62
5
6
ByLayer
100
AcDbText
1
HT457
10
249184.265
20
2746779.5
30
0
40
1
41
1
50
0
51
0
7
Standard
11
249184.265
21
2746779.5
31
0
210
0
220
0
230
1
72
0
100
AcDbText
73
0
0
TEXT
5
176
100
AcDbEntity
8
0
62
5
6
ByLayer
100
AcDbText
1
HT361
10
249209.755
20
2746717.906
30
0
40
1
41
1
50
0
51
0
7
Standard
11
249209.755
21
2746717.906
31
0
210
0
220
0
230
1
72
0
100
AcDbText
73
0
0
TEXT
5
177
100
AcDbEntity
8
0
62
5
6
ByLayer
100
AcDbText
1
HT071
10
250383.959
20
2748661.147
30
0
40
1
41
1
50
0
51
0
7
Standard
11
250383.959
21
2748661.147
31
0
210
0
220
0
230
1
72
0
100
AcDbText
73
0
0
TEXT
5
178
100
AcDbEntity
8
0
62
5
6
ByLayer
100
AcDbText
1
BD002
10
250476.85
20
2748279.808
30
0
40
1
41
1
50
0
51
0
7
Standard
11
250476.85
21
2748279.808
31
0
210
0
220
0
230
1
72
0
100
AcDbText
73
0
0
TEXT
5
179
100
AcDbEntity
8
0
62
5
6
ByLayer
100
AcDbText
1
HT090
10
250479.511
20
2748348.396
30
0
40
1
41
1
50
0
51
0
7
Standard
11
250479.511
21
2748348.396
31
0
210
0
220
0
230
1
72
0
100
AcDbText
73
0
0
TEXT
5
17a
100
AcDbEntity
8
0
62
5
6
ByLayer
100
AcDbText
1
HT171
10
249577.039
20
2748330.65
30
0
40
1
41
1
50
0
51
0
7
Standard
11
249577.039
21
2748330.65
31
0
210
0
220
0
230
1
72
0
100
AcDbText
73
0
0
TEXT
5
17b
100
AcDbEntity
8
0
62
5
6
ByLayer
100
AcDbText
1
HT172
10
249593.076
20
2748344.866
30
0
40
1
41
1
50
0
51
0
7
Standard
11
249593.076
21
2748344.866
31
0
210
0
220
0
230
1
72
0
100
AcDbText
73
0
0
TEXT
5
17c
100
AcDbEntity
8
0
62
5
6
ByLayer
100
AcDbText
1
J5
10
249586.911
20
2748331.059
30
0
40
1
41
1
50
0
51
0
7
Standard
11
249586.911
21
2748331.059
31
0
210
0
220
0
230
1
72
0
100
AcDbText
73
0
0
TEXT
5
17d
100
AcDbEntity
8
0
62
5
6
ByLayer
100
AcDbText
1
HT420
10
250418.317
20
2746553.973
30
0
40
1
41
1
50
0
51
0
7
Standard
11
250418.317
21
2746553.973
31
0
210
0
220
0
230
1
72
0
100
AcDbText
73
0
0
TEXT
5
17e
100
AcDbEntity
8
0
62
5
6
ByLayer
100
AcDbText
1
HT421
10
250532.673
20
2746525.651
30
0
40
1
41
1
50
0
51
0
7
Standard
11
250532.673
21
2746525.651
31
0
210
0
220
0
230
1
72
0
100
AcDbText
73
0
0
TEXT
5
17f
100
AcDbEntity
8
0
62
5
6
ByLayer
100
AcDbText
1
HT422
10
250600.611
20
2746473.526
30
0
40
1
41
1
50
0
51
0
7
Standard
11
250600.611
21
2746473.526
31
0
210
0
220
0
230
1
72
0
100
AcDbText
73
0
0
TEXT
5
180
100
AcDbEntity
8
0
62
5
6
ByLayer
100
AcDbText
1
HT189
10
249833.07
20
2748192.873
30
0
40
1
41
1
50
0
51
0
7
Standard
11
249833.07
21
2748192.873
31
0
210
0
220
0
230
1
72
0
100
AcDbText
73
0
0
TEXT
5
181
100
AcDbEntity
8
0
62
5
6
ByLayer
100
AcDbText
1
HT151
10
249947.044
20
2748219.36
30
0
40
1
41
1
50
0
51
0
7
Standard
11
249947.044
21
2748219.36
31
0
210
0
220
0
230
1
72
0
100
AcDbText
73
0
0
TEXT
5
182
100
AcDbEntity
8
0
62
5
6
ByLayer
100
AcDbText
1
S065
10
250242.861
20
2747602.06
30
0
40
1
41
1
50
0
51
0
7
Standard
11
250242.861
21
2747602.06
31
0
210
0
220
0
230
1
72
0
100
AcDbText
73
0
0
TEXT
5
183
100
AcDbEntity
8
0
62
5
6
ByLayer
100
AcDbText
1
HD828
10
250293.003
20
2747789.168
30
0
40
1
41
1
50
0
51
0
7
Standard
11
250293.003
21
2747789.168
31
0
210
0
220
0
230
1
72
0
100
AcDbText
73
0
0
TEXT
5
184
100
AcDbEntity
8
0
62
5
6
ByLayer
100
AcDbText
1
HD830
10
250242.502
20
2747699.044
30
0
40
1
41
1
50
0
51
0
7
Standard
11
250242.502
21
2747699.044
31
0
210
0
220
0
230
1
72
0
100
AcDbText
73
0
0
TEXT
5
185
100
AcDbEntity
8
0
62
5
6
ByLayer
100
AcDbText
1
HT205
10
250396.809
20
2747743.037
30
0
40
1
41
1
50
0
51
0
7
Standard
11
250396.809
21
2747743.037
31
0
210
0
220
0
230
1
72
0
100
AcDbText
73
0
0
TEXT
5
186
100
AcDbEntity
8
0
62
5
6
ByLayer
100
AcDbText
1
HT376
10
249766.817
20
2746601.11
30
0
40
1
41
1
50
0
51
0
7
Standard
11
249766.817
21
2746601.11
31
0
210
0
220
0
230
1
72
0
100
AcDbText
73
0
0
TEXT
5
187
100
AcDbEntity
8
0
62
5
6
ByLayer
100
AcDbText
1
HT377
10
249824.54
20
2746661.026
30
0
40
1
41
1
50
0
51
0
7
Standard
11
249824.54
21
2746661.026
31
0
210
0
220
0
230
1
72
0
100
AcDbText
73
0
0
TEXT
5
188
100
AcDbEntity
8
0
62
5
6
ByLayer
100
AcDbText
1
1038
10
249847.214
20
2746667.508
30
0
40
1
41
1
50
0
51
0
7
Standard
11
249847.214
21
2746667.508
31
0
210
0
220
0
230
1
72
0
100
AcDbText
73
0
0
TEXT
5
189
100
AcDbEntity
8
0
62
5
6
ByLayer
100
AcDbText
1
AJ8
10
250421.316
20
2747426.375
30
0
40
1
41
1
50
0
51
0
7
Standard
11
250421.316
21
2747426.375
31
0
210
0
220
0
230
1
72
0
100
AcDbText
73
0
0
TEXT
5
18a
100
AcDbEntity
8
0
62
5
6
ByLayer
100
AcDbText
1
HT266
10
250259.892
20
2747366.802
30
0
40
1
41
1
50
0
51
0
7
Standard
11
250259.892
21
2747366.802
31
0
210
0
220
0
230
1
72
0
100
AcDbText
73
0
0
ENDSEC
0
SECTION
2
OBJECTS
0
DICTIONARY
5
a
100
AcDbDictionary
281
1
3
ACAD_GROUP
350
b
0
DICTIONARY
5
b
100
AcDbDictionary
281
1
0
ENDSEC
0
EOF
